<?xml version="1.0" encoding="UTF-8" standalone="no"?><svg xmlns="http://www.w3.org/2000/svg" xmlns:xlink="http://www.w3.org/1999/xlink" contentScriptType="application/ecmascript" contentStyleType="text/css" height="535px" preserveAspectRatio="none" style="width:1703px;height:535px;" version="1.1" viewBox="0 0 1703 535" width="1703px" zoomAndPan="magnify"><defs><filter height="300%" id="f1wal8z1ooiug3" width="300%" x="-1" y="-1"><feGaussianBlur result="blurOut" stdDeviation="2.0"/><feColorMatrix in="blurOut" result="blurOut2" type="matrix" values="0 0 0 0 0 0 0 0 0 0 0 0 0 0 0 0 0 0 .4 0"/><feOffset dx="4.0" dy="4.0" in="blurOut2" result="blurOut3"/><feBlend in="SourceGraphic" in2="blurOut3" mode="normal"/></filter></defs><g><!--MD5=[40ffd83d8dc7aa9f5a6df70edd4b6d38]
cluster com.example.cmput301w24t33.adminFragments--><polygon fill="#FFFFFF" filter="url(#f1wal8z1ooiug3)" points="117,45,507,45,514,67.2969,1012,67.2969,1012,413,117,413,117,45" style="stroke: #000000; stroke-width: 1.5;"/><line style="stroke: #000000; stroke-width: 1.5;" x1="117" x2="514" y1="67.2969" y2="67.2969"/><text fill="#000000" font-family="sans-serif" font-size="14" font-weight="bold" lengthAdjust="spacingAndGlyphs" textLength="384" x="121" y="59.9951">com.example.cmput301w24t33.adminFragments</text><!--MD5=[d5ac500e3acd7345ee7b13ad7c948d38]
cluster com.example.cmput301w24t33.activities--><polygon fill="#FFFFFF" filter="url(#f1wal8z1ooiug3)" points="1342,83.5,1671,83.5,1678,105.7969,1681,105.7969,1681,374.5,1342,374.5,1342,83.5" style="stroke: #000000; stroke-width: 1.5;"/><line style="stroke: #000000; stroke-width: 1.5;" x1="1342" x2="1678" y1="105.7969" y2="105.7969"/><text fill="#000000" font-family="sans-serif" font-size="14" font-weight="bold" lengthAdjust="spacingAndGlyphs" textLength="323" x="1346" y="98.4951">com.example.cmput301w24t33.activities</text><!--MD5=[b55f972e42ff09136e480edc07bba6f0]
class ViewProfilesAdmin--><rect fill="#FEFECE" filter="url(#f1wal8z1ooiug3)" height="291.2891" id="ViewProfilesAdmin" style="stroke: #A80036; stroke-width: 1.5;" width="144" x="407" y="93"/><ellipse cx="422" cy="109" fill="#ADD1B2" rx="11" ry="11" style="stroke: #A80036; stroke-width: 1.0;"/><path d="M424.9688,114.6406 Q424.3906,114.9375 423.75,115.0781 Q423.1094,115.2344 422.4063,115.2344 Q419.9063,115.2344 418.5781,113.5938 Q417.2656,111.9375 417.2656,108.8125 Q417.2656,105.6875 418.5781,104.0313 Q419.9063,102.375 422.4063,102.375 Q423.1094,102.375 423.75,102.5313 Q424.4063,102.6875 424.9688,102.9844 L424.9688,105.7031 Q424.3438,105.125 423.75,104.8594 Q423.1563,104.5781 422.5313,104.5781 Q421.1875,104.5781 420.5,105.6563 Q419.8125,106.7188 419.8125,108.8125 Q419.8125,110.9063 420.5,111.9844 Q421.1875,113.0469 422.5313,113.0469 Q423.1563,113.0469 423.75,112.7813 Q424.3438,112.5 424.9688,111.9219 L424.9688,114.6406 Z "/><text fill="#000000" font-family="sans-serif" font-size="12" lengthAdjust="spacingAndGlyphs" textLength="112" x="436" y="113.1543">ViewProfilesAdmin</text><line style="stroke: #A80036; stroke-width: 1.5;" x1="408" x2="550" y1="125" y2="125"/><text fill="#000000" font-family="sans-serif" font-size="11" lengthAdjust="spacingAndGlyphs" textLength="78" x="413" y="139.2104">actionBarText</text><text fill="#000000" font-family="sans-serif" font-size="11" lengthAdjust="spacingAndGlyphs" textLength="63" x="413" y="152.0151">backButton</text><text fill="#000000" font-family="sans-serif" font-size="11" lengthAdjust="spacingAndGlyphs" textLength="28" x="413" y="164.8198">color</text><text fill="#000000" font-family="sans-serif" font-size="11" lengthAdjust="spacingAndGlyphs" textLength="41" x="413" y="177.6245">context</text><text fill="#000000" font-family="sans-serif" font-size="11" lengthAdjust="spacingAndGlyphs" textLength="97" x="413" y="190.4292">generalActionBar</text><text fill="#000000" font-family="sans-serif" font-size="11" lengthAdjust="spacingAndGlyphs" textLength="70" x="413" y="203.2339">userAdapter</text><text fill="#000000" font-family="sans-serif" font-size="11" lengthAdjust="spacingAndGlyphs" textLength="46" x="413" y="216.0386">userList</text><text fill="#000000" font-family="sans-serif" font-size="11" lengthAdjust="spacingAndGlyphs" textLength="99" x="413" y="228.8433">userRecyclerView</text><text fill="#000000" font-family="sans-serif" font-size="11" lengthAdjust="spacingAndGlyphs" textLength="85" x="413" y="241.6479">userViewModel</text><text fill="#000000" font-family="sans-serif" font-size="11" lengthAdjust="spacingAndGlyphs" textLength="25" x="413" y="254.4526">view</text><line style="stroke: #A80036; stroke-width: 1.5;" x1="408" x2="550" y1="261.0469" y2="261.0469"/><text fill="#000000" font-family="sans-serif" font-size="11" lengthAdjust="spacingAndGlyphs" textLength="82" x="413" y="275.2573">displayUsers()</text><text fill="#000000" font-family="sans-serif" font-size="11" lengthAdjust="spacingAndGlyphs" textLength="86" x="413" y="288.062">onCreateView()</text><text fill="#000000" font-family="sans-serif" font-size="11" lengthAdjust="spacingAndGlyphs" textLength="68" x="413" y="300.8667">onResume()</text><text fill="#000000" font-family="sans-serif" font-size="11" lengthAdjust="spacingAndGlyphs" textLength="75" x="413" y="313.6714">onUserClick()</text><text fill="#000000" font-family="sans-serif" font-size="11" lengthAdjust="spacingAndGlyphs" textLength="104" x="413" y="326.4761">replaceFragment()</text><text fill="#000000" font-family="sans-serif" font-size="11" lengthAdjust="spacingAndGlyphs" textLength="70" x="413" y="339.2808">setAdapter()</text><text fill="#000000" font-family="sans-serif" font-size="11" lengthAdjust="spacingAndGlyphs" textLength="94" x="413" y="352.0854">setupActionBar()</text><text fill="#000000" font-family="sans-serif" font-size="11" lengthAdjust="spacingAndGlyphs" textLength="119" x="413" y="364.8901">setupClickListeners()</text><text fill="#000000" font-family="sans-serif" font-size="11" lengthAdjust="spacingAndGlyphs" textLength="58" x="413" y="377.6948">updateUI()</text><!--MD5=[76c94e9eda4cc52682c9ee124fdf22da]
class ViewEventsAdmin--><rect fill="#FEFECE" filter="url(#f1wal8z1ooiug3)" height="316.8984" id="ViewEventsAdmin" style="stroke: #A80036; stroke-width: 1.5;" width="140" x="586" y="80"/><ellipse cx="601" cy="96" fill="#ADD1B2" rx="11" ry="11" style="stroke: #A80036; stroke-width: 1.0;"/><path d="M603.9688,101.6406 Q603.3906,101.9375 602.75,102.0781 Q602.1094,102.2344 601.4063,102.2344 Q598.9063,102.2344 597.5781,100.5938 Q596.2656,98.9375 596.2656,95.8125 Q596.2656,92.6875 597.5781,91.0313 Q598.9063,89.375 601.4063,89.375 Q602.1094,89.375 602.75,89.5313 Q603.4063,89.6875 603.9688,89.9844 L603.9688,92.7031 Q603.3438,92.125 602.75,91.8594 Q602.1563,91.5781 601.5313,91.5781 Q600.1875,91.5781 599.5,92.6563 Q598.8125,93.7188 598.8125,95.8125 Q598.8125,97.9063 599.5,98.9844 Q600.1875,100.0469 601.5313,100.0469 Q602.1563,100.0469 602.75,99.7813 Q603.3438,99.5 603.9688,98.9219 L603.9688,101.6406 Z "/><text fill="#000000" font-family="sans-serif" font-size="12" lengthAdjust="spacingAndGlyphs" textLength="108" x="615" y="100.1543">ViewEventsAdmin</text><line style="stroke: #A80036; stroke-width: 1.5;" x1="587" x2="725" y1="112" y2="112"/><text fill="#000000" font-family="sans-serif" font-size="11" lengthAdjust="spacingAndGlyphs" textLength="78" x="592" y="126.2104">actionBarText</text><text fill="#000000" font-family="sans-serif" font-size="11" lengthAdjust="spacingAndGlyphs" textLength="63" x="592" y="139.0151">backButton</text><text fill="#000000" font-family="sans-serif" font-size="11" lengthAdjust="spacingAndGlyphs" textLength="28" x="592" y="151.8198">color</text><text fill="#000000" font-family="sans-serif" font-size="11" lengthAdjust="spacingAndGlyphs" textLength="41" x="592" y="164.6245">context</text><text fill="#000000" font-family="sans-serif" font-size="11" lengthAdjust="spacingAndGlyphs" textLength="75" x="592" y="177.4292">eventAdapter</text><text fill="#000000" font-family="sans-serif" font-size="11" lengthAdjust="spacingAndGlyphs" textLength="51" x="592" y="190.2339">eventList</text><text fill="#000000" font-family="sans-serif" font-size="11" lengthAdjust="spacingAndGlyphs" textLength="104" x="592" y="203.0386">eventRecyclerView</text><text fill="#000000" font-family="sans-serif" font-size="11" lengthAdjust="spacingAndGlyphs" textLength="90" x="592" y="215.8433">eventViewModel</text><text fill="#000000" font-family="sans-serif" font-size="11" lengthAdjust="spacingAndGlyphs" textLength="101" x="592" y="228.6479">fragmentManager</text><text fill="#000000" font-family="sans-serif" font-size="11" lengthAdjust="spacingAndGlyphs" textLength="97" x="592" y="241.4526">generalActionBar</text><text fill="#000000" font-family="sans-serif" font-size="11" lengthAdjust="spacingAndGlyphs" textLength="64" x="592" y="254.2573">transaction</text><text fill="#000000" font-family="sans-serif" font-size="11" lengthAdjust="spacingAndGlyphs" textLength="25" x="592" y="267.062">view</text><line style="stroke: #A80036; stroke-width: 1.5;" x1="587" x2="725" y1="273.6563" y2="273.6563"/><text fill="#000000" font-family="sans-serif" font-size="11" lengthAdjust="spacingAndGlyphs" textLength="86" x="592" y="287.8667">displayEvents()</text><text fill="#000000" font-family="sans-serif" font-size="11" lengthAdjust="spacingAndGlyphs" textLength="86" x="592" y="300.6714">onCreateView()</text><text fill="#000000" font-family="sans-serif" font-size="11" lengthAdjust="spacingAndGlyphs" textLength="125" x="592" y="313.4761">onEventClickListener()</text><text fill="#000000" font-family="sans-serif" font-size="11" lengthAdjust="spacingAndGlyphs" textLength="68" x="592" y="326.2808">onResume()</text><text fill="#000000" font-family="sans-serif" font-size="11" lengthAdjust="spacingAndGlyphs" textLength="104" x="592" y="339.0854">replaceFragment()</text><text fill="#000000" font-family="sans-serif" font-size="11" lengthAdjust="spacingAndGlyphs" textLength="70" x="592" y="351.8901">setAdapter()</text><text fill="#000000" font-family="sans-serif" font-size="11" lengthAdjust="spacingAndGlyphs" textLength="94" x="592" y="364.6948">setupActionBar()</text><text fill="#000000" font-family="sans-serif" font-size="11" lengthAdjust="spacingAndGlyphs" textLength="119" x="592" y="377.4995">setupClickListeners()</text><text fill="#000000" font-family="sans-serif" font-size="11" lengthAdjust="spacingAndGlyphs" textLength="58" x="592" y="390.3042">updateUI()</text><!--MD5=[10ba326b3af749ac5a0c29206b79fbd4]
class DeleteProfileAdmin--><rect fill="#FEFECE" filter="url(#f1wal8z1ooiug3)" height="265.6797" id="DeleteProfileAdmin" style="stroke: #A80036; stroke-width: 1.5;" width="150" x="133" y="105.5"/><ellipse cx="148" cy="121.5" fill="#ADD1B2" rx="11" ry="11" style="stroke: #A80036; stroke-width: 1.0;"/><path d="M150.9688,127.1406 Q150.3906,127.4375 149.75,127.5781 Q149.1094,127.7344 148.4063,127.7344 Q145.9063,127.7344 144.5781,126.0938 Q143.2656,124.4375 143.2656,121.3125 Q143.2656,118.1875 144.5781,116.5313 Q145.9063,114.875 148.4063,114.875 Q149.1094,114.875 149.75,115.0313 Q150.4063,115.1875 150.9688,115.4844 L150.9688,118.2031 Q150.3438,117.625 149.75,117.3594 Q149.1563,117.0781 148.5313,117.0781 Q147.1875,117.0781 146.5,118.1563 Q145.8125,119.2188 145.8125,121.3125 Q145.8125,123.4063 146.5,124.4844 Q147.1875,125.5469 148.5313,125.5469 Q149.1563,125.5469 149.75,125.2813 Q150.3438,125 150.9688,124.4219 L150.9688,127.1406 Z "/><text fill="#000000" font-family="sans-serif" font-size="12" lengthAdjust="spacingAndGlyphs" textLength="118" x="162" y="125.6543">DeleteProfileAdmin</text><line style="stroke: #A80036; stroke-width: 1.5;" x1="134" x2="282" y1="137.5" y2="137.5"/><text fill="#000000" font-family="sans-serif" font-size="11" lengthAdjust="spacingAndGlyphs" textLength="78" x="139" y="151.7104">actionBarText</text><text fill="#000000" font-family="sans-serif" font-size="11" lengthAdjust="spacingAndGlyphs" textLength="26" x="139" y="164.5151">args</text><text fill="#000000" font-family="sans-serif" font-size="11" lengthAdjust="spacingAndGlyphs" textLength="63" x="139" y="177.3198">backButton</text><text fill="#000000" font-family="sans-serif" font-size="11" lengthAdjust="spacingAndGlyphs" textLength="28" x="139" y="190.1245">color</text><text fill="#000000" font-family="sans-serif" font-size="11" lengthAdjust="spacingAndGlyphs" textLength="72" x="139" y="202.9292">deleteButton</text><text fill="#000000" font-family="sans-serif" font-size="11" lengthAdjust="spacingAndGlyphs" textLength="31" x="139" y="215.7339">email</text><text fill="#000000" font-family="sans-serif" font-size="11" lengthAdjust="spacingAndGlyphs" textLength="56" x="139" y="228.5386">firstName</text><text fill="#000000" font-family="sans-serif" font-size="11" lengthAdjust="spacingAndGlyphs" textLength="52" x="139" y="241.3433">fragment</text><text fill="#000000" font-family="sans-serif" font-size="11" lengthAdjust="spacingAndGlyphs" textLength="97" x="139" y="254.1479">generalActionBar</text><text fill="#000000" font-family="sans-serif" font-size="11" lengthAdjust="spacingAndGlyphs" textLength="54" x="139" y="266.9526">lastName</text><text fill="#000000" font-family="sans-serif" font-size="11" lengthAdjust="spacingAndGlyphs" textLength="86" x="139" y="279.7573">profileToDelete</text><text fill="#000000" font-family="sans-serif" font-size="11" lengthAdjust="spacingAndGlyphs" textLength="25" x="139" y="292.562">view</text><line style="stroke: #A80036; stroke-width: 1.5;" x1="134" x2="282" y1="299.1563" y2="299.1563"/><text fill="#000000" font-family="sans-serif" font-size="11" lengthAdjust="spacingAndGlyphs" textLength="58" x="139" y="313.3667">loadData()</text><text fill="#000000" font-family="sans-serif" font-size="11" lengthAdjust="spacingAndGlyphs" textLength="79" x="139" y="326.1714">newInstance()</text><text fill="#000000" font-family="sans-serif" font-size="11" lengthAdjust="spacingAndGlyphs" textLength="86" x="139" y="338.9761">onCreateView()</text><text fill="#000000" font-family="sans-serif" font-size="11" lengthAdjust="spacingAndGlyphs" textLength="94" x="139" y="351.7808">setupActionBar()</text><text fill="#000000" font-family="sans-serif" font-size="11" lengthAdjust="spacingAndGlyphs" textLength="119" x="139" y="364.5854">setupClickListeners()</text><!--MD5=[766b3e318005c69bc689d0110daa5547]
class DeleteEventAdmin--><rect fill="#FEFECE" filter="url(#f1wal8z1ooiug3)" height="188.8516" id="DeleteEventAdmin" style="stroke: #A80036; stroke-width: 1.5;" width="146" x="761" y="144"/><ellipse cx="776" cy="160" fill="#ADD1B2" rx="11" ry="11" style="stroke: #A80036; stroke-width: 1.0;"/><path d="M778.9688,165.6406 Q778.3906,165.9375 777.75,166.0781 Q777.1094,166.2344 776.4063,166.2344 Q773.9063,166.2344 772.5781,164.5938 Q771.2656,162.9375 771.2656,159.8125 Q771.2656,156.6875 772.5781,155.0313 Q773.9063,153.375 776.4063,153.375 Q777.1094,153.375 777.75,153.5313 Q778.4063,153.6875 778.9688,153.9844 L778.9688,156.7031 Q778.3438,156.125 777.75,155.8594 Q777.1563,155.5781 776.5313,155.5781 Q775.1875,155.5781 774.5,156.6563 Q773.8125,157.7188 773.8125,159.8125 Q773.8125,161.9063 774.5,162.9844 Q775.1875,164.0469 776.5313,164.0469 Q777.1563,164.0469 777.75,163.7813 Q778.3438,163.5 778.9688,162.9219 L778.9688,165.6406 Z "/><text fill="#000000" font-family="sans-serif" font-size="12" lengthAdjust="spacingAndGlyphs" textLength="114" x="790" y="164.1543">DeleteEventAdmin</text><line style="stroke: #A80036; stroke-width: 1.5;" x1="762" x2="906" y1="176" y2="176"/><text fill="#000000" font-family="sans-serif" font-size="11" lengthAdjust="spacingAndGlyphs" textLength="26" x="767" y="190.2104">args</text><text fill="#000000" font-family="sans-serif" font-size="11" lengthAdjust="spacingAndGlyphs" textLength="41" x="767" y="203.0151">binding</text><text fill="#000000" font-family="sans-serif" font-size="11" lengthAdjust="spacingAndGlyphs" textLength="81" x="767" y="215.8198">eventToDelete</text><text fill="#000000" font-family="sans-serif" font-size="11" lengthAdjust="spacingAndGlyphs" textLength="52" x="767" y="228.6245">fragment</text><line style="stroke: #A80036; stroke-width: 1.5;" x1="762" x2="906" y1="235.2188" y2="235.2188"/><text fill="#000000" font-family="sans-serif" font-size="11" lengthAdjust="spacingAndGlyphs" textLength="58" x="767" y="249.4292">loadData()</text><text fill="#000000" font-family="sans-serif" font-size="11" lengthAdjust="spacingAndGlyphs" textLength="79" x="767" y="262.2339">newInstance()</text><text fill="#000000" font-family="sans-serif" font-size="11" lengthAdjust="spacingAndGlyphs" textLength="60" x="767" y="275.0386">onCancel()</text><text fill="#000000" font-family="sans-serif" font-size="11" lengthAdjust="spacingAndGlyphs" textLength="86" x="767" y="287.8433">onCreateView()</text><text fill="#000000" font-family="sans-serif" font-size="11" lengthAdjust="spacingAndGlyphs" textLength="58" x="767" y="300.6479">onDelete()</text><text fill="#000000" font-family="sans-serif" font-size="11" lengthAdjust="spacingAndGlyphs" textLength="92" x="767" y="313.4526">onDestroyView()</text><text fill="#000000" font-family="sans-serif" font-size="11" lengthAdjust="spacingAndGlyphs" textLength="118" x="767" y="326.2573">setupActionButtons()</text><!--MD5=[db6d18d8099558415abc41d00477ab92]
class Admin--><rect fill="#FEFECE" filter="url(#f1wal8z1ooiug3)" height="240.0703" id="Admin" style="stroke: #A80036; stroke-width: 1.5;" width="133" x="1359.5" y="118.5"/><ellipse cx="1402.85" cy="134.5" fill="#ADD1B2" rx="11" ry="11" style="stroke: #A80036; stroke-width: 1.0;"/><path d="M1405.8188,140.1406 Q1405.2406,140.4375 1404.6,140.5781 Q1403.9594,140.7344 1403.2563,140.7344 Q1400.7563,140.7344 1399.4281,139.0938 Q1398.1156,137.4375 1398.1156,134.3125 Q1398.1156,131.1875 1399.4281,129.5313 Q1400.7563,127.875 1403.2563,127.875 Q1403.9594,127.875 1404.6,128.0313 Q1405.2563,128.1875 1405.8188,128.4844 L1405.8188,131.2031 Q1405.1938,130.625 1404.6,130.3594 Q1404.0063,130.0781 1403.3813,130.0781 Q1402.0375,130.0781 1401.35,131.1563 Q1400.6625,132.2188 1400.6625,134.3125 Q1400.6625,136.4063 1401.35,137.4844 Q1402.0375,138.5469 1403.3813,138.5469 Q1404.0063,138.5469 1404.6,138.2813 Q1405.1938,138 1405.8188,137.4219 L1405.8188,140.1406 Z "/><text fill="#000000" font-family="sans-serif" font-size="12" lengthAdjust="spacingAndGlyphs" textLength="38" x="1423.15" y="138.6543">Admin</text><line style="stroke: #A80036; stroke-width: 1.5;" x1="1360.5" x2="1491.5" y1="150.5" y2="150.5"/><text fill="#000000" font-family="sans-serif" font-size="11" lengthAdjust="spacingAndGlyphs" textLength="78" x="1365.5" y="164.7104">actionBarText</text><text fill="#000000" font-family="sans-serif" font-size="11" lengthAdjust="spacingAndGlyphs" textLength="63" x="1365.5" y="177.5151">backButton</text><text fill="#000000" font-family="sans-serif" font-size="11" lengthAdjust="spacingAndGlyphs" textLength="28" x="1365.5" y="190.3198">color</text><text fill="#000000" font-family="sans-serif" font-size="11" lengthAdjust="spacingAndGlyphs" textLength="68" x="1365.5" y="203.1245">eventButton</text><text fill="#000000" font-family="sans-serif" font-size="11" lengthAdjust="spacingAndGlyphs" textLength="101" x="1365.5" y="215.9292">fragmentManager</text><text fill="#000000" font-family="sans-serif" font-size="11" lengthAdjust="spacingAndGlyphs" textLength="96" x="1365.5" y="228.7339">generalActionbar</text><text fill="#000000" font-family="sans-serif" font-size="11" lengthAdjust="spacingAndGlyphs" textLength="72" x="1365.5" y="241.5386">imageButton</text><text fill="#000000" font-family="sans-serif" font-size="11" lengthAdjust="spacingAndGlyphs" textLength="73" x="1365.5" y="254.3433">profileButton</text><text fill="#000000" font-family="sans-serif" font-size="11" lengthAdjust="spacingAndGlyphs" textLength="64" x="1365.5" y="267.1479">transaction</text><text fill="#000000" font-family="sans-serif" font-size="11" lengthAdjust="spacingAndGlyphs" textLength="25" x="1365.5" y="279.9526">view</text><line style="stroke: #A80036; stroke-width: 1.5;" x1="1360.5" x2="1491.5" y1="286.5469" y2="286.5469"/><text fill="#000000" font-family="sans-serif" font-size="11" lengthAdjust="spacingAndGlyphs" textLength="60" x="1365.5" y="300.7573">onCreate()</text><text fill="#000000" font-family="sans-serif" font-size="11" lengthAdjust="spacingAndGlyphs" textLength="68" x="1365.5" y="313.562">onResume()</text><text fill="#000000" font-family="sans-serif" font-size="11" lengthAdjust="spacingAndGlyphs" textLength="104" x="1365.5" y="326.3667">replaceFragment()</text><text fill="#000000" font-family="sans-serif" font-size="11" lengthAdjust="spacingAndGlyphs" textLength="121" x="1365.5" y="339.1714">setOnClickListeners()</text><text fill="#000000" font-family="sans-serif" font-size="11" lengthAdjust="spacingAndGlyphs" textLength="94" x="1365.5" y="351.9761">setupActionBar()</text><!--MD5=[499a93d1a2128e7b640a788d1f7209bf]
class Fragment--><rect fill="#FEFECE" filter="url(#f1wal8z1ooiug3)" height="48" id="Fragment" style="stroke: #A80036; stroke-width: 1.5;" width="92" x="6" y="214.5"/><ellipse cx="21" cy="230.5" fill="#ADD1B2" rx="11" ry="11" style="stroke: #A80036; stroke-width: 1.0;"/><path d="M23.9688,236.1406 Q23.3906,236.4375 22.75,236.5781 Q22.1094,236.7344 21.4063,236.7344 Q18.9063,236.7344 17.5781,235.0938 Q16.2656,233.4375 16.2656,230.3125 Q16.2656,227.1875 17.5781,225.5313 Q18.9063,223.875 21.4063,223.875 Q22.1094,223.875 22.75,224.0313 Q23.4063,224.1875 23.9688,224.4844 L23.9688,227.2031 Q23.3438,226.625 22.75,226.3594 Q22.1563,226.0781 21.5313,226.0781 Q20.1875,226.0781 19.5,227.1563 Q18.8125,228.2188 18.8125,230.3125 Q18.8125,232.4063 19.5,233.4844 Q20.1875,234.5469 21.5313,234.5469 Q22.1563,234.5469 22.75,234.2813 Q23.3438,234 23.9688,233.4219 L23.9688,236.1406 Z "/><text fill="#000000" font-family="sans-serif" font-size="12" lengthAdjust="spacingAndGlyphs" textLength="60" x="35" y="234.6543">Fragment</text><line style="stroke: #A80036; stroke-width: 1.5;" x1="7" x2="97" y1="246.5" y2="246.5"/><line style="stroke: #A80036; stroke-width: 1.5;" x1="7" x2="97" y1="254.5" y2="254.5"/><!--MD5=[898037fb02501998475378ad9598be7f]
class UserAdapter--><rect fill="#FEFECE" filter="url(#f1wal8z1ooiug3)" height="48" id="UserAdapter" style="stroke: #A80036; stroke-width: 1.5;" width="111" x="1031.5" y="214.5"/><ellipse cx="1046.5" cy="230.5" fill="#ADD1B2" rx="11" ry="11" style="stroke: #A80036; stroke-width: 1.0;"/><path d="M1049.4688,236.1406 Q1048.8906,236.4375 1048.25,236.5781 Q1047.6094,236.7344 1046.9063,236.7344 Q1044.4063,236.7344 1043.0781,235.0938 Q1041.7656,233.4375 1041.7656,230.3125 Q1041.7656,227.1875 1043.0781,225.5313 Q1044.4063,223.875 1046.9063,223.875 Q1047.6094,223.875 1048.25,224.0313 Q1048.9063,224.1875 1049.4688,224.4844 L1049.4688,227.2031 Q1048.8438,226.625 1048.25,226.3594 Q1047.6563,226.0781 1047.0313,226.0781 Q1045.6875,226.0781 1045,227.1563 Q1044.3125,228.2188 1044.3125,230.3125 Q1044.3125,232.4063 1045,233.4844 Q1045.6875,234.5469 1047.0313,234.5469 Q1047.6563,234.5469 1048.25,234.2813 Q1048.8438,234 1049.4688,233.4219 L1049.4688,236.1406 Z "/><text fill="#000000" font-family="sans-serif" font-size="12" lengthAdjust="spacingAndGlyphs" textLength="79" x="1060.5" y="234.6543">UserAdapter</text><line style="stroke: #A80036; stroke-width: 1.5;" x1="1032.5" x2="1141.5" y1="246.5" y2="246.5"/><line style="stroke: #A80036; stroke-width: 1.5;" x1="1032.5" x2="1141.5" y1="254.5" y2="254.5"/><!--MD5=[536e464d8b1e54faa737ee1f4ae6355d]
class Bundle--><rect fill="#FEFECE" filter="url(#f1wal8z1ooiug3)" height="48" id="Bundle" style="stroke: #A80036; stroke-width: 1.5;" width="75" x="483.5" y="476"/><ellipse cx="498.5" cy="492" fill="#ADD1B2" rx="11" ry="11" style="stroke: #A80036; stroke-width: 1.0;"/><path d="M501.4688,497.6406 Q500.8906,497.9375 500.25,498.0781 Q499.6094,498.2344 498.9063,498.2344 Q496.4063,498.2344 495.0781,496.5938 Q493.7656,494.9375 493.7656,491.8125 Q493.7656,488.6875 495.0781,487.0313 Q496.4063,485.375 498.9063,485.375 Q499.6094,485.375 500.25,485.5313 Q500.9063,485.6875 501.4688,485.9844 L501.4688,488.7031 Q500.8438,488.125 500.25,487.8594 Q499.6563,487.5781 499.0313,487.5781 Q497.6875,487.5781 497,488.6563 Q496.3125,489.7188 496.3125,491.8125 Q496.3125,493.9063 497,494.9844 Q497.6875,496.0469 499.0313,496.0469 Q499.6563,496.0469 500.25,495.7813 Q500.8438,495.5 501.4688,494.9219 L501.4688,497.6406 Z "/><text fill="#000000" font-family="sans-serif" font-size="12" lengthAdjust="spacingAndGlyphs" textLength="43" x="512.5" y="496.1543">Bundle</text><line style="stroke: #A80036; stroke-width: 1.5;" x1="484.5" x2="557.5" y1="508" y2="508"/><line style="stroke: #A80036; stroke-width: 1.5;" x1="484.5" x2="557.5" y1="516" y2="516"/><!--MD5=[5839a728ddc01d792fb5317e858e9ae0]
class AppCompatActivity--><rect fill="#FEFECE" filter="url(#f1wal8z1ooiug3)" height="48" id="AppCompatActivity" style="stroke: #A80036; stroke-width: 1.5;" width="147" x="1177.5" y="214.5"/><ellipse cx="1192.5" cy="230.5" fill="#ADD1B2" rx="11" ry="11" style="stroke: #A80036; stroke-width: 1.0;"/><path d="M1195.4688,236.1406 Q1194.8906,236.4375 1194.25,236.5781 Q1193.6094,236.7344 1192.9063,236.7344 Q1190.4063,236.7344 1189.0781,235.0938 Q1187.7656,233.4375 1187.7656,230.3125 Q1187.7656,227.1875 1189.0781,225.5313 Q1190.4063,223.875 1192.9063,223.875 Q1193.6094,223.875 1194.25,224.0313 Q1194.9063,224.1875 1195.4688,224.4844 L1195.4688,227.2031 Q1194.8438,226.625 1194.25,226.3594 Q1193.6563,226.0781 1193.0313,226.0781 Q1191.6875,226.0781 1191,227.1563 Q1190.3125,228.2188 1190.3125,230.3125 Q1190.3125,232.4063 1191,233.4844 Q1191.6875,234.5469 1193.0313,234.5469 Q1193.6563,234.5469 1194.25,234.2813 Q1194.8438,234 1195.4688,233.4219 L1195.4688,236.1406 Z "/><text fill="#000000" font-family="sans-serif" font-size="12" lengthAdjust="spacingAndGlyphs" textLength="115" x="1206.5" y="234.6543">AppCompatActivity</text><line style="stroke: #A80036; stroke-width: 1.5;" x1="1178.5" x2="1323.5" y1="246.5" y2="246.5"/><line style="stroke: #A80036; stroke-width: 1.5;" x1="1178.5" x2="1323.5" y1="254.5" y2="254.5"/><!--MD5=[c5349dd8b2f39b68d36d59660454a73c]
reverse link Fragment to ViewProfilesAdmin--><path d="M51.73,194.33 C54.2,138.41 68.56,46.39 134.5,22 C184.1,3.65 322.9,3.65 372.5,22 C405.4,34.17 428.18,61.55 443.92,92.88 " fill="none" id="Fragment&lt;-ViewProfilesAdmin" style="stroke: #A80036; stroke-width: 1.0;"/><polygon fill="none" points="58.73,194.61,51.28,214.45,44.73,194.3,58.73,194.61" style="stroke: #A80036; stroke-width: 1.0;"/><!--MD5=[7ace7ed528f8ec1f895cd18a1412524a]
reverse link UserAdapter to ViewProfilesAdmin--><path d="M1085.17,194.03 C1080.04,138.2 1061.34,46.73 994.5,22 C951.98,6.27 629.02,6.27 586.5,22 C553.54,34.19 530.64,61.58 514.74,92.91 " fill="none" id="UserAdapter&lt;-ViewProfilesAdmin" style="stroke: #A80036; stroke-width: 1.0;"/><polygon fill="none" points="1092.16,193.7,1086.58,214.14,1078.2,194.68,1092.16,193.7" style="stroke: #A80036; stroke-width: 1.0;"/><!--MD5=[08b7933ba5e4eee039e565ff0e117ea2]
reverse link Fragment to ViewEventsAdmin--><path d="M51.73,194.33 C54.2,138.41 68.56,46.39 134.5,22 C177.96,5.92 508.04,5.92 551.5,22 C579.68,32.43 600.28,54.11 615.33,79.9 " fill="none" id="Fragment&lt;-ViewEventsAdmin" style="stroke: #A80036; stroke-width: 1.0;"/><polygon fill="none" points="58.73,194.61,51.28,214.45,44.73,194.3,58.73,194.61" style="stroke: #A80036; stroke-width: 1.0;"/><!--MD5=[97fd32c8c6bc49099fe22d339ffca682]
reverse link Fragment to DeleteProfileAdmin--><path d="M118.13,238.5 C123.02,238.5 127.92,238.5 132.81,238.5 " fill="none" id="Fragment&lt;-DeleteProfileAdmin" style="stroke: #A80036; stroke-width: 1.0;"/><polygon fill="none" points="118.01,245.5,98.01,238.5,118.01,231.5,118.01,245.5" style="stroke: #A80036; stroke-width: 1.0;"/><!--MD5=[21f9b38ebb0bfe3d7d55ca75f7121e20]
link DeleteProfileAdmin to DeleteProfileAdmin--><path d="M294.7238,204.5204 C294.7238,204.5204 318,221.33 318,238.5 C318,255.67 309.17,266.89 296.11,272.15 " fill="none" id="DeleteProfileAdmin-DeleteProfileAdmin" style="stroke: #A80036; stroke-width: 1.0;"/><polygon fill="#A80036" points="283.06,275.3,292.748,277.0726,287.9199,274.1248,290.8677,269.2967,283.06,275.3" style="stroke: #A80036; stroke-width: 1.0;"/><line style="stroke: #A80036; stroke-width: 1.0;" x1="287.9199" x2="295.7" y1="274.1248" y2="272.245"/><polygon fill="#A80036" points="283.06,201.7,287.9518,206.9982,294.7238,204.5204,289.8321,199.2223,283.06,201.7" style="stroke: #A80036; stroke-width: 1.0;"/><text fill="#000000" font-family="sans-serif" font-size="13" lengthAdjust="spacingAndGlyphs" textLength="59" x="324" y="243.0669">fragment</text><!--MD5=[27b264f60c5f0c6bd336a2aa161f4603]
link DeleteProfileAdmin to Bundle--><path d="M291.6925,331.6666 C291.6925,331.6666 356.14,394.69 390,421 C415.44,440.77 446.31,459.37 471.68,473.45 " fill="none" id="DeleteProfileAdmin-Bundle" style="stroke: #A80036; stroke-width: 1.0;"/><polygon fill="#A80036" points="483.29,479.78,477.3057,471.9577,478.9009,477.385,473.4737,478.9802,483.29,479.78" style="stroke: #A80036; stroke-width: 1.0;"/><line style="stroke: #A80036; stroke-width: 1.0;" x1="478.9009" x2="471.88" y1="477.385" y2="473.555"/><polygon fill="#A80036" points="283.32,323.07,284.6407,330.1591,291.6925,331.6666,290.3718,324.5775,283.32,323.07" style="stroke: #A80036; stroke-width: 1.0;"/><text fill="#000000" font-family="sans-serif" font-size="13" lengthAdjust="spacingAndGlyphs" textLength="28" x="425" y="442.0669">args</text><!--MD5=[80d643418cdc2b6ca3e555dbcfd94dc2]
reverse link Fragment to DeleteEventAdmin--><path d="M51.73,194.33 C54.2,138.41 68.56,46.39 134.5,22 C165.35,10.59 695.65,10.59 726.5,22 C776.78,40.6 803.65,94.55 817.95,143.94 " fill="none" id="Fragment&lt;-DeleteEventAdmin" style="stroke: #A80036; stroke-width: 1.0;"/><polygon fill="none" points="58.73,194.61,51.28,214.45,44.73,194.3,58.73,194.61" style="stroke: #A80036; stroke-width: 1.0;"/><!--MD5=[44a832dbc72f600220a5ead4f783423b]
link DeleteEventAdmin to DeleteEventAdmin--><path d="M918.8694,204.4051 C918.8694,204.4051 942,221.18 942,238.5 C942,255.82 933.18,267.08 920.18,272.28 " fill="none" id="DeleteEventAdmin-DeleteEventAdmin" style="stroke: #A80036; stroke-width: 1.0;"/><polygon fill="#A80036" points="907.19,275.35,916.8679,277.1768,912.0564,274.202,915.0312,269.3905,907.19,275.35" style="stroke: #A80036; stroke-width: 1.0;"/><line style="stroke: #A80036; stroke-width: 1.0;" x1="912.0564" x2="919.845" y1="274.202" y2="272.36"/><polygon fill="#A80036" points="907.19,201.65,912.1114,206.9207,918.8694,204.4051,913.9481,199.1344,907.19,201.65" style="stroke: #A80036; stroke-width: 1.0;"/><text fill="#000000" font-family="sans-serif" font-size="13" lengthAdjust="spacingAndGlyphs" textLength="59" x="948" y="243.0669">fragment</text><!--MD5=[bfd64af865c82b1bf7467fa80c614cc9]
link DeleteEventAdmin to Bundle--><path d="M798.9862,344.0192 C798.9862,344.0192 767.18,400.53 744,421 C695,464.28 620.57,483.9 571.37,492.55 " fill="none" id="DeleteEventAdmin-Bundle" style="stroke: #A80036; stroke-width: 1.0;"/><polygon fill="#A80036" points="558.52,494.66,568.048,497.1535,563.4543,493.8523,566.7556,489.2586,558.52,494.66" style="stroke: #A80036; stroke-width: 1.0;"/><line style="stroke: #A80036; stroke-width: 1.0;" x1="563.4543" x2="571.345" y1="493.8523" y2="492.55"/><polygon fill="#A80036" points="804.05,333.14,797.8917,336.8917,798.9862,344.0192,805.1445,340.2676,804.05,333.14" style="stroke: #A80036; stroke-width: 1.0;"/><text fill="#000000" font-family="sans-serif" font-size="13" lengthAdjust="spacingAndGlyphs" textLength="28" x="735" y="442.0669">args</text><!--MD5=[429c5030c78bb709347311b4f6b4242a]
reverse link AppCompatActivity to Admin--><path d="M1344.97,238.5 C1349.72,238.5 1354.47,238.5 1359.21,238.5 " fill="none" id="AppCompatActivity&lt;-Admin" style="stroke: #A80036; stroke-width: 1.0;"/><polygon fill="none" points="1344.83,245.5,1324.83,238.5,1344.83,231.5,1344.83,245.5" style="stroke: #A80036; stroke-width: 1.0;"/><!--MD5=[38a5900df70d64cee6967731aa0047ac]
@startuml
package com.example.cmput301w24t33.adminFragments {
    class ViewProfilesAdmin {
        actionBarText
        backButton
        color
        context
        generalActionBar
        userAdapter
        userList
        userRecyclerView
        userViewModel
        view
        displayUsers()
        onCreateView()
        onResume()
        onUserClick()
        replaceFragment()
        setAdapter()
        setupActionBar()
        setupClickListeners()
        updateUI()
    }
    class ViewEventsAdmin {
        actionBarText
        backButton
        color
        context
        eventAdapter
        eventList
        eventRecyclerView
        eventViewModel
        fragmentManager
        generalActionBar
        transaction
        view
        displayEvents()
        onCreateView()
        onEventClickListener()
        onResume()
        replaceFragment()
        setAdapter()
        setupActionBar()
        setupClickListeners()
        updateUI()
    }
    class DeleteProfileAdmin {
        actionBarText
        args
        backButton
        color
        deleteButton
        email
        firstName
        fragment
        generalActionBar
        lastName
        profileToDelete
        view
        loadData()
        newInstance()
        onCreateView()
        setupActionBar()
        setupClickListeners()
    }
    class DeleteEventAdmin {
        args
        binding
        eventToDelete
        fragment
        loadData()
        newInstance()
        onCancel()
        onCreateView()
        onDelete()
        onDestroyView()
        setupActionButtons()
    }
}

package com.example.cmput301w24t33.activities {
    class Admin {
        actionBarText
        backButton
        color
        eventButton
        fragmentManager
        generalActionbar
        imageButton
        profileButton
        transaction
        view
        onCreate()
        onResume()
        replaceFragment()
        setOnClickListeners()
        setupActionBar()
    }
}

Fragment <|- ViewProfilesAdmin
UserAdapter <|- ViewProfilesAdmin
Fragment <|- ViewEventsAdmin
Fragment <|- DeleteProfileAdmin
DeleteProfileAdmin *- -> DeleteProfileAdmin : fragment
DeleteProfileAdmin *- -> Bundle : args
Fragment <|- DeleteEventAdmin
DeleteEventAdmin *- -> DeleteEventAdmin : fragment
DeleteEventAdmin *- -> Bundle : args
AppCompatActivity <|- Admin
@enduml

PlantUML version 1.2020.08(Sun Apr 26 14:08:22 UTC 2020)
(GPL source distribution)
Java Runtime: OpenJDK Runtime Environment
JVM: OpenJDK 64-Bit Server VM
Java Version: 1.8.0_402-heroku-b06
Operating System: Linux
Default Encoding: UTF-8
Language: en
Country: US
--></g></svg>