<?xml version="1.0" encoding="UTF-8" standalone="no"?><svg xmlns="http://www.w3.org/2000/svg" xmlns:xlink="http://www.w3.org/1999/xlink" contentScriptType="application/ecmascript" contentStyleType="text/css" height="817px" preserveAspectRatio="none" style="width:1192px;height:817px;" version="1.1" viewBox="0 0 1192 817" width="1192px" zoomAndPan="magnify"><defs><filter height="300%" id="f16i3gcqt3ffqq" width="300%" x="-1" y="-1"><feGaussianBlur result="blurOut" stdDeviation="2.0"/><feColorMatrix in="blurOut" result="blurOut2" type="matrix" values="0 0 0 0 0 0 0 0 0 0 0 0 0 0 0 0 0 0 .4 0"/><feOffset dx="4.0" dy="4.0" in="blurOut2" result="blurOut3"/><feBlend in="SourceGraphic" in2="blurOut3" mode="normal"/></filter></defs><g><!--MD5=[e253d63aecca0c7a7b06e2f88aebecae]
cluster com.example.cmput301w24t33.attendeeFragments--><polygon fill="#FFFFFF" filter="url(#f16i3gcqt3ffqq)" points="522.5,211.5,936.5,211.5,943.5,233.7969,1014.5,233.7969,1014.5,528.5,522.5,528.5,522.5,211.5" style="stroke: #000000; stroke-width: 1.5;"/><line style="stroke: #000000; stroke-width: 1.5;" x1="522.5" x2="943.5" y1="233.7969" y2="233.7969"/><text fill="#000000" font-family="sans-serif" font-size="14" font-weight="bold" lengthAdjust="spacingAndGlyphs" textLength="408" x="526.5" y="226.4951">com.example.cmput301w24t33.attendeeFragments</text><!--MD5=[d5ac500e3acd7345ee7b13ad7c948d38]
cluster com.example.cmput301w24t33.activities--><polygon fill="#FFFFFF" filter="url(#f16i3gcqt3ffqq)" points="159.5,45,488.5,45,495.5,67.2969,498.5,67.2969,498.5,695,159.5,695,159.5,45" style="stroke: #000000; stroke-width: 1.5;"/><line style="stroke: #000000; stroke-width: 1.5;" x1="159.5" x2="495.5" y1="67.2969" y2="67.2969"/><text fill="#000000" font-family="sans-serif" font-size="14" font-weight="bold" lengthAdjust="spacingAndGlyphs" textLength="323" x="163.5" y="59.9951">com.example.cmput301w24t33.activities</text><!--MD5=[0cf57f27967e5227b3d2a83566e7d323]
class NotificationsAttendee--><rect fill="#FEFECE" filter="url(#f16i3gcqt3ffqq)" height="214.4609" id="NotificationsAttendee" style="stroke: #A80036; stroke-width: 1.5;" width="169" x="538" y="272.5"/><ellipse cx="553.45" cy="288.5" fill="#ADD1B2" rx="11" ry="11" style="stroke: #A80036; stroke-width: 1.0;"/><path d="M556.4188,294.1406 Q555.8406,294.4375 555.2,294.5781 Q554.5594,294.7344 553.8563,294.7344 Q551.3563,294.7344 550.0281,293.0938 Q548.7156,291.4375 548.7156,288.3125 Q548.7156,285.1875 550.0281,283.5313 Q551.3563,281.875 553.8563,281.875 Q554.5594,281.875 555.2,282.0313 Q555.8563,282.1875 556.4188,282.4844 L556.4188,285.2031 Q555.7938,284.625 555.2,284.3594 Q554.6063,284.0781 553.9813,284.0781 Q552.6375,284.0781 551.95,285.1563 Q551.2625,286.2188 551.2625,288.3125 Q551.2625,290.4063 551.95,291.4844 Q552.6375,292.5469 553.9813,292.5469 Q554.6063,292.5469 555.2,292.2813 Q555.7938,292 556.4188,291.4219 L556.4188,294.1406 Z "/><text fill="#000000" font-family="sans-serif" font-size="12" lengthAdjust="spacingAndGlyphs" textLength="136" x="567.55" y="292.6543">NotificationsAttendee</text><line style="stroke: #A80036; stroke-width: 1.5;" x1="539" x2="706" y1="304.5" y2="304.5"/><text fill="#000000" font-family="sans-serif" font-size="11" lengthAdjust="spacingAndGlyphs" textLength="78" x="544" y="318.7104">actionBarText</text><text fill="#000000" font-family="sans-serif" font-size="11" lengthAdjust="spacingAndGlyphs" textLength="44" x="544" y="331.5151">adapter</text><text fill="#000000" font-family="sans-serif" font-size="11" lengthAdjust="spacingAndGlyphs" textLength="63" x="544" y="344.3198">backButton</text><text fill="#000000" font-family="sans-serif" font-size="11" lengthAdjust="spacingAndGlyphs" textLength="69" x="544" y="357.1245">notifications</text><text fill="#000000" font-family="sans-serif" font-size="11" lengthAdjust="spacingAndGlyphs" textLength="73" x="544" y="369.9292">profileButton</text><text fill="#000000" font-family="sans-serif" font-size="11" lengthAdjust="spacingAndGlyphs" textLength="71" x="544" y="382.7339">recyclerView</text><text fill="#000000" font-family="sans-serif" font-size="11" lengthAdjust="spacingAndGlyphs" textLength="25" x="544" y="395.5386">view</text><line style="stroke: #A80036; stroke-width: 1.5;" x1="539" x2="706" y1="402.1328" y2="402.1328"/><text fill="#000000" font-family="sans-serif" font-size="11" lengthAdjust="spacingAndGlyphs" textLength="157" x="544" y="416.3433">createSampleNotifications()</text><text fill="#000000" font-family="sans-serif" font-size="11" lengthAdjust="spacingAndGlyphs" textLength="86" x="544" y="429.1479">onCreateView()</text><text fill="#000000" font-family="sans-serif" font-size="11" lengthAdjust="spacingAndGlyphs" textLength="104" x="544" y="441.9526">replaceFragment()</text><text fill="#000000" font-family="sans-serif" font-size="11" lengthAdjust="spacingAndGlyphs" textLength="94" x="544" y="454.7573">setupActionBar()</text><text fill="#000000" font-family="sans-serif" font-size="11" lengthAdjust="spacingAndGlyphs" textLength="119" x="544" y="467.562">setupClickListeners()</text><text fill="#000000" font-family="sans-serif" font-size="11" lengthAdjust="spacingAndGlyphs" textLength="130" x="544" y="480.3667">setupNotificationsList()</text><!--MD5=[97f1366ad95d65454ae68cad55bc674b]
class EventDetailsAttendee--><rect fill="#FEFECE" filter="url(#f16i3gcqt3ffqq)" height="265.6797" id="EventDetailsAttendee" style="stroke: #A80036; stroke-width: 1.5;" width="168" x="741.5" y="246.5"/><ellipse cx="756.5" cy="262.5" fill="#ADD1B2" rx="11" ry="11" style="stroke: #A80036; stroke-width: 1.0;"/><path d="M759.4688,268.1406 Q758.8906,268.4375 758.25,268.5781 Q757.6094,268.7344 756.9063,268.7344 Q754.4063,268.7344 753.0781,267.0938 Q751.7656,265.4375 751.7656,262.3125 Q751.7656,259.1875 753.0781,257.5313 Q754.4063,255.875 756.9063,255.875 Q757.6094,255.875 758.25,256.0313 Q758.9063,256.1875 759.4688,256.4844 L759.4688,259.2031 Q758.8438,258.625 758.25,258.3594 Q757.6563,258.0781 757.0313,258.0781 Q755.6875,258.0781 755,259.1563 Q754.3125,260.2188 754.3125,262.3125 Q754.3125,264.4063 755,265.4844 Q755.6875,266.5469 757.0313,266.5469 Q757.6563,266.5469 758.25,266.2813 Q758.8438,266 759.4688,265.4219 L759.4688,268.1406 Z "/><text fill="#000000" font-family="sans-serif" font-size="12" lengthAdjust="spacingAndGlyphs" textLength="136" x="770.5" y="266.6543">EventDetailsAttendee</text><line style="stroke: #A80036; stroke-width: 1.5;" x1="742.5" x2="908.5" y1="278.5" y2="278.5"/><text fill="#000000" font-family="sans-serif" font-size="11" lengthAdjust="spacingAndGlyphs" textLength="26" x="747.5" y="292.7104">args</text><text fill="#000000" font-family="sans-serif" font-size="11" lengthAdjust="spacingAndGlyphs" textLength="41" x="747.5" y="305.5151">binding</text><text fill="#000000" font-family="sans-serif" font-size="11" lengthAdjust="spacingAndGlyphs" textLength="31" x="747.5" y="318.3198">event</text><text fill="#000000" font-family="sans-serif" font-size="11" lengthAdjust="spacingAndGlyphs" textLength="85" x="747.5" y="331.1245">eventDateTime</text><text fill="#000000" font-family="sans-serif" font-size="11" lengthAdjust="spacingAndGlyphs" textLength="78" x="747.5" y="343.9292">eventEndDate</text><text fill="#000000" font-family="sans-serif" font-size="11" lengthAdjust="spacingAndGlyphs" textLength="80" x="747.5" y="356.7339">eventEndTime</text><text fill="#000000" font-family="sans-serif" font-size="11" lengthAdjust="spacingAndGlyphs" textLength="85" x="747.5" y="369.5386">eventStartDate</text><text fill="#000000" font-family="sans-serif" font-size="11" lengthAdjust="spacingAndGlyphs" textLength="87" x="747.5" y="382.3433">eventStartTime</text><text fill="#000000" font-family="sans-serif" font-size="11" lengthAdjust="spacingAndGlyphs" textLength="52" x="747.5" y="395.1479">fragment</text><text fill="#000000" font-family="sans-serif" font-size="11" lengthAdjust="spacingAndGlyphs" textLength="43" x="747.5" y="407.9526">isGoing</text><line style="stroke: #A80036; stroke-width: 1.5;" x1="742.5" x2="908.5" y1="414.5469" y2="414.5469"/><text fill="#000000" font-family="sans-serif" font-size="11" lengthAdjust="spacingAndGlyphs" textLength="58" x="747.5" y="428.7573">loadData()</text><text fill="#000000" font-family="sans-serif" font-size="11" lengthAdjust="spacingAndGlyphs" textLength="79" x="747.5" y="441.562">newInstance()</text><text fill="#000000" font-family="sans-serif" font-size="11" lengthAdjust="spacingAndGlyphs" textLength="86" x="747.5" y="454.3667">onCreateView()</text><text fill="#000000" font-family="sans-serif" font-size="11" lengthAdjust="spacingAndGlyphs" textLength="92" x="747.5" y="467.1714">onDestroyView()</text><text fill="#000000" font-family="sans-serif" font-size="11" lengthAdjust="spacingAndGlyphs" textLength="104" x="747.5" y="479.9761">replaceFragment()</text><text fill="#000000" font-family="sans-serif" font-size="11" lengthAdjust="spacingAndGlyphs" textLength="105" x="747.5" y="492.7808">setClickListeners()</text><text fill="#000000" font-family="sans-serif" font-size="11" lengthAdjust="spacingAndGlyphs" textLength="147" x="747.5" y="505.5854">updateAttendanceStatus()</text><!--MD5=[c5a023b079dd7d5a740f7ebdd1bb0457]
class Attendee--><rect fill="#FEFECE" filter="url(#f16i3gcqt3ffqq)" height="598.6016" id="Attendee" style="stroke: #A80036; stroke-width: 1.5;" width="157" x="235" y="80"/><ellipse cx="280.25" cy="96" fill="#ADD1B2" rx="11" ry="11" style="stroke: #A80036; stroke-width: 1.0;"/><path d="M283.2188,101.6406 Q282.6406,101.9375 282,102.0781 Q281.3594,102.2344 280.6563,102.2344 Q278.1563,102.2344 276.8281,100.5938 Q275.5156,98.9375 275.5156,95.8125 Q275.5156,92.6875 276.8281,91.0313 Q278.1563,89.375 280.6563,89.375 Q281.3594,89.375 282,89.5313 Q282.6563,89.6875 283.2188,89.9844 L283.2188,92.7031 Q282.5938,92.125 282,91.8594 Q281.4063,91.5781 280.7813,91.5781 Q279.4375,91.5781 278.75,92.6563 Q278.0625,93.7188 278.0625,95.8125 Q278.0625,97.9063 278.75,98.9844 Q279.4375,100.0469 280.7813,100.0469 Q281.4063,100.0469 282,99.7813 Q282.5938,99.5 283.2188,98.9219 L283.2188,101.6406 Z "/><text fill="#000000" font-family="sans-serif" font-size="12" lengthAdjust="spacingAndGlyphs" textLength="58" x="300.75" y="100.1543">Attendee</text><line style="stroke: #A80036; stroke-width: 1.5;" x1="236" x2="391" y1="112" y2="112"/><text fill="#000000" font-family="sans-serif" font-size="11" lengthAdjust="spacingAndGlyphs" textLength="78" x="241" y="126.2104">actionBarText</text><text fill="#000000" font-family="sans-serif" font-size="11" lengthAdjust="spacingAndGlyphs" textLength="88" x="241" y="139.0151">allEventAdapter</text><text fill="#000000" font-family="sans-serif" font-size="11" lengthAdjust="spacingAndGlyphs" textLength="117" x="241" y="151.8198">allEventRecyclerView</text><text fill="#000000" font-family="sans-serif" font-size="11" lengthAdjust="spacingAndGlyphs" textLength="88" x="241" y="164.6245">allEventsVisible</text><text fill="#000000" font-family="sans-serif" font-size="11" lengthAdjust="spacingAndGlyphs" textLength="53" x="241" y="177.4292">androidId</text><text fill="#000000" font-family="sans-serif" font-size="11" lengthAdjust="spacingAndGlyphs" textLength="79" x="241" y="190.2339">checkInButton</text><text fill="#000000" font-family="sans-serif" font-size="11" lengthAdjust="spacingAndGlyphs" textLength="68" x="241" y="203.0386">currentUser</text><text fill="#000000" font-family="sans-serif" font-size="11" lengthAdjust="spacingAndGlyphs" textLength="14" x="241" y="215.8433">db</text><text fill="#000000" font-family="sans-serif" font-size="11" lengthAdjust="spacingAndGlyphs" textLength="20" x="241" y="228.6479">doc</text><text fill="#000000" font-family="sans-serif" font-size="11" lengthAdjust="spacingAndGlyphs" textLength="41" x="241" y="241.4526">eventId</text><text fill="#000000" font-family="sans-serif" font-size="11" lengthAdjust="spacingAndGlyphs" textLength="51" x="241" y="254.2573">eventList</text><text fill="#000000" font-family="sans-serif" font-size="11" lengthAdjust="spacingAndGlyphs" textLength="90" x="241" y="267.062">eventViewModel</text><text fill="#000000" font-family="sans-serif" font-size="11" lengthAdjust="spacingAndGlyphs" textLength="101" x="241" y="279.8667">fragmentManager</text><text fill="#000000" font-family="sans-serif" font-size="11" lengthAdjust="spacingAndGlyphs" textLength="126" x="241" y="292.6714">fusedLocationProvider</text><text fill="#000000" font-family="sans-serif" font-size="11" lengthAdjust="spacingAndGlyphs" textLength="32" x="241" y="305.4761">intent</text><text fill="#000000" font-family="sans-serif" font-size="11" lengthAdjust="spacingAndGlyphs" textLength="73" x="241" y="318.2808">profileButton</text><text fill="#000000" font-family="sans-serif" font-size="11" lengthAdjust="spacingAndGlyphs" textLength="59" x="241" y="331.0854">qrScanner</text><text fill="#000000" font-family="sans-serif" font-size="11" lengthAdjust="spacingAndGlyphs" textLength="46" x="241" y="343.8901">scanner</text><text fill="#000000" font-family="sans-serif" font-size="11" lengthAdjust="spacingAndGlyphs" textLength="145" x="241" y="356.6948">switchRecyclerviewButton</text><text fill="#000000" font-family="sans-serif" font-size="11" lengthAdjust="spacingAndGlyphs" textLength="73" x="241" y="369.4995">testEventList</text><text fill="#000000" font-family="sans-serif" font-size="11" lengthAdjust="spacingAndGlyphs" textLength="64" x="241" y="382.3042">transaction</text><text fill="#000000" font-family="sans-serif" font-size="11" lengthAdjust="spacingAndGlyphs" textLength="39" x="241" y="395.1089">update</text><text fill="#000000" font-family="sans-serif" font-size="11" lengthAdjust="spacingAndGlyphs" textLength="101" x="241" y="407.9136">userEventAdapter</text><text fill="#000000" font-family="sans-serif" font-size="11" lengthAdjust="spacingAndGlyphs" textLength="130" x="241" y="420.7183">userEventRecyclerView</text><text fill="#000000" font-family="sans-serif" font-size="11" lengthAdjust="spacingAndGlyphs" textLength="36" x="241" y="433.5229">userId</text><text fill="#000000" font-family="sans-serif" font-size="11" lengthAdjust="spacingAndGlyphs" textLength="56" x="241" y="446.3276">userMode</text><text fill="#000000" font-family="sans-serif" font-size="11" lengthAdjust="spacingAndGlyphs" textLength="85" x="241" y="459.1323">userViewModel</text><line style="stroke: #A80036; stroke-width: 1.5;" x1="236" x2="391" y1="465.7266" y2="465.7266"/><text fill="#000000" font-family="sans-serif" font-size="11" lengthAdjust="spacingAndGlyphs" textLength="52" x="241" y="479.937">CheckIn()</text><text fill="#000000" font-family="sans-serif" font-size="11" lengthAdjust="spacingAndGlyphs" textLength="129" x="241" y="492.7417">HandleScannerResult()</text><text fill="#000000" font-family="sans-serif" font-size="11" lengthAdjust="spacingAndGlyphs" textLength="105" x="241" y="505.5464">authenticateUser()</text><text fill="#000000" font-family="sans-serif" font-size="11" lengthAdjust="spacingAndGlyphs" textLength="86" x="241" y="518.3511">displayEvents()</text><text fill="#000000" font-family="sans-serif" font-size="11" lengthAdjust="spacingAndGlyphs" textLength="79" x="241" y="531.1558">getAndroidId()</text><text fill="#000000" font-family="sans-serif" font-size="11" lengthAdjust="spacingAndGlyphs" textLength="76" x="241" y="543.9604">onComplete()</text><text fill="#000000" font-family="sans-serif" font-size="11" lengthAdjust="spacingAndGlyphs" textLength="60" x="241" y="556.7651">onCreate()</text><text fill="#000000" font-family="sans-serif" font-size="11" lengthAdjust="spacingAndGlyphs" textLength="125" x="241" y="569.5698">onEventClickListener()</text><text fill="#000000" font-family="sans-serif" font-size="11" lengthAdjust="spacingAndGlyphs" textLength="68" x="241" y="582.3745">onResume()</text><text fill="#000000" font-family="sans-serif" font-size="11" lengthAdjust="spacingAndGlyphs" textLength="80" x="241" y="595.1792">registerUser()</text><text fill="#000000" font-family="sans-serif" font-size="11" lengthAdjust="spacingAndGlyphs" textLength="104" x="241" y="607.9839">replaceFragment()</text><text fill="#000000" font-family="sans-serif" font-size="11" lengthAdjust="spacingAndGlyphs" textLength="70" x="241" y="620.7886">setAdapter()</text><text fill="#000000" font-family="sans-serif" font-size="11" lengthAdjust="spacingAndGlyphs" textLength="121" x="241" y="633.5933">setOnClickListeners()</text><text fill="#000000" font-family="sans-serif" font-size="11" lengthAdjust="spacingAndGlyphs" textLength="93" x="241" y="646.3979">setupActionbar()</text><text fill="#000000" font-family="sans-serif" font-size="11" lengthAdjust="spacingAndGlyphs" textLength="117" x="241" y="659.2026">switchRecyclerView()</text><text fill="#000000" font-family="sans-serif" font-size="11" lengthAdjust="spacingAndGlyphs" textLength="58" x="241" y="672.0073">updateUI()</text><!--MD5=[499a93d1a2128e7b640a788d1f7209bf]
class Fragment--><rect fill="#FEFECE" filter="url(#f16i3gcqt3ffqq)" height="48" id="Fragment" style="stroke: #A80036; stroke-width: 1.5;" width="92" x="51.5" y="355.5"/><ellipse cx="66.5" cy="371.5" fill="#ADD1B2" rx="11" ry="11" style="stroke: #A80036; stroke-width: 1.0;"/><path d="M69.4688,377.1406 Q68.8906,377.4375 68.25,377.5781 Q67.6094,377.7344 66.9063,377.7344 Q64.4063,377.7344 63.0781,376.0938 Q61.7656,374.4375 61.7656,371.3125 Q61.7656,368.1875 63.0781,366.5313 Q64.4063,364.875 66.9063,364.875 Q67.6094,364.875 68.25,365.0313 Q68.9063,365.1875 69.4688,365.4844 L69.4688,368.2031 Q68.8438,367.625 68.25,367.3594 Q67.6563,367.0781 67.0313,367.0781 Q65.6875,367.0781 65,368.1563 Q64.3125,369.2188 64.3125,371.3125 Q64.3125,373.4063 65,374.4844 Q65.6875,375.5469 67.0313,375.5469 Q67.6563,375.5469 68.25,375.2813 Q68.8438,375 69.4688,374.4219 L69.4688,377.1406 Z "/><text fill="#000000" font-family="sans-serif" font-size="12" lengthAdjust="spacingAndGlyphs" textLength="60" x="80.5" y="375.6543">Fragment</text><line style="stroke: #A80036; stroke-width: 1.5;" x1="52.5" x2="142.5" y1="387.5" y2="387.5"/><line style="stroke: #A80036; stroke-width: 1.5;" x1="52.5" x2="142.5" y1="395.5" y2="395.5"/><!--MD5=[ab8871ed637f40707b866ba6597734bc]
class ArrayList--><rect fill="#FEFECE" filter="url(#f16i3gcqt3ffqq)" height="48" id="ArrayList" style="stroke: #A80036; stroke-width: 1.5;" width="85" x="439" y="758"/><ellipse cx="454" cy="774" fill="#ADD1B2" rx="11" ry="11" style="stroke: #A80036; stroke-width: 1.0;"/><path d="M456.9688,779.6406 Q456.3906,779.9375 455.75,780.0781 Q455.1094,780.2344 454.4063,780.2344 Q451.9063,780.2344 450.5781,778.5938 Q449.2656,776.9375 449.2656,773.8125 Q449.2656,770.6875 450.5781,769.0313 Q451.9063,767.375 454.4063,767.375 Q455.1094,767.375 455.75,767.5313 Q456.4063,767.6875 456.9688,767.9844 L456.9688,770.7031 Q456.3438,770.125 455.75,769.8594 Q455.1563,769.5781 454.5313,769.5781 Q453.1875,769.5781 452.5,770.6563 Q451.8125,771.7188 451.8125,773.8125 Q451.8125,775.9063 452.5,776.9844 Q453.1875,778.0469 454.5313,778.0469 Q455.1563,778.0469 455.75,777.7813 Q456.3438,777.5 456.9688,776.9219 L456.9688,779.6406 Z "/><text fill="#000000" font-family="sans-serif" font-size="12" lengthAdjust="spacingAndGlyphs" textLength="53" x="468" y="778.1543">ArrayList</text><line style="stroke: #A80036; stroke-width: 1.5;" x1="440" x2="523" y1="790" y2="790"/><line style="stroke: #A80036; stroke-width: 1.5;" x1="440" x2="523" y1="798" y2="798"/><!--MD5=[2fcb54dfe26e688f4bb106e450a045f2]
class NotificationAdapter--><rect fill="#FEFECE" filter="url(#f16i3gcqt3ffqq)" height="48" id="NotificationAdapter" style="stroke: #A80036; stroke-width: 1.5;" width="153" x="600" y="758"/><ellipse cx="615" cy="774" fill="#ADD1B2" rx="11" ry="11" style="stroke: #A80036; stroke-width: 1.0;"/><path d="M617.9688,779.6406 Q617.3906,779.9375 616.75,780.0781 Q616.1094,780.2344 615.4063,780.2344 Q612.9063,780.2344 611.5781,778.5938 Q610.2656,776.9375 610.2656,773.8125 Q610.2656,770.6875 611.5781,769.0313 Q612.9063,767.375 615.4063,767.375 Q616.1094,767.375 616.75,767.5313 Q617.4063,767.6875 617.9688,767.9844 L617.9688,770.7031 Q617.3438,770.125 616.75,769.8594 Q616.1563,769.5781 615.5313,769.5781 Q614.1875,769.5781 613.5,770.6563 Q612.8125,771.7188 612.8125,773.8125 Q612.8125,775.9063 613.5,776.9844 Q614.1875,778.0469 615.5313,778.0469 Q616.1563,778.0469 616.75,777.7813 Q617.3438,777.5 617.9688,776.9219 L617.9688,779.6406 Z "/><text fill="#000000" font-family="sans-serif" font-size="12" lengthAdjust="spacingAndGlyphs" textLength="121" x="629" y="778.1543">NotificationAdapter</text><line style="stroke: #A80036; stroke-width: 1.5;" x1="601" x2="752" y1="790" y2="790"/><line style="stroke: #A80036; stroke-width: 1.5;" x1="601" x2="752" y1="798" y2="798"/><!--MD5=[536e464d8b1e54faa737ee1f4ae6355d]
class Bundle--><rect fill="#FEFECE" filter="url(#f16i3gcqt3ffqq)" height="48" id="Bundle" style="stroke: #A80036; stroke-width: 1.5;" width="75" x="788" y="758"/><ellipse cx="803" cy="774" fill="#ADD1B2" rx="11" ry="11" style="stroke: #A80036; stroke-width: 1.0;"/><path d="M805.9688,779.6406 Q805.3906,779.9375 804.75,780.0781 Q804.1094,780.2344 803.4063,780.2344 Q800.9063,780.2344 799.5781,778.5938 Q798.2656,776.9375 798.2656,773.8125 Q798.2656,770.6875 799.5781,769.0313 Q800.9063,767.375 803.4063,767.375 Q804.1094,767.375 804.75,767.5313 Q805.4063,767.6875 805.9688,767.9844 L805.9688,770.7031 Q805.3438,770.125 804.75,769.8594 Q804.1563,769.5781 803.5313,769.5781 Q802.1875,769.5781 801.5,770.6563 Q800.8125,771.7188 800.8125,773.8125 Q800.8125,775.9063 801.5,776.9844 Q802.1875,778.0469 803.5313,778.0469 Q804.1563,778.0469 804.75,777.7813 Q805.3438,777.5 805.9688,776.9219 L805.9688,779.6406 Z "/><text fill="#000000" font-family="sans-serif" font-size="12" lengthAdjust="spacingAndGlyphs" textLength="43" x="817" y="778.1543">Bundle</text><line style="stroke: #A80036; stroke-width: 1.5;" x1="789" x2="862" y1="790" y2="790"/><line style="stroke: #A80036; stroke-width: 1.5;" x1="789" x2="862" y1="798" y2="798"/><!--MD5=[ac13618b1a974308c1f12eb6c57723dc]
class Event--><rect fill="#FEFECE" filter="url(#f16i3gcqt3ffqq)" height="48" id="Event" style="stroke: #A80036; stroke-width: 1.5;" width="67" x="898" y="758"/><ellipse cx="913" cy="774" fill="#ADD1B2" rx="11" ry="11" style="stroke: #A80036; stroke-width: 1.0;"/><path d="M915.9688,779.6406 Q915.3906,779.9375 914.75,780.0781 Q914.1094,780.2344 913.4063,780.2344 Q910.9063,780.2344 909.5781,778.5938 Q908.2656,776.9375 908.2656,773.8125 Q908.2656,770.6875 909.5781,769.0313 Q910.9063,767.375 913.4063,767.375 Q914.1094,767.375 914.75,767.5313 Q915.4063,767.6875 915.9688,767.9844 L915.9688,770.7031 Q915.3438,770.125 914.75,769.8594 Q914.1563,769.5781 913.5313,769.5781 Q912.1875,769.5781 911.5,770.6563 Q910.8125,771.7188 910.8125,773.8125 Q910.8125,775.9063 911.5,776.9844 Q912.1875,778.0469 913.5313,778.0469 Q914.1563,778.0469 914.75,777.7813 Q915.3438,777.5 915.9688,776.9219 L915.9688,779.6406 Z "/><text fill="#000000" font-family="sans-serif" font-size="12" lengthAdjust="spacingAndGlyphs" textLength="35" x="927" y="778.1543">Event</text><line style="stroke: #A80036; stroke-width: 1.5;" x1="899" x2="964" y1="790" y2="790"/><line style="stroke: #A80036; stroke-width: 1.5;" x1="899" x2="964" y1="798" y2="798"/><!--MD5=[5839a728ddc01d792fb5317e858e9ae0]
class AppCompatActivity--><rect fill="#FEFECE" filter="url(#f16i3gcqt3ffqq)" height="48" id="AppCompatActivity" style="stroke: #A80036; stroke-width: 1.5;" width="147" x="1034" y="355.5"/><ellipse cx="1049" cy="371.5" fill="#ADD1B2" rx="11" ry="11" style="stroke: #A80036; stroke-width: 1.0;"/><path d="M1051.9688,377.1406 Q1051.3906,377.4375 1050.75,377.5781 Q1050.1094,377.7344 1049.4063,377.7344 Q1046.9063,377.7344 1045.5781,376.0938 Q1044.2656,374.4375 1044.2656,371.3125 Q1044.2656,368.1875 1045.5781,366.5313 Q1046.9063,364.875 1049.4063,364.875 Q1050.1094,364.875 1050.75,365.0313 Q1051.4063,365.1875 1051.9688,365.4844 L1051.9688,368.2031 Q1051.3438,367.625 1050.75,367.3594 Q1050.1563,367.0781 1049.5313,367.0781 Q1048.1875,367.0781 1047.5,368.1563 Q1046.8125,369.2188 1046.8125,371.3125 Q1046.8125,373.4063 1047.5,374.4844 Q1048.1875,375.5469 1049.5313,375.5469 Q1050.1563,375.5469 1050.75,375.2813 Q1051.3438,375 1051.9688,374.4219 L1051.9688,377.1406 Z "/><text fill="#000000" font-family="sans-serif" font-size="12" lengthAdjust="spacingAndGlyphs" textLength="115" x="1063" y="375.6543">AppCompatActivity</text><line style="stroke: #A80036; stroke-width: 1.5;" x1="1035" x2="1180" y1="387.5" y2="387.5"/><line style="stroke: #A80036; stroke-width: 1.5;" x1="1035" x2="1180" y1="395.5" y2="395.5"/><!--MD5=[2292dacabacf41979c67830137e3d1b3]
class QRScanner--><rect fill="#FEFECE" filter="url(#f16i3gcqt3ffqq)" height="48" id="QRScanner" style="stroke: #A80036; stroke-width: 1.5;" width="101" x="6" y="758"/><ellipse cx="21" cy="774" fill="#ADD1B2" rx="11" ry="11" style="stroke: #A80036; stroke-width: 1.0;"/><path d="M23.9688,779.6406 Q23.3906,779.9375 22.75,780.0781 Q22.1094,780.2344 21.4063,780.2344 Q18.9063,780.2344 17.5781,778.5938 Q16.2656,776.9375 16.2656,773.8125 Q16.2656,770.6875 17.5781,769.0313 Q18.9063,767.375 21.4063,767.375 Q22.1094,767.375 22.75,767.5313 Q23.4063,767.6875 23.9688,767.9844 L23.9688,770.7031 Q23.3438,770.125 22.75,769.8594 Q22.1563,769.5781 21.5313,769.5781 Q20.1875,769.5781 19.5,770.6563 Q18.8125,771.7188 18.8125,773.8125 Q18.8125,775.9063 19.5,776.9844 Q20.1875,778.0469 21.5313,778.0469 Q22.1563,778.0469 22.75,777.7813 Q23.3438,777.5 23.9688,776.9219 L23.9688,779.6406 Z "/><text fill="#000000" font-family="sans-serif" font-size="12" lengthAdjust="spacingAndGlyphs" textLength="69" x="35" y="778.1543">QRScanner</text><line style="stroke: #A80036; stroke-width: 1.5;" x1="7" x2="106" y1="790" y2="790"/><line style="stroke: #A80036; stroke-width: 1.5;" x1="7" x2="106" y1="798" y2="798"/><!--MD5=[bb0a1f964bde8310f27a5c06a3900f87]
class Intent--><rect fill="#FEFECE" filter="url(#f16i3gcqt3ffqq)" height="48" id="Intent" style="stroke: #A80036; stroke-width: 1.5;" width="69" x="294" y="758"/><ellipse cx="309" cy="774" fill="#ADD1B2" rx="11" ry="11" style="stroke: #A80036; stroke-width: 1.0;"/><path d="M311.9688,779.6406 Q311.3906,779.9375 310.75,780.0781 Q310.1094,780.2344 309.4063,780.2344 Q306.9063,780.2344 305.5781,778.5938 Q304.2656,776.9375 304.2656,773.8125 Q304.2656,770.6875 305.5781,769.0313 Q306.9063,767.375 309.4063,767.375 Q310.1094,767.375 310.75,767.5313 Q311.4063,767.6875 311.9688,767.9844 L311.9688,770.7031 Q311.3438,770.125 310.75,769.8594 Q310.1563,769.5781 309.5313,769.5781 Q308.1875,769.5781 307.5,770.6563 Q306.8125,771.7188 306.8125,773.8125 Q306.8125,775.9063 307.5,776.9844 Q308.1875,778.0469 309.5313,778.0469 Q310.1563,778.0469 310.75,777.7813 Q311.3438,777.5 311.9688,776.9219 L311.9688,779.6406 Z "/><text fill="#000000" font-family="sans-serif" font-size="12" lengthAdjust="spacingAndGlyphs" textLength="37" x="323" y="778.1543">Intent</text><line style="stroke: #A80036; stroke-width: 1.5;" x1="295" x2="362" y1="790" y2="790"/><line style="stroke: #A80036; stroke-width: 1.5;" x1="295" x2="362" y1="798" y2="798"/><!--MD5=[702f122c79729df12a8a52022932f992]
class HashMap--><rect fill="#FEFECE" filter="url(#f16i3gcqt3ffqq)" height="48" id="HashMap" style="stroke: #A80036; stroke-width: 1.5;" width="90" x="142.5" y="758"/><ellipse cx="157.5" cy="774" fill="#ADD1B2" rx="11" ry="11" style="stroke: #A80036; stroke-width: 1.0;"/><path d="M160.4688,779.6406 Q159.8906,779.9375 159.25,780.0781 Q158.6094,780.2344 157.9063,780.2344 Q155.4063,780.2344 154.0781,778.5938 Q152.7656,776.9375 152.7656,773.8125 Q152.7656,770.6875 154.0781,769.0313 Q155.4063,767.375 157.9063,767.375 Q158.6094,767.375 159.25,767.5313 Q159.9063,767.6875 160.4688,767.9844 L160.4688,770.7031 Q159.8438,770.125 159.25,769.8594 Q158.6563,769.5781 158.0313,769.5781 Q156.6875,769.5781 156,770.6563 Q155.3125,771.7188 155.3125,773.8125 Q155.3125,775.9063 156,776.9844 Q156.6875,778.0469 158.0313,778.0469 Q158.6563,778.0469 159.25,777.7813 Q159.8438,777.5 160.4688,776.9219 L160.4688,779.6406 Z "/><text fill="#000000" font-family="sans-serif" font-size="12" lengthAdjust="spacingAndGlyphs" textLength="58" x="171.5" y="778.1543">HashMap</text><line style="stroke: #A80036; stroke-width: 1.5;" x1="143.5" x2="231.5" y1="790" y2="790"/><line style="stroke: #A80036; stroke-width: 1.5;" x1="143.5" x2="231.5" y1="798" y2="798"/><!--MD5=[820baf9566c25711a2060fca1a2ef868]
reverse link Fragment to NotificationsAttendee--><path d="M96.62,335.1 C97.74,249.68 114.67,66.88 236,22 C268.3,10.05 358.7,10.05 391,22 C497.45,61.38 559.48,182.07 592.08,272.4 " fill="none" id="Fragment&lt;-NotificationsAttendee" style="stroke: #A80036; stroke-width: 1.0;"/><polygon fill="none" points="103.62,335.27,96.63,355.28,89.62,335.28,103.62,335.27" style="stroke: #A80036; stroke-width: 1.0;"/><!--MD5=[5359dc2d3899d42b762b69d79788e141]
link NotificationsAttendee to ArrayList--><path d="M597.1568,498.411 C597.1568,498.411 553.64,655.27 518.5,728 C515.36,734.5 511.45,741.09 507.37,747.3 " fill="none" id="NotificationsAttendee-ArrayList" style="stroke: #A80036; stroke-width: 1.0;"/><polygon fill="#A80036" points="499.96,757.99,508.377,752.8759,502.8103,753.882,501.8042,748.3153,499.96,757.99" style="stroke: #A80036; stroke-width: 1.0;"/><line style="stroke: #A80036; stroke-width: 1.0;" x1="502.8103" x2="507.37" y1="753.882" y2="747.305"/><polygon fill="#A80036" points="600.03,486.76,594.7097,491.6277,597.1568,498.411,602.4771,493.5432,600.03,486.76" style="stroke: #A80036; stroke-width: 1.0;"/><text fill="#000000" font-family="sans-serif" font-size="13" lengthAdjust="spacingAndGlyphs" textLength="77" x="523.5" y="724.0669">notifications</text><!--MD5=[ee450128f59beddb99edecd1921e8a46]
link NotificationsAttendee to NotificationAdapter--><path d="M638.3855,498.4035 C638.3855,498.4035 664.2,689.81 671.61,744.7 " fill="none" id="NotificationsAttendee-NotificationAdapter" style="stroke: #A80036; stroke-width: 1.0;"/><polygon fill="#A80036" points="673.37,757.81,676.1276,748.3551,672.6998,752.8551,668.1998,749.4273,673.37,757.81" style="stroke: #A80036; stroke-width: 1.0;"/><line style="stroke: #A80036; stroke-width: 1.0;" x1="672.6998" x2="671.64" y1="752.8551" y2="744.93"/><polygon fill="#A80036" points="636.79,486.51,633.6232,492.9886,638.3855,498.4035,641.5522,491.9249,636.79,486.51" style="stroke: #A80036; stroke-width: 1.0;"/><text fill="#000000" font-family="sans-serif" font-size="13" lengthAdjust="spacingAndGlyphs" textLength="50" x="669.5" y="724.0669">adapter</text><!--MD5=[55e7f95132619b7aafe0d3ab7997e2b3]
reverse link Fragment to EventDetailsAttendee--><path d="M96.62,335.1 C97.74,249.68 114.67,66.88 236,22 C285.08,3.84 657.92,3.84 707,22 C793.16,53.87 820.44,158.44 827.52,246.31 " fill="none" id="Fragment&lt;-EventDetailsAttendee" style="stroke: #A80036; stroke-width: 1.0;"/><polygon fill="none" points="103.62,335.27,96.63,355.28,89.62,335.28,103.62,335.27" style="stroke: #A80036; stroke-width: 1.0;"/><!--MD5=[5b864f083abeecded558b996422b0582]
link EventDetailsAttendee to EventDetailsAttendee--><path d="M920.6562,321.9017 C920.6562,321.9017 944.5,350.84 944.5,379.5 C944.5,408.16 935.48,427.16 922,436.49 " fill="none" id="EventDetailsAttendee-EventDetailsAttendee" style="stroke: #A80036; stroke-width: 1.0;"/><polygon fill="#A80036" points="909.73,442.06,919.5785,441.9808,914.2826,439.9926,916.2708,434.6967,909.73,442.06" style="stroke: #A80036; stroke-width: 1.0;"/><line style="stroke: #A80036; stroke-width: 1.0;" x1="914.2826" x2="921.57" y1="439.9926" y2="436.69"/><polygon fill="#A80036" points="909.73,316.94,913.5392,323.0629,920.6562,321.9017,916.847,315.7788,909.73,316.94" style="stroke: #A80036; stroke-width: 1.0;"/><text fill="#000000" font-family="sans-serif" font-size="13" lengthAdjust="spacingAndGlyphs" textLength="59" x="950.5" y="384.0669">fragment</text><!--MD5=[ca56623506de1d759e0e162afabb2ed4]
link EventDetailsAttendee to Bundle--><path d="M825.5,524.75 C825.5,524.75 825.5,695.41 825.5,744.67 " fill="none" id="EventDetailsAttendee-Bundle" style="stroke: #A80036; stroke-width: 1.0;"/><polygon fill="#A80036" points="825.5,757.7,829.5,748.7,825.5,752.7,821.5,748.7,825.5,757.7" style="stroke: #A80036; stroke-width: 1.0;"/><line style="stroke: #A80036; stroke-width: 1.0;" x1="825.5" x2="825.5" y1="752.7" y2="744.7"/><polygon fill="#A80036" points="825.5,512.75,821.5,518.75,825.5,524.75,829.5,518.75,825.5,512.75" style="stroke: #A80036; stroke-width: 1.0;"/><text fill="#000000" font-family="sans-serif" font-size="13" lengthAdjust="spacingAndGlyphs" textLength="28" x="826.5" y="724.0669">args</text><!--MD5=[d129ae68157affad04979ee37cfad48c]
link EventDetailsAttendee to Event--><path d="M863.5714,524.3503 C863.5714,524.3503 908.91,695.65 921.96,744.96 " fill="none" id="EventDetailsAttendee-Event" style="stroke: #A80036; stroke-width: 1.0;"/><polygon fill="#A80036" points="925.33,757.7,926.8932,747.976,924.0502,752.8666,919.1597,750.0236,925.33,757.7" style="stroke: #A80036; stroke-width: 1.0;"/><line style="stroke: #A80036; stroke-width: 1.0;" x1="924.0502" x2="922.01" y1="752.8666" y2="745.135"/><polygon fill="#A80036" points="860.5,512.75,858.169,519.5739,863.5714,524.3503,865.9025,517.5263,860.5,512.75" style="stroke: #A80036; stroke-width: 1.0;"/><text fill="#000000" font-family="sans-serif" font-size="13" lengthAdjust="spacingAndGlyphs" textLength="36" x="916.5" y="724.0669">event</text><!--MD5=[c2c52e4b6f54b66cf58294fed9a47324]
reverse link AppCompatActivity to Attendee--><path d="M1111.94,335.22 C1117.73,249.59 1115.56,65.86 997,22 C949.38,4.38 587.62,4.38 540,22 C474.71,46.15 426.72,101.4 392.17,161.42 " fill="none" id="AppCompatActivity&lt;-Attendee" style="stroke: #A80036; stroke-width: 1.0;"/><polygon fill="none" points="1118.9,336.06,1110.3,355.43,1104.94,334.93,1118.9,336.06" style="stroke: #A80036; stroke-width: 1.0;"/><!--MD5=[8b818d47678f85b0746daeccd448a872]
link Attendee to QRScanner--><path d="M228.5809,624.1348 C228.5809,624.1348 187.69,681.49 161.5,703 C150.17,712.31 142.33,703.91 129.5,711 C112.48,720.4 96.52,734.78 83.89,748.05 " fill="none" id="Attendee-QRScanner" style="stroke: #A80036; stroke-width: 1.0;"/><polygon fill="#A80036" points="74.92,757.9,83.9376,753.9399,78.2869,754.2035,78.0233,748.5528,74.92,757.9" style="stroke: #A80036; stroke-width: 1.0;"/><line style="stroke: #A80036; stroke-width: 1.0;" x1="78.2869" x2="83.675" y1="754.2035" y2="748.285"/><polygon fill="#A80036" points="234.78,613.86,228.2555,616.931,228.5809,624.1348,235.1053,621.0638,234.78,613.86" style="stroke: #A80036; stroke-width: 1.0;"/><text fill="#000000" font-family="sans-serif" font-size="13" lengthAdjust="spacingAndGlyphs" textLength="66" x="130.5" y="724.0669">qrScanner</text><!--MD5=[b537018d70011e9587cce6ae462e207f]
link Attendee to ArrayList--><path d="M397.2164,676.5093 C397.2164,676.5093 415.43,712.02 425.5,728 C430.04,735.21 435.79,742.11 441.86,748.41 " fill="none" id="Attendee-ArrayList" style="stroke: #A80036; stroke-width: 1.0;"/><polygon fill="#A80036" points="451.54,757.77,447.855,748.6365,447.9473,754.2926,442.2912,754.3849,451.54,757.77" style="stroke: #A80036; stroke-width: 1.0;"/><line style="stroke: #A80036; stroke-width: 1.0;" x1="447.9473" x2="442.195" y1="754.2926" y2="748.73"/><polygon fill="#A80036" points="392.11,665.65,391.0434,672.7818,397.2164,676.5093,398.283,669.3775,392.11,665.65" style="stroke: #A80036; stroke-width: 1.0;"/><text fill="#000000" font-family="sans-serif" font-size="13" lengthAdjust="spacingAndGlyphs" textLength="83" x="426.5" y="724.0669">testEventList</text><!--MD5=[71e9d7e9823aa6d1f5fd88b2f2ce2a41]
link Attendee to Intent--><path d="M325.1385,691.1516 C325.1385,691.1516 326.59,730.14 327.13,744.5 " fill="none" id="Attendee-Intent" style="stroke: #A80036; stroke-width: 1.0;"/><polygon fill="#A80036" points="327.63,757.65,331.2912,748.5069,327.4433,752.6535,323.2968,748.8056,327.63,757.65" style="stroke: #A80036; stroke-width: 1.0;"/><line style="stroke: #A80036; stroke-width: 1.0;" x1="327.4433" x2="327.14" y1="752.6535" y2="744.66"/><polygon fill="#A80036" points="324.69,679.16,320.9171,685.3053,325.1385,691.1516,328.9115,685.0063,324.69,679.16" style="stroke: #A80036; stroke-width: 1.0;"/><text fill="#000000" font-family="sans-serif" font-size="13" lengthAdjust="spacingAndGlyphs" textLength="37" x="326.5" y="724.0669">intent</text><!--MD5=[71e9d7e9823aa6d1f5fd88b2f2ce2a41]
link Attendee to Intent--><path d="M279.6319,691.4147 C279.6319,691.4147 278.82,705 278.5,711 C278.1,718.55 275.71,720.98 278.5,728 C281.37,735.23 285.75,742.05 290.74,748.23 " fill="none" id="Attendee-Intent-1" style="stroke: #A80036; stroke-width: 1.0;"/><polygon fill="#A80036" points="299.57,758,296.5034,748.6407,296.2176,754.2904,290.568,754.0046,299.57,758" style="stroke: #A80036; stroke-width: 1.0;"/><line style="stroke: #A80036; stroke-width: 1.0;" x1="296.2176" x2="290.855" y1="754.2904" y2="748.35"/><polygon fill="#A80036" points="280.41,679.44,276.0294,685.168,279.6319,691.4147,284.0125,685.6867,280.41,679.44" style="stroke: #A80036; stroke-width: 1.0;"/><text fill="#000000" font-family="sans-serif" font-size="13" lengthAdjust="spacingAndGlyphs" textLength="37" x="279.5" y="724.0669">intent</text><!--MD5=[4b782d1e9c78126bf180945156ce5ed6]
link Attendee to HashMap--><path d="M231.3477,641.6034 C231.3477,641.6034 206.78,719.72 198.78,745.13 " fill="none" id="Attendee-HashMap" style="stroke: #A80036; stroke-width: 1.0;"/><polygon fill="#A80036" points="194.83,757.7,201.346,750.3147,196.3301,752.9303,193.7145,747.9145,194.83,757.7" style="stroke: #A80036; stroke-width: 1.0;"/><line style="stroke: #A80036; stroke-width: 1.0;" x1="196.3301" x2="198.73" y1="752.9303" y2="745.305"/><polygon fill="#A80036" points="234.96,630.16,229.3394,634.6776,231.3477,641.6034,236.9683,637.0858,234.96,630.16" style="stroke: #A80036; stroke-width: 1.0;"/><text fill="#000000" font-family="sans-serif" font-size="13" lengthAdjust="spacingAndGlyphs" textLength="45" x="209.5" y="724.0669">update</text><!--MD5=[591f0d1167ee375d3e2745e18d2d6d33]
@startuml
package com.example.cmput301w24t33.attendeeFragments {
    class NotificationsAttendee {
        actionBarText
        adapter
        backButton
        notifications
        profileButton
        recyclerView
        view
        createSampleNotifications()
        onCreateView()
        replaceFragment()
        setupActionBar()
        setupClickListeners()
        setupNotificationsList()
    }
    class EventDetailsAttendee {
        args
        binding
        event
        eventDateTime
        eventEndDate
        eventEndTime
        eventStartDate
        eventStartTime
        fragment
        isGoing
        loadData()
        newInstance()
        onCreateView()
        onDestroyView()
        replaceFragment()
        setClickListeners()
        updateAttendanceStatus()
    }
}

package com.example.cmput301w24t33.activities {
    class Attendee {
        actionBarText
        allEventAdapter
        allEventRecyclerView
        allEventsVisible
        androidId
        checkInButton
        currentUser
        db
        doc
        eventId
        eventList
        eventViewModel
        fragmentManager
        fusedLocationProvider
        intent
        profileButton
        qrScanner
        scanner
        switchRecyclerviewButton
        testEventList
        transaction
        update
        userEventAdapter
        userEventRecyclerView
        userId
        userMode
        userViewModel
        CheckIn()
        HandleScannerResult()
        authenticateUser()
        displayEvents()
        getAndroidId()
        onComplete()
        onCreate()
        onEventClickListener()
        onResume()
        registerUser()
        replaceFragment()
        setAdapter()
        setOnClickListeners()
        setupActionbar()
        switchRecyclerView()
        updateUI()
    }
}

Fragment <|- NotificationsAttendee
NotificationsAttendee *- -> ArrayList : notifications
NotificationsAttendee *- -> NotificationAdapter : adapter
Fragment <|- EventDetailsAttendee
EventDetailsAttendee *- -> EventDetailsAttendee : fragment
EventDetailsAttendee *- -> Bundle : args
EventDetailsAttendee *- -> Event : event
AppCompatActivity <|- Attendee
Attendee *- -> QRScanner : qrScanner
Attendee *- -> ArrayList : testEventList
Attendee *- -> Intent : intent
Attendee *- -> Intent : intent
Attendee *- -> HashMap : update
@enduml

PlantUML version 1.2020.08(Sun Apr 26 14:08:22 UTC 2020)
(GPL source distribution)
Java Runtime: OpenJDK Runtime Environment
JVM: OpenJDK 64-Bit Server VM
Java Version: 1.8.0_402-heroku-b06
Operating System: Linux
Default Encoding: UTF-8
Language: en
Country: US
--></g></svg>