<?xml version="1.0" encoding="UTF-8" standalone="no"?><svg xmlns="http://www.w3.org/2000/svg" xmlns:xlink="http://www.w3.org/1999/xlink" contentScriptType="application/ecmascript" contentStyleType="text/css" height="1298px" preserveAspectRatio="none" style="width:1064px;height:1298px;" version="1.1" viewBox="0 0 1064 1298" width="1064px" zoomAndPan="magnify"><defs><filter height="300%" id="f1gducc5lf9tqo" width="300%" x="-1" y="-1"><feGaussianBlur result="blurOut" stdDeviation="2.0"/><feColorMatrix in="blurOut" result="blurOut2" type="matrix" values="0 0 0 0 0 0 0 0 0 0 0 0 0 0 0 0 0 0 .4 0"/><feOffset dx="4.0" dy="4.0" in="blurOut2" result="blurOut3"/><feBlend in="SourceGraphic" in2="blurOut3" mode="normal"/></filter></defs><g><!--MD5=[434e07cae986998bb27d98ce0423068c]
cluster com.example.cmput301w24t33.events--><polygon fill="#FFFFFF" filter="url(#f1gducc5lf9tqo)" points="168.5,43,481.5,43,488.5,65.2969,935.5,65.2969,935.5,1176,168.5,1176,168.5,43" style="stroke: #000000; stroke-width: 1.5;"/><line style="stroke: #000000; stroke-width: 1.5;" x1="168.5" x2="488.5" y1="65.2969" y2="65.2969"/><text fill="#000000" font-family="sans-serif" font-size="14" font-weight="bold" lengthAdjust="spacingAndGlyphs" textLength="307" x="172.5" y="57.9951">com.example.cmput301w24t33.events</text><!--MD5=[298967953f5104e97cafb3b564143ee0]
class EventAdapter--><rect fill="#FEFECE" filter="url(#f1gducc5lf9tqo)" height="201.6563" id="EventAdapter" style="stroke: #A80036; stroke-width: 1.5;" width="137" x="782" y="103.5"/><ellipse cx="806" cy="119.5" fill="#ADD1B2" rx="11" ry="11" style="stroke: #A80036; stroke-width: 1.0;"/><path d="M808.9688,125.1406 Q808.3906,125.4375 807.75,125.5781 Q807.1094,125.7344 806.4063,125.7344 Q803.9063,125.7344 802.5781,124.0938 Q801.2656,122.4375 801.2656,119.3125 Q801.2656,116.1875 802.5781,114.5313 Q803.9063,112.875 806.4063,112.875 Q807.1094,112.875 807.75,113.0313 Q808.4063,113.1875 808.9688,113.4844 L808.9688,116.2031 Q808.3438,115.625 807.75,115.3594 Q807.1563,115.0781 806.5313,115.0781 Q805.1875,115.0781 804.5,116.1563 Q803.8125,117.2188 803.8125,119.3125 Q803.8125,121.4063 804.5,122.4844 Q805.1875,123.5469 806.5313,123.5469 Q807.1563,123.5469 807.75,123.2813 Q808.3438,123 808.9688,122.4219 L808.9688,125.1406 Z "/><text fill="#000000" font-family="sans-serif" font-size="12" lengthAdjust="spacingAndGlyphs" textLength="85" x="822" y="123.6543">EventAdapter</text><line style="stroke: #A80036; stroke-width: 1.5;" x1="783" x2="918" y1="135.5" y2="135.5"/><text fill="#000000" font-family="sans-serif" font-size="11" lengthAdjust="spacingAndGlyphs" textLength="31" x="788" y="149.7104">event</text><text fill="#000000" font-family="sans-serif" font-size="11" lengthAdjust="spacingAndGlyphs" textLength="103" x="788" y="162.5151">eventClickListener</text><text fill="#000000" font-family="sans-serif" font-size="11" lengthAdjust="spacingAndGlyphs" textLength="55" x="788" y="175.3198">eventText</text><text fill="#000000" font-family="sans-serif" font-size="11" lengthAdjust="spacingAndGlyphs" textLength="88" x="788" y="188.1245">eventsArrayList</text><text fill="#000000" font-family="sans-serif" font-size="11" lengthAdjust="spacingAndGlyphs" textLength="45" x="788" y="200.9292">position</text><text fill="#000000" font-family="sans-serif" font-size="11" lengthAdjust="spacingAndGlyphs" textLength="25" x="788" y="213.7339">view</text><line style="stroke: #A80036; stroke-width: 1.5;" x1="783" x2="918" y1="220.3281" y2="220.3281"/><text fill="#000000" font-family="sans-serif" font-size="11" lengthAdjust="spacingAndGlyphs" textLength="32" x="788" y="234.5386">bind()</text><text fill="#000000" font-family="sans-serif" font-size="11" lengthAdjust="spacingAndGlyphs" textLength="84" x="788" y="247.3433">getItemCount()</text><text fill="#000000" font-family="sans-serif" font-size="11" lengthAdjust="spacingAndGlyphs" textLength="110" x="788" y="260.1479">onBindViewHolder()</text><text fill="#000000" font-family="sans-serif" font-size="11" lengthAdjust="spacingAndGlyphs" textLength="123" x="788" y="272.9526">onCreateViewHolder()</text><text fill="#000000" font-family="sans-serif" font-size="11" lengthAdjust="spacingAndGlyphs" textLength="125" x="788" y="285.7573">onEventClickListener()</text><text fill="#000000" font-family="sans-serif" font-size="11" lengthAdjust="spacingAndGlyphs" textLength="64" x="788" y="298.562">setEvents()</text><!--MD5=[a238fab725ebdc0599e31ebda98f0b07]
class MyViewHolder--><rect fill="#FEFECE" filter="url(#f1gducc5lf9tqo)" height="86.4141" id="MyViewHolder" style="stroke: #A80036; stroke-width: 1.5;" width="117" x="630" y="161.5"/><ellipse cx="645" cy="177.5" fill="#ADD1B2" rx="11" ry="11" style="stroke: #A80036; stroke-width: 1.0;"/><path d="M647.9688,183.1406 Q647.3906,183.4375 646.75,183.5781 Q646.1094,183.7344 645.4063,183.7344 Q642.9063,183.7344 641.5781,182.0938 Q640.2656,180.4375 640.2656,177.3125 Q640.2656,174.1875 641.5781,172.5313 Q642.9063,170.875 645.4063,170.875 Q646.1094,170.875 646.75,171.0313 Q647.4063,171.1875 647.9688,171.4844 L647.9688,174.2031 Q647.3438,173.625 646.75,173.3594 Q646.1563,173.0781 645.5313,173.0781 Q644.1875,173.0781 643.5,174.1563 Q642.8125,175.2188 642.8125,177.3125 Q642.8125,179.4063 643.5,180.4844 Q644.1875,181.5469 645.5313,181.5469 Q646.1563,181.5469 646.75,181.2813 Q647.3438,181 647.9688,180.4219 L647.9688,183.1406 Z "/><text fill="#000000" font-family="sans-serif" font-size="12" lengthAdjust="spacingAndGlyphs" textLength="85" x="659" y="181.6543">MyViewHolder</text><line style="stroke: #A80036; stroke-width: 1.5;" x1="631" x2="746" y1="193.5" y2="193.5"/><text fill="#000000" font-family="sans-serif" font-size="11" lengthAdjust="spacingAndGlyphs" textLength="55" x="636" y="207.7104">eventText</text><text fill="#000000" font-family="sans-serif" font-size="11" lengthAdjust="spacingAndGlyphs" textLength="45" x="636" y="220.5151">position</text><line style="stroke: #A80036; stroke-width: 1.5;" x1="631" x2="746" y1="227.1094" y2="227.1094"/><text fill="#000000" font-family="sans-serif" font-size="11" lengthAdjust="spacingAndGlyphs" textLength="32" x="636" y="241.3198">bind()</text><!--MD5=[2f83559f2d336a6176adedf007924bac]
class EventViewModel--><rect fill="#FEFECE" filter="url(#f1gducc5lf9tqo)" height="150.4375" id="EventViewModel" style="stroke: #A80036; stroke-width: 1.5;" width="137" x="458" y="129.5"/><ellipse cx="475.25" cy="145.5" fill="#ADD1B2" rx="11" ry="11" style="stroke: #A80036; stroke-width: 1.0;"/><path d="M478.2188,151.1406 Q477.6406,151.4375 477,151.5781 Q476.3594,151.7344 475.6563,151.7344 Q473.1563,151.7344 471.8281,150.0938 Q470.5156,148.4375 470.5156,145.3125 Q470.5156,142.1875 471.8281,140.5313 Q473.1563,138.875 475.6563,138.875 Q476.3594,138.875 477,139.0313 Q477.6563,139.1875 478.2188,139.4844 L478.2188,142.2031 Q477.5938,141.625 477,141.3594 Q476.4063,141.0781 475.7813,141.0781 Q474.4375,141.0781 473.75,142.1563 Q473.0625,143.2188 473.0625,145.3125 Q473.0625,147.4063 473.75,148.4844 Q474.4375,149.5469 475.7813,149.5469 Q476.4063,149.5469 477,149.2813 Q477.5938,149 478.2188,148.4219 L478.2188,151.1406 Z "/><text fill="#000000" font-family="sans-serif" font-size="12" lengthAdjust="spacingAndGlyphs" textLength="100" x="489.75" y="149.6543">EventViewModel</text><line style="stroke: #A80036; stroke-width: 1.5;" x1="459" x2="594" y1="161.5" y2="161.5"/><text fill="#000000" font-family="sans-serif" font-size="11" lengthAdjust="spacingAndGlyphs" textLength="59" x="464" y="175.7104">eventRepo</text><text fill="#000000" font-family="sans-serif" font-size="11" lengthAdjust="spacingAndGlyphs" textLength="86" x="464" y="188.5151">eventsLiveData</text><line style="stroke: #A80036; stroke-width: 1.5;" x1="459" x2="594" y1="195.1094" y2="195.1094"/><text fill="#000000" font-family="sans-serif" font-size="11" lengthAdjust="spacingAndGlyphs" textLength="112" x="464" y="209.3198">getEventsLiveData()</text><text fill="#000000" font-family="sans-serif" font-size="11" lengthAdjust="spacingAndGlyphs" textLength="70" x="464" y="222.1245">loadEvents()</text><text fill="#000000" font-family="sans-serif" font-size="11" lengthAdjust="spacingAndGlyphs" textLength="125" x="464" y="234.9292">loadOrganizerEvents()</text><text fill="#000000" font-family="sans-serif" font-size="11" lengthAdjust="spacingAndGlyphs" textLength="101" x="464" y="247.7339">onEventsLoaded()</text><text fill="#000000" font-family="sans-serif" font-size="11" lengthAdjust="spacingAndGlyphs" textLength="60" x="464" y="260.5386">onFailure()</text><text fill="#000000" font-family="sans-serif" font-size="11" lengthAdjust="spacingAndGlyphs" textLength="104" x="464" y="273.3433">setEventCallback()</text><!--MD5=[504c34850afcae0fdc07025a86be15a9]
class EventRepository--><rect fill="#FEFECE" filter="url(#f1gducc5lf9tqo)" height="252.875" id="EventRepository" style="stroke: #A80036; stroke-width: 1.5;" width="238" x="184.5" y="78"/><ellipse cx="248.75" cy="94" fill="#ADD1B2" rx="11" ry="11" style="stroke: #A80036; stroke-width: 1.0;"/><path d="M251.7188,99.6406 Q251.1406,99.9375 250.5,100.0781 Q249.8594,100.2344 249.1563,100.2344 Q246.6563,100.2344 245.3281,98.5938 Q244.0156,96.9375 244.0156,93.8125 Q244.0156,90.6875 245.3281,89.0313 Q246.6563,87.375 249.1563,87.375 Q249.8594,87.375 250.5,87.5313 Q251.1563,87.6875 251.7188,87.9844 L251.7188,90.7031 Q251.0938,90.125 250.5,89.8594 Q249.9063,89.5781 249.2813,89.5781 Q247.9375,89.5781 247.25,90.6563 Q246.5625,91.7188 246.5625,93.8125 Q246.5625,95.9063 247.25,96.9844 Q247.9375,98.0469 249.2813,98.0469 Q249.9063,98.0469 250.5,97.7813 Q251.0938,97.5 251.7188,96.9219 L251.7188,99.6406 Z "/><text fill="#000000" font-family="sans-serif" font-size="12" lengthAdjust="spacingAndGlyphs" textLength="101" x="269.25" y="98.1543">EventRepository</text><line style="stroke: #A80036; stroke-width: 1.5;" x1="185.5" x2="421.5" y1="110" y2="110"/><text fill="#000000" font-family="sans-serif" font-size="11" lengthAdjust="spacingAndGlyphs" textLength="14" x="190.5" y="124.2104">db</text><text fill="#000000" font-family="sans-serif" font-size="11" lengthAdjust="spacingAndGlyphs" textLength="20" x="190.5" y="137.0151">doc</text><text fill="#000000" font-family="sans-serif" font-size="11" lengthAdjust="spacingAndGlyphs" textLength="38" x="190.5" y="149.8198">docRef</text><text fill="#000000" font-family="sans-serif" font-size="11" lengthAdjust="spacingAndGlyphs" textLength="66" x="190.5" y="162.6245">documentId</text><text fill="#000000" font-family="sans-serif" font-size="11" lengthAdjust="spacingAndGlyphs" textLength="31" x="190.5" y="175.4292">event</text><text fill="#000000" font-family="sans-serif" font-size="11" lengthAdjust="spacingAndGlyphs" textLength="78" x="190.5" y="188.2339">eventCallback</text><text fill="#000000" font-family="sans-serif" font-size="11" lengthAdjust="spacingAndGlyphs" textLength="41" x="190.5" y="201.0386">eventId</text><text fill="#000000" font-family="sans-serif" font-size="11" lengthAdjust="spacingAndGlyphs" textLength="38" x="190.5" y="213.8433">events</text><text fill="#000000" font-family="sans-serif" font-size="11" lengthAdjust="spacingAndGlyphs" textLength="93" x="190.5" y="226.6479">eventsCollection</text><line style="stroke: #A80036; stroke-width: 1.5;" x1="185.5" x2="421.5" y1="233.2422" y2="233.2422"/><text fill="#000000" font-family="sans-serif" font-size="11" lengthAdjust="spacingAndGlyphs" textLength="75" x="190.5" y="247.4526">createEvent()</text><text fill="#000000" font-family="sans-serif" font-size="11" lengthAdjust="spacingAndGlyphs" textLength="101" x="190.5" y="260.2573">onEventsLoaded()</text><text fill="#000000" font-family="sans-serif" font-size="11" lengthAdjust="spacingAndGlyphs" textLength="60" x="190.5" y="273.062">onFailure()</text><text fill="#000000" font-family="sans-serif" font-size="11" lengthAdjust="spacingAndGlyphs" textLength="226" x="190.5" y="285.8667">setEventByOrganizerSnapshotListener()</text><text fill="#000000" font-family="sans-serif" font-size="11" lengthAdjust="spacingAndGlyphs" textLength="104" x="190.5" y="298.6714">setEventCallback()</text><text fill="#000000" font-family="sans-serif" font-size="11" lengthAdjust="spacingAndGlyphs" textLength="164" x="190.5" y="311.4761">setEventsSnapshotListener()</text><text fill="#000000" font-family="sans-serif" font-size="11" lengthAdjust="spacingAndGlyphs" textLength="78" x="190.5" y="324.2808">updateEvent()</text><!--MD5=[ac13618b1a974308c1f12eb6c57723dc]
class Event--><rect fill="#FEFECE" filter="url(#f1gducc5lf9tqo)" height="752.2578" id="Event" style="stroke: #A80036; stroke-width: 1.5;" width="133" x="185" y="408"/><ellipse cx="229.75" cy="424" fill="#ADD1B2" rx="11" ry="11" style="stroke: #A80036; stroke-width: 1.0;"/><path d="M232.7188,429.6406 Q232.1406,429.9375 231.5,430.0781 Q230.8594,430.2344 230.1563,430.2344 Q227.6563,430.2344 226.3281,428.5938 Q225.0156,426.9375 225.0156,423.8125 Q225.0156,420.6875 226.3281,419.0313 Q227.6563,417.375 230.1563,417.375 Q230.8594,417.375 231.5,417.5313 Q232.1563,417.6875 232.7188,417.9844 L232.7188,420.7031 Q232.0938,420.125 231.5,419.8594 Q230.9063,419.5781 230.2813,419.5781 Q228.9375,419.5781 228.25,420.6563 Q227.5625,421.7188 227.5625,423.8125 Q227.5625,425.9063 228.25,426.9844 Q228.9375,428.0469 230.2813,428.0469 Q230.9063,428.0469 231.5,427.7813 Q232.0938,427.5 232.7188,426.9219 L232.7188,429.6406 Z "/><text fill="#000000" font-family="sans-serif" font-size="12" lengthAdjust="spacingAndGlyphs" textLength="35" x="250.25" y="428.1543">Event</text><line style="stroke: #A80036; stroke-width: 1.5;" x1="186" x2="317" y1="440" y2="440"/><text fill="#000000" font-family="sans-serif" font-size="11" lengthAdjust="spacingAndGlyphs" textLength="33" x="191" y="454.2104">active</text><text fill="#000000" font-family="sans-serif" font-size="11" lengthAdjust="spacingAndGlyphs" textLength="47" x="191" y="467.0151">address</text><text fill="#000000" font-family="sans-serif" font-size="11" lengthAdjust="spacingAndGlyphs" textLength="57" x="191" y="479.8198">attendees</text><text fill="#000000" font-family="sans-serif" font-size="11" lengthAdjust="spacingAndGlyphs" textLength="58" x="191" y="492.6245">checkInQR</text><text fill="#000000" font-family="sans-serif" font-size="11" lengthAdjust="spacingAndGlyphs" textLength="65" x="191" y="505.4292">dateFormat</text><text fill="#000000" font-family="sans-serif" font-size="11" lengthAdjust="spacingAndGlyphs" textLength="47" x="191" y="518.2339">endDate</text><text fill="#000000" font-family="sans-serif" font-size="11" lengthAdjust="spacingAndGlyphs" textLength="49" x="191" y="531.0386">endTime</text><text fill="#000000" font-family="sans-serif" font-size="11" lengthAdjust="spacingAndGlyphs" textLength="95" x="191" y="543.8433">eventDescription</text><text fill="#000000" font-family="sans-serif" font-size="11" lengthAdjust="spacingAndGlyphs" textLength="41" x="191" y="556.6479">eventId</text><text fill="#000000" font-family="sans-serif" font-size="11" lengthAdjust="spacingAndGlyphs" textLength="69" x="191" y="569.4526">geoTracking</text><text fill="#000000" font-family="sans-serif" font-size="11" lengthAdjust="spacingAndGlyphs" textLength="70" x="191" y="582.2573">locationData</text><text fill="#000000" font-family="sans-serif" font-size="11" lengthAdjust="spacingAndGlyphs" textLength="85" x="191" y="595.062">maxOccupancy</text><text fill="#000000" font-family="sans-serif" font-size="11" lengthAdjust="spacingAndGlyphs" textLength="63" x="191" y="607.8667">maxSignup</text><text fill="#000000" font-family="sans-serif" font-size="11" lengthAdjust="spacingAndGlyphs" textLength="32" x="191" y="620.6714">name</text><text fill="#000000" font-family="sans-serif" font-size="11" lengthAdjust="spacingAndGlyphs" textLength="63" x="191" y="633.4761">organizerId</text><text fill="#000000" font-family="sans-serif" font-size="11" lengthAdjust="spacingAndGlyphs" textLength="53" x="191" y="646.2808">posterQR</text><text fill="#000000" font-family="sans-serif" font-size="11" lengthAdjust="spacingAndGlyphs" textLength="53" x="191" y="659.0854">signedUp</text><text fill="#000000" font-family="sans-serif" font-size="11" lengthAdjust="spacingAndGlyphs" textLength="53" x="191" y="671.8901">startDate</text><text fill="#000000" font-family="sans-serif" font-size="11" lengthAdjust="spacingAndGlyphs" textLength="55" x="191" y="684.6948">startTime</text><line style="stroke: #A80036; stroke-width: 1.5;" x1="186" x2="317" y1="691.2891" y2="691.2891"/><text fill="#000000" font-family="sans-serif" font-size="11" lengthAdjust="spacingAndGlyphs" textLength="73" x="191" y="705.4995">getAddress()</text><text fill="#000000" font-family="sans-serif" font-size="11" lengthAdjust="spacingAndGlyphs" textLength="83" x="191" y="718.3042">getAttendees()</text><text fill="#000000" font-family="sans-serif" font-size="11" lengthAdjust="spacingAndGlyphs" textLength="86" x="191" y="731.1089">getCheckInQR()</text><text fill="#000000" font-family="sans-serif" font-size="11" lengthAdjust="spacingAndGlyphs" textLength="73" x="191" y="743.9136">getEndDate()</text><text fill="#000000" font-family="sans-serif" font-size="11" lengthAdjust="spacingAndGlyphs" textLength="75" x="191" y="756.7183">getEndTime()</text><text fill="#000000" font-family="sans-serif" font-size="11" lengthAdjust="spacingAndGlyphs" textLength="121" x="191" y="769.5229">getEventDescription()</text><text fill="#000000" font-family="sans-serif" font-size="11" lengthAdjust="spacingAndGlyphs" textLength="67" x="191" y="782.3276">getEventId()</text><text fill="#000000" font-family="sans-serif" font-size="11" lengthAdjust="spacingAndGlyphs" textLength="97" x="191" y="795.1323">getGeoTracking()</text><text fill="#000000" font-family="sans-serif" font-size="11" lengthAdjust="spacingAndGlyphs" textLength="99" x="191" y="807.937">getLocationData()</text><text fill="#000000" font-family="sans-serif" font-size="11" lengthAdjust="spacingAndGlyphs" textLength="109" x="191" y="820.7417">getMaxOccupancy()</text><text fill="#000000" font-family="sans-serif" font-size="11" lengthAdjust="spacingAndGlyphs" textLength="87" x="191" y="833.5464">getMaxSignup()</text><text fill="#000000" font-family="sans-serif" font-size="11" lengthAdjust="spacingAndGlyphs" textLength="59" x="191" y="846.3511">getName()</text><text fill="#000000" font-family="sans-serif" font-size="11" lengthAdjust="spacingAndGlyphs" textLength="91" x="191" y="859.1558">getOrganizerId()</text><text fill="#000000" font-family="sans-serif" font-size="11" lengthAdjust="spacingAndGlyphs" textLength="79" x="191" y="871.9604">getPosterQR()</text><text fill="#000000" font-family="sans-serif" font-size="11" lengthAdjust="spacingAndGlyphs" textLength="80" x="191" y="884.7651">getSignedUp()</text><text fill="#000000" font-family="sans-serif" font-size="11" lengthAdjust="spacingAndGlyphs" textLength="80" x="191" y="897.5698">getStartDate()</text><text fill="#000000" font-family="sans-serif" font-size="11" lengthAdjust="spacingAndGlyphs" textLength="82" x="191" y="910.3745">getStartTime()</text><text fill="#000000" font-family="sans-serif" font-size="11" lengthAdjust="spacingAndGlyphs" textLength="51" x="191" y="923.1792">isActive()</text><text fill="#000000" font-family="sans-serif" font-size="11" lengthAdjust="spacingAndGlyphs" textLength="59" x="191" y="935.9839">setActive()</text><text fill="#000000" font-family="sans-serif" font-size="11" lengthAdjust="spacingAndGlyphs" textLength="73" x="191" y="948.7886">setAddress()</text><text fill="#000000" font-family="sans-serif" font-size="11" lengthAdjust="spacingAndGlyphs" textLength="83" x="191" y="961.5933">setAttendees()</text><text fill="#000000" font-family="sans-serif" font-size="11" lengthAdjust="spacingAndGlyphs" textLength="86" x="191" y="974.3979">setCheckInQR()</text><text fill="#000000" font-family="sans-serif" font-size="11" lengthAdjust="spacingAndGlyphs" textLength="73" x="191" y="987.2026">setEndDate()</text><text fill="#000000" font-family="sans-serif" font-size="11" lengthAdjust="spacingAndGlyphs" textLength="75" x="191" y="1000.0073">setEndTime()</text><text fill="#000000" font-family="sans-serif" font-size="11" lengthAdjust="spacingAndGlyphs" textLength="121" x="191" y="1012.812">setEventDescription()</text><text fill="#000000" font-family="sans-serif" font-size="11" lengthAdjust="spacingAndGlyphs" textLength="67" x="191" y="1025.6167">setEventId()</text><text fill="#000000" font-family="sans-serif" font-size="11" lengthAdjust="spacingAndGlyphs" textLength="97" x="191" y="1038.4214">setGeoTracking()</text><text fill="#000000" font-family="sans-serif" font-size="11" lengthAdjust="spacingAndGlyphs" textLength="99" x="191" y="1051.2261">setLocationData()</text><text fill="#000000" font-family="sans-serif" font-size="11" lengthAdjust="spacingAndGlyphs" textLength="109" x="191" y="1064.0308">setMaxOccupancy()</text><text fill="#000000" font-family="sans-serif" font-size="11" lengthAdjust="spacingAndGlyphs" textLength="87" x="191" y="1076.8354">setMaxSignup()</text><text fill="#000000" font-family="sans-serif" font-size="11" lengthAdjust="spacingAndGlyphs" textLength="59" x="191" y="1089.6401">setName()</text><text fill="#000000" font-family="sans-serif" font-size="11" lengthAdjust="spacingAndGlyphs" textLength="91" x="191" y="1102.4448">setOrganizerId()</text><text fill="#000000" font-family="sans-serif" font-size="11" lengthAdjust="spacingAndGlyphs" textLength="79" x="191" y="1115.2495">setPosterQR()</text><text fill="#000000" font-family="sans-serif" font-size="11" lengthAdjust="spacingAndGlyphs" textLength="80" x="191" y="1128.0542">setSignedUp()</text><text fill="#000000" font-family="sans-serif" font-size="11" lengthAdjust="spacingAndGlyphs" textLength="80" x="191" y="1140.8589">setStartDate()</text><text fill="#000000" font-family="sans-serif" font-size="11" lengthAdjust="spacingAndGlyphs" textLength="82" x="191" y="1153.6636">setStartTime()</text><!--MD5=[16bba8ee227509f6403f595c0b289baf]
class RecyclerView--><rect fill="#FEFECE" filter="url(#f1gducc5lf9tqo)" height="48" id="RecyclerView" style="stroke: #A80036; stroke-width: 1.5;" width="112" x="37.5" y="180.5"/><ellipse cx="52.5" cy="196.5" fill="#ADD1B2" rx="11" ry="11" style="stroke: #A80036; stroke-width: 1.0;"/><path d="M55.4688,202.1406 Q54.8906,202.4375 54.25,202.5781 Q53.6094,202.7344 52.9063,202.7344 Q50.4063,202.7344 49.0781,201.0938 Q47.7656,199.4375 47.7656,196.3125 Q47.7656,193.1875 49.0781,191.5313 Q50.4063,189.875 52.9063,189.875 Q53.6094,189.875 54.25,190.0313 Q54.9063,190.1875 55.4688,190.4844 L55.4688,193.2031 Q54.8438,192.625 54.25,192.3594 Q53.6563,192.0781 53.0313,192.0781 Q51.6875,192.0781 51,193.1563 Q50.3125,194.2188 50.3125,196.3125 Q50.3125,198.4063 51,199.4844 Q51.6875,200.5469 53.0313,200.5469 Q53.6563,200.5469 54.25,200.2813 Q54.8438,200 55.4688,199.4219 L55.4688,202.1406 Z "/><text fill="#000000" font-family="sans-serif" font-size="12" lengthAdjust="spacingAndGlyphs" textLength="80" x="66.5" y="200.6543">RecyclerView</text><line style="stroke: #A80036; stroke-width: 1.5;" x1="38.5" x2="148.5" y1="212.5" y2="212.5"/><line style="stroke: #A80036; stroke-width: 1.5;" x1="38.5" x2="148.5" y1="220.5" y2="220.5"/><!--MD5=[b1d46488418bc0cd55cf54b5fc017696]
class ViewModel--><rect fill="#FEFECE" filter="url(#f1gducc5lf9tqo)" height="48" id="ViewModel" style="stroke: #A80036; stroke-width: 1.5;" width="97" x="954" y="180.5"/><ellipse cx="969" cy="196.5" fill="#ADD1B2" rx="11" ry="11" style="stroke: #A80036; stroke-width: 1.0;"/><path d="M971.9688,202.1406 Q971.3906,202.4375 970.75,202.5781 Q970.1094,202.7344 969.4063,202.7344 Q966.9063,202.7344 965.5781,201.0938 Q964.2656,199.4375 964.2656,196.3125 Q964.2656,193.1875 965.5781,191.5313 Q966.9063,189.875 969.4063,189.875 Q970.1094,189.875 970.75,190.0313 Q971.4063,190.1875 971.9688,190.4844 L971.9688,193.2031 Q971.3438,192.625 970.75,192.3594 Q970.1563,192.0781 969.5313,192.0781 Q968.1875,192.0781 967.5,193.1563 Q966.8125,194.2188 966.8125,196.3125 Q966.8125,198.4063 967.5,199.4844 Q968.1875,200.5469 969.5313,200.5469 Q970.1563,200.5469 970.75,200.2813 Q971.3438,200 971.9688,199.4219 L971.9688,202.1406 Z "/><text fill="#000000" font-family="sans-serif" font-size="12" lengthAdjust="spacingAndGlyphs" textLength="65" x="983" y="200.6543">ViewModel</text><line style="stroke: #A80036; stroke-width: 1.5;" x1="955" x2="1050" y1="212.5" y2="212.5"/><line style="stroke: #A80036; stroke-width: 1.5;" x1="955" x2="1050" y1="220.5" y2="220.5"/><!--MD5=[ab8871ed637f40707b866ba6597734bc]
class ArrayList--><rect fill="#FEFECE" filter="url(#f1gducc5lf9tqo)" height="48" id="ArrayList" style="stroke: #A80036; stroke-width: 1.5;" width="85" x="303" y="1239"/><ellipse cx="318" cy="1255" fill="#ADD1B2" rx="11" ry="11" style="stroke: #A80036; stroke-width: 1.0;"/><path d="M320.9688,1260.6406 Q320.3906,1260.9375 319.75,1261.0781 Q319.1094,1261.2344 318.4063,1261.2344 Q315.9063,1261.2344 314.5781,1259.5938 Q313.2656,1257.9375 313.2656,1254.8125 Q313.2656,1251.6875 314.5781,1250.0313 Q315.9063,1248.375 318.4063,1248.375 Q319.1094,1248.375 319.75,1248.5313 Q320.4063,1248.6875 320.9688,1248.9844 L320.9688,1251.7031 Q320.3438,1251.125 319.75,1250.8594 Q319.1563,1250.5781 318.5313,1250.5781 Q317.1875,1250.5781 316.5,1251.6563 Q315.8125,1252.7188 315.8125,1254.8125 Q315.8125,1256.9063 316.5,1257.9844 Q317.1875,1259.0469 318.5313,1259.0469 Q319.1563,1259.0469 319.75,1258.7813 Q320.3438,1258.5 320.9688,1257.9219 L320.9688,1260.6406 Z "/><text fill="#000000" font-family="sans-serif" font-size="12" lengthAdjust="spacingAndGlyphs" textLength="53" x="332" y="1259.1543">ArrayList</text><line style="stroke: #A80036; stroke-width: 1.5;" x1="304" x2="387" y1="1271" y2="1271"/><line style="stroke: #A80036; stroke-width: 1.5;" x1="304" x2="387" y1="1279" y2="1279"/><!--MD5=[cc3de0a176daa3c4ec875deafdf5ddd1]
class Serializable--><rect fill="#FEFECE" filter="url(#f1gducc5lf9tqo)" height="48" id="Serializable" style="stroke: #A80036; stroke-width: 1.5;" width="102" x="951.5" y="760"/><ellipse cx="966.5" cy="776" fill="#ADD1B2" rx="11" ry="11" style="stroke: #A80036; stroke-width: 1.0;"/><path d="M969.4688,781.6406 Q968.8906,781.9375 968.25,782.0781 Q967.6094,782.2344 966.9063,782.2344 Q964.4063,782.2344 963.0781,780.5938 Q961.7656,778.9375 961.7656,775.8125 Q961.7656,772.6875 963.0781,771.0313 Q964.4063,769.375 966.9063,769.375 Q967.6094,769.375 968.25,769.5313 Q968.9063,769.6875 969.4688,769.9844 L969.4688,772.7031 Q968.8438,772.125 968.25,771.8594 Q967.6563,771.5781 967.0313,771.5781 Q965.6875,771.5781 965,772.6563 Q964.3125,773.7188 964.3125,775.8125 Q964.3125,777.9063 965,778.9844 Q965.6875,780.0469 967.0313,780.0469 Q967.6563,780.0469 968.25,779.7813 Q968.8438,779.5 969.4688,778.9219 L969.4688,781.6406 Z "/><text fill="#000000" font-family="sans-serif" font-size="12" lengthAdjust="spacingAndGlyphs" textLength="70" x="980.5" y="780.1543">Serializable</text><line style="stroke: #A80036; stroke-width: 1.5;" x1="952.5" x2="1052.5" y1="792" y2="792"/><line style="stroke: #A80036; stroke-width: 1.5;" x1="952.5" x2="1052.5" y1="800" y2="800"/><!--MD5=[45ca1d6731e6c3df4d8363008e335c52]
class SimpleDateFormat--><rect fill="#FEFECE" filter="url(#f1gducc5lf9tqo)" height="48" id="SimpleDateFormat" style="stroke: #A80036; stroke-width: 1.5;" width="147" x="6" y="1239"/><ellipse cx="21" cy="1255" fill="#ADD1B2" rx="11" ry="11" style="stroke: #A80036; stroke-width: 1.0;"/><path d="M23.9688,1260.6406 Q23.3906,1260.9375 22.75,1261.0781 Q22.1094,1261.2344 21.4063,1261.2344 Q18.9063,1261.2344 17.5781,1259.5938 Q16.2656,1257.9375 16.2656,1254.8125 Q16.2656,1251.6875 17.5781,1250.0313 Q18.9063,1248.375 21.4063,1248.375 Q22.1094,1248.375 22.75,1248.5313 Q23.4063,1248.6875 23.9688,1248.9844 L23.9688,1251.7031 Q23.3438,1251.125 22.75,1250.8594 Q22.1563,1250.5781 21.5313,1250.5781 Q20.1875,1250.5781 19.5,1251.6563 Q18.8125,1252.7188 18.8125,1254.8125 Q18.8125,1256.9063 19.5,1257.9844 Q20.1875,1259.0469 21.5313,1259.0469 Q22.1563,1259.0469 22.75,1258.7813 Q23.3438,1258.5 23.9688,1257.9219 L23.9688,1260.6406 Z "/><text fill="#000000" font-family="sans-serif" font-size="12" lengthAdjust="spacingAndGlyphs" textLength="115" x="35" y="1259.1543">SimpleDateFormat</text><line style="stroke: #A80036; stroke-width: 1.5;" x1="7" x2="152" y1="1271" y2="1271"/><line style="stroke: #A80036; stroke-width: 1.5;" x1="7" x2="152" y1="1279" y2="1279"/><!--MD5=[a091dd0169c7e85a436f44b8b3c26422]
reverse link RecyclerView to EventAdapter--><path d="M98.93,160.58 C107.63,112.89 129.9,40.75 186,20 C215.23,9.19 717.77,9.19 747,20 C783.68,33.57 807.76,67.78 823.37,103.11 " fill="none" id="RecyclerView&lt;-EventAdapter" style="stroke: #A80036; stroke-width: 1.0;"/><polygon fill="none" points="105.82,161.82,95.81,180.49,91.99,159.65,105.82,161.82" style="stroke: #A80036; stroke-width: 1.0;"/><!--MD5=[148bcb6acf78638b21449816583360e8]
reverse link RecyclerView to MyViewHolder--><path d="M98.93,160.58 C107.63,112.89 129.9,40.75 186,20 C228.62,4.23 552.38,4.23 595,20 C651.41,40.87 674.03,113.41 682.93,161.08 " fill="none" id="RecyclerView&lt;-MyViewHolder" style="stroke: #A80036; stroke-width: 1.0;"/><polygon fill="none" points="105.82,161.82,95.81,180.49,91.99,159.65,105.82,161.82" style="stroke: #A80036; stroke-width: 1.0;"/><!--MD5=[33e6f711780ed8badc0b36bb9fd17a41]
reverse link ViewModel to EventViewModel--><path d="M998.96,160.45 C992.31,112.65 973.16,40.4 918,20 C887.99,8.9 660.01,8.9 630,20 C584.19,36.95 558.04,86.08 543.49,129.39 " fill="none" id="ViewModel&lt;-EventViewModel" style="stroke: #A80036; stroke-width: 1.0;"/><polygon fill="none" points="1005.93,159.76,1001.22,180.42,992.02,161.33,1005.93,159.76" style="stroke: #A80036; stroke-width: 1.0;"/><!--MD5=[4cfdcebf068d63108421a1ed27318667]
link EventRepository to ArrayList--><path d="M331.1672,343.1492 C331.1672,343.1492 332.86,355.55 333.5,361 C335.93,381.77 334.64,387.11 335.5,408 C349.8,756.42 359.61,843.35 366.5,1192 C366.65,1199.55 367.92,1201.58 366.5,1209 C365.38,1214.85 363.63,1220.87 361.61,1226.66 " fill="none" id="EventRepository-ArrayList" style="stroke: #A80036; stroke-width: 1.0;"/><polygon fill="#A80036" points="356.88,1238.83,363.8716,1231.8933,358.6933,1234.1704,356.4162,1228.9921,356.88,1238.83" style="stroke: #A80036; stroke-width: 1.0;"/><line style="stroke: #A80036; stroke-width: 1.0;" x1="358.6933" x2="361.59" y1="1234.1704" y2="1226.71"/><polygon fill="#A80036" points="329.4,331.28,326.3272,337.8036,331.1672,343.1492,334.24,336.6255,329.4,331.28" style="stroke: #A80036; stroke-width: 1.0;"/><text fill="#000000" font-family="sans-serif" font-size="13" lengthAdjust="spacingAndGlyphs" textLength="43" x="366.5" y="788.5669">events</text><!--MD5=[4cfdcebf068d63108421a1ed27318667]
link EventRepository to ArrayList--><path d="M393.1866,341.8331 C393.1866,341.8331 412.68,385.98 418.5,408 C506.58,741.45 545.19,863.22 418.5,1184 C411.66,1201.32 398.95,1217.05 386.04,1229.78 " fill="none" id="EventRepository-ArrayList-1" style="stroke: #A80036; stroke-width: 1.0;"/><polygon fill="#A80036" points="376.21,1238.9,385.5279,1235.7098,379.8749,1235.4988,380.0859,1229.8459,376.21,1238.9" style="stroke: #A80036; stroke-width: 1.0;"/><line style="stroke: #A80036; stroke-width: 1.0;" x1="379.8749" x2="385.745" y1="1235.4988" y2="1230.055"/><polygon fill="#A80036" points="387.82,331.1,386.9256,338.2554,393.1866,341.8331,394.081,334.6777,387.82,331.1" style="stroke: #A80036; stroke-width: 1.0;"/><text fill="#000000" font-family="sans-serif" font-size="13" lengthAdjust="spacingAndGlyphs" textLength="43" x="500.5" y="788.5669">events</text><!--MD5=[705cc2b0b6d5d97f2abb63ea52d9e0ba]
link EventRepository to Event--><path d="M239.0392,342.8241 C239.0392,342.8241 235.7,355.32 234.5,361 C232.14,372.14 230.13,383.48 228.43,394.96 " fill="none" id="EventRepository-Event" style="stroke: #A80036; stroke-width: 1.0;"/><polygon fill="#A80036" points="226.65,407.97,231.8397,399.5994,227.3317,403.0167,223.9144,398.5087,226.65,407.97" style="stroke: #A80036; stroke-width: 1.0;"/><line style="stroke: #A80036; stroke-width: 1.0;" x1="227.3317" x2="228.415" y1="403.0167" y2="395.09"/><polygon fill="#A80036" points="242.52,331.34,236.9516,335.9218,239.0392,342.8241,244.6076,338.2423,242.52,331.34" style="stroke: #A80036; stroke-width: 1.0;"/><text fill="#000000" font-family="sans-serif" font-size="13" lengthAdjust="spacingAndGlyphs" textLength="36" x="235.5" y="374.0669">event</text><!--MD5=[705cc2b0b6d5d97f2abb63ea52d9e0ba]
link EventRepository to Event--><path d="M291.0983,343.1112 C291.0983,343.1112 288.04,377.17 286.47,394.67 " fill="none" id="EventRepository-Event-1" style="stroke: #A80036; stroke-width: 1.0;"/><polygon fill="#A80036" points="285.28,407.82,290.0655,399.2119,285.7252,402.8399,282.0973,398.4996,285.28,407.82" style="stroke: #A80036; stroke-width: 1.0;"/><line style="stroke: #A80036; stroke-width: 1.0;" x1="285.7252" x2="286.45" y1="402.8399" y2="394.875"/><polygon fill="#A80036" points="292.18,331.16,287.6554,336.775,291.0983,343.1112,295.6229,337.4961,292.18,331.16" style="stroke: #A80036; stroke-width: 1.0;"/><text fill="#000000" font-family="sans-serif" font-size="13" lengthAdjust="spacingAndGlyphs" textLength="36" x="288.5" y="374.0669">event</text><!--MD5=[d22a0f55fcfad61a8520a2ccd4a9a0dc]
reverse link Serializable to Event--><path d="M1010.58,739.96 C1024.18,650.12 1039.36,447.65 918,369.5 C866.15,336.11 414.85,336.11 363,369.5 C345.77,380.59 330.96,394.09 318.24,409.34 " fill="none" id="Serializable&lt;-Event" style="stroke: #A80036; stroke-width: 1.0;"/><polygon fill="none" points="1017.48,741.15,1007.33,759.75,1003.67,738.88,1017.48,741.15" style="stroke: #A80036; stroke-width: 1.0;"/><!--MD5=[4e1b67b5341ae5f7ef2a4e4d88fac05f]
link Event to SimpleDateFormat--><path d="M180.7382,971.1241 C180.7382,971.1241 126.13,1119.81 101.5,1192 C97.73,1203.06 93.83,1215.18 90.39,1226.18 " fill="none" id="Event-SimpleDateFormat" style="stroke: #A80036; stroke-width: 1.0;"/><polygon fill="#A80036" points="86.45,1238.89,92.9301,1231.4732,87.927,1234.1131,85.2871,1229.11,86.45,1238.89" style="stroke: #A80036; stroke-width: 1.0;"/><line style="stroke: #A80036; stroke-width: 1.0;" x1="87.927" x2="90.3" y1="1234.1131" y2="1226.475"/><polygon fill="#A80036" points="184.93,959.88,179.0861,964.1048,180.7382,971.1241,186.5821,966.8993,184.93,959.88" style="stroke: #A80036; stroke-width: 1.0;"/><text fill="#000000" font-family="sans-serif" font-size="13" lengthAdjust="spacingAndGlyphs" textLength="75" x="102.5" y="1205.0669">dateFormat</text><!--MD5=[8ac4582c68a5da8c4258dcb516c53aca]
link Event to ArrayList--><path d="M181.0994,939.1789 C181.0994,939.1789 138.7,1131.85 193.5,1209 C215.22,1239.57 255.93,1252.66 289.76,1258.19 " fill="none" id="Event-ArrayList" style="stroke: #A80036; stroke-width: 1.0;"/><polygon fill="#A80036" points="302.8,1260.01,294.4399,1254.8033,297.8481,1259.3183,293.3332,1262.7264,302.8,1260.01" style="stroke: #A80036; stroke-width: 1.0;"/><line style="stroke: #A80036; stroke-width: 1.0;" x1="297.8481" x2="289.93" y1="1259.3183" y2="1258.21"/><polygon fill="#A80036" points="184.91,927.8,179.2118,932.2193,181.0994,939.1789,186.7977,934.7596,184.91,927.8" style="stroke: #A80036; stroke-width: 1.0;"/><text fill="#000000" font-family="sans-serif" font-size="13" lengthAdjust="spacingAndGlyphs" textLength="65" x="194.5" y="1205.0669">attendees</text><!--MD5=[8ac4582c68a5da8c4258dcb516c53aca]
link Event to ArrayList--><path d="M286.1714,1171.6251 C286.1714,1171.6251 295.38,1197.21 300.5,1209 C303.44,1215.78 307.55,1222.35 312.11,1228.42 " fill="none" id="Event-ArrayList-1" style="stroke: #A80036; stroke-width: 1.0;"/><polygon fill="#A80036" points="320.62,1238.75,317.9873,1229.2595,317.4418,1234.89,311.8114,1234.3446,320.62,1238.75" style="stroke: #A80036; stroke-width: 1.0;"/><line style="stroke: #A80036; stroke-width: 1.0;" x1="317.4418" x2="312.35" y1="1234.89" y2="1228.72"/><polygon fill="#A80036" points="282.44,1160.22,280.504,1167.1664,286.1714,1171.6251,288.1074,1164.6788,282.44,1160.22" style="stroke: #A80036; stroke-width: 1.0;"/><text fill="#000000" font-family="sans-serif" font-size="13" lengthAdjust="spacingAndGlyphs" textLength="60" x="301.5" y="1205.0669">signedUp</text><!--MD5=[e79f17ee73a888eb40c65ef3b9154f79]
@startuml
package com.example.cmput301w24t33.events {
    class EventAdapter {
        event
        eventClickListener
        eventText
        eventsArrayList
        position
        view
        bind()
        getItemCount()
        onBindViewHolder()
        onCreateViewHolder()
        onEventClickListener()
        setEvents()
    }
    
    
    class MyViewHolder {
        eventText
        position
        bind()
    }
    class EventViewModel {
        eventRepo
        eventsLiveData
        getEventsLiveData()
        loadEvents()
        loadOrganizerEvents()
        onEventsLoaded()
        onFailure()
        setEventCallback()
    }
    class EventRepository {
        db
        doc
        docRef
        documentId
        event
        eventCallback
        eventId
        events
        eventsCollection
        createEvent()
        onEventsLoaded()
        onFailure()
        setEventByOrganizerSnapshotListener()
        setEventCallback()
        setEventsSnapshotListener()
        updateEvent()
    }
    class Event {
        active
        address
        attendees
        checkInQR
        dateFormat
        endDate
        endTime
        eventDescription
        eventId
        geoTracking
        locationData
        maxOccupancy
        maxSignup
        name
        organizerId
        posterQR
        signedUp
        startDate
        startTime
        getAddress()
        getAttendees()
        getCheckInQR()
        getEndDate()
        getEndTime()
        getEventDescription()
        getEventId()
        getGeoTracking()
        getLocationData()
        getMaxOccupancy()
        getMaxSignup()
        getName()
        getOrganizerId()
        getPosterQR()
        getSignedUp()
        getStartDate()
        getStartTime()
        isActive()
        setActive()
        setAddress()
        setAttendees()
        setCheckInQR()
        setEndDate()
        setEndTime()
        setEventDescription()
        setEventId()
        setGeoTracking()
        setLocationData()
        setMaxOccupancy()
        setMaxSignup()
        setName()
        setOrganizerId()
        setPosterQR()
        setSignedUp()
        setStartDate()
        setStartTime()
    }
}

RecyclerView <|- EventAdapter
RecyclerView <|- MyViewHolder
ViewModel <|- EventViewModel
EventRepository *- -> ArrayList : events
EventRepository *- -> ArrayList : events
EventRepository *- -> Event : event
EventRepository *- -> Event : event
Serializable <|- Event
Event *- -> SimpleDateFormat : dateFormat
Event *- -> ArrayList : attendees
Event *- -> ArrayList : signedUp
@enduml

PlantUML version 1.2020.08(Sun Apr 26 14:08:22 UTC 2020)
(GPL source distribution)
Java Runtime: OpenJDK Runtime Environment
JVM: OpenJDK 64-Bit Server VM
Java Version: 1.8.0_402-heroku-b06
Operating System: Linux
Default Encoding: UTF-8
Language: en
Country: US
--></g></svg>