<?xml version="1.0" encoding="UTF-8" standalone="no"?><svg xmlns="http://www.w3.org/2000/svg" xmlns:xlink="http://www.w3.org/1999/xlink" contentScriptType="application/ecmascript" contentStyleType="text/css" height="813px" preserveAspectRatio="none" style="width:1113px;height:813px;" version="1.1" viewBox="0 0 1113 813" width="1113px" zoomAndPan="magnify"><defs><filter height="300%" id="f1iv5rupax3341" width="300%" x="-1" y="-1"><feGaussianBlur result="blurOut" stdDeviation="2.0"/><feColorMatrix in="blurOut" result="blurOut2" type="matrix" values="0 0 0 0 0 0 0 0 0 0 0 0 0 0 0 0 0 0 .4 0"/><feOffset dx="4.0" dy="4.0" in="blurOut2" result="blurOut3"/><feBlend in="SourceGraphic" in2="blurOut3" mode="normal"/></filter></defs><g><!--MD5=[d5ac500e3acd7345ee7b13ad7c948d38]
cluster com.example.cmput301w24t33.activities--><polygon fill="#FFFFFF" filter="url(#f1iv5rupax3341)" points="100.5,41,429.5,41,436.5,63.2969,874.5,63.2969,874.5,691,100.5,691,100.5,41" style="stroke: #000000; stroke-width: 1.5;"/><line style="stroke: #000000; stroke-width: 1.5;" x1="100.5" x2="436.5" y1="63.2969" y2="63.2969"/><text fill="#000000" font-family="sans-serif" font-size="14" font-weight="bold" lengthAdjust="spacingAndGlyphs" textLength="323" x="104.5" y="55.9951">com.example.cmput301w24t33.activities</text><!--MD5=[f6e32a5c3c7c86b8333f18226c38400d]
class AnonymousAuthActivity--><rect fill="#FEFECE" filter="url(#f1iv5rupax3341)" height="201.6563" id="AnonymousAuthActivity" style="stroke: #A80036; stroke-width: 1.5;" width="176" x="116.5" y="274.5"/><ellipse cx="131.5" cy="290.5" fill="#ADD1B2" rx="11" ry="11" style="stroke: #A80036; stroke-width: 1.0;"/><path d="M134.4688,296.1406 Q133.8906,296.4375 133.25,296.5781 Q132.6094,296.7344 131.9063,296.7344 Q129.4063,296.7344 128.0781,295.0938 Q126.7656,293.4375 126.7656,290.3125 Q126.7656,287.1875 128.0781,285.5313 Q129.4063,283.875 131.9063,283.875 Q132.6094,283.875 133.25,284.0313 Q133.9063,284.1875 134.4688,284.4844 L134.4688,287.2031 Q133.8438,286.625 133.25,286.3594 Q132.6563,286.0781 132.0313,286.0781 Q130.6875,286.0781 130,287.1563 Q129.3125,288.2188 129.3125,290.3125 Q129.3125,292.4063 130,293.4844 Q130.6875,294.5469 132.0313,294.5469 Q132.6563,294.5469 133.25,294.2813 Q133.8438,294 134.4688,293.4219 L134.4688,296.1406 Z "/><text fill="#000000" font-family="sans-serif" font-size="12" lengthAdjust="spacingAndGlyphs" textLength="144" x="145.5" y="294.6543">AnonymousAuthActivity</text><line style="stroke: #A80036; stroke-width: 1.5;" x1="117.5" x2="291.5" y1="306.5" y2="306.5"/><text fill="#000000" font-family="sans-serif" font-size="11" lengthAdjust="spacingAndGlyphs" textLength="23" x="122.5" y="320.7104">TAG</text><text fill="#000000" font-family="sans-serif" font-size="11" lengthAdjust="spacingAndGlyphs" textLength="56" x="122.5" y="333.5151">credential</text><text fill="#000000" font-family="sans-serif" font-size="11" lengthAdjust="spacingAndGlyphs" textLength="36" x="122.5" y="346.3198">mAuth</text><text fill="#000000" font-family="sans-serif" font-size="11" lengthAdjust="spacingAndGlyphs" textLength="65" x="122.5" y="359.1245">resultIntent</text><text fill="#000000" font-family="sans-serif" font-size="11" lengthAdjust="spacingAndGlyphs" textLength="26" x="122.5" y="371.9292">user</text><line style="stroke: #A80036; stroke-width: 1.5;" x1="117.5" x2="291.5" y1="378.5234" y2="378.5234"/><text fill="#000000" font-family="sans-serif" font-size="11" lengthAdjust="spacingAndGlyphs" textLength="71" x="122.5" y="392.7339">linkAccount()</text><text fill="#000000" font-family="sans-serif" font-size="11" lengthAdjust="spacingAndGlyphs" textLength="76" x="122.5" y="405.5386">onComplete()</text><text fill="#000000" font-family="sans-serif" font-size="11" lengthAdjust="spacingAndGlyphs" textLength="76" x="122.5" y="418.3433">onComplete()</text><text fill="#000000" font-family="sans-serif" font-size="11" lengthAdjust="spacingAndGlyphs" textLength="60" x="122.5" y="431.1479">onCreate()</text><text fill="#000000" font-family="sans-serif" font-size="11" lengthAdjust="spacingAndGlyphs" textLength="50" x="122.5" y="443.9526">onStart()</text><text fill="#000000" font-family="sans-serif" font-size="11" lengthAdjust="spacingAndGlyphs" textLength="117" x="122.5" y="456.7573">signInAnonymously()</text><text fill="#000000" font-family="sans-serif" font-size="11" lengthAdjust="spacingAndGlyphs" textLength="58" x="122.5" y="469.562">updateUI()</text><!--MD5=[c5a023b079dd7d5a740f7ebdd1bb0457]
class Attendee--><rect fill="#FEFECE" filter="url(#f1iv5rupax3341)" height="598.6016" id="Attendee" style="stroke: #A80036; stroke-width: 1.5;" width="157" x="496" y="76"/><ellipse cx="541.25" cy="92" fill="#ADD1B2" rx="11" ry="11" style="stroke: #A80036; stroke-width: 1.0;"/><path d="M544.2188,97.6406 Q543.6406,97.9375 543,98.0781 Q542.3594,98.2344 541.6563,98.2344 Q539.1563,98.2344 537.8281,96.5938 Q536.5156,94.9375 536.5156,91.8125 Q536.5156,88.6875 537.8281,87.0313 Q539.1563,85.375 541.6563,85.375 Q542.3594,85.375 543,85.5313 Q543.6563,85.6875 544.2188,85.9844 L544.2188,88.7031 Q543.5938,88.125 543,87.8594 Q542.4063,87.5781 541.7813,87.5781 Q540.4375,87.5781 539.75,88.6563 Q539.0625,89.7188 539.0625,91.8125 Q539.0625,93.9063 539.75,94.9844 Q540.4375,96.0469 541.7813,96.0469 Q542.4063,96.0469 543,95.7813 Q543.5938,95.5 544.2188,94.9219 L544.2188,97.6406 Z "/><text fill="#000000" font-family="sans-serif" font-size="12" lengthAdjust="spacingAndGlyphs" textLength="58" x="561.75" y="96.1543">Attendee</text><line style="stroke: #A80036; stroke-width: 1.5;" x1="497" x2="652" y1="108" y2="108"/><text fill="#000000" font-family="sans-serif" font-size="11" lengthAdjust="spacingAndGlyphs" textLength="78" x="502" y="122.2104">actionBarText</text><text fill="#000000" font-family="sans-serif" font-size="11" lengthAdjust="spacingAndGlyphs" textLength="88" x="502" y="135.0151">allEventAdapter</text><text fill="#000000" font-family="sans-serif" font-size="11" lengthAdjust="spacingAndGlyphs" textLength="117" x="502" y="147.8198">allEventRecyclerView</text><text fill="#000000" font-family="sans-serif" font-size="11" lengthAdjust="spacingAndGlyphs" textLength="88" x="502" y="160.6245">allEventsVisible</text><text fill="#000000" font-family="sans-serif" font-size="11" lengthAdjust="spacingAndGlyphs" textLength="53" x="502" y="173.4292">androidId</text><text fill="#000000" font-family="sans-serif" font-size="11" lengthAdjust="spacingAndGlyphs" textLength="79" x="502" y="186.2339">checkInButton</text><text fill="#000000" font-family="sans-serif" font-size="11" lengthAdjust="spacingAndGlyphs" textLength="68" x="502" y="199.0386">currentUser</text><text fill="#000000" font-family="sans-serif" font-size="11" lengthAdjust="spacingAndGlyphs" textLength="14" x="502" y="211.8433">db</text><text fill="#000000" font-family="sans-serif" font-size="11" lengthAdjust="spacingAndGlyphs" textLength="20" x="502" y="224.6479">doc</text><text fill="#000000" font-family="sans-serif" font-size="11" lengthAdjust="spacingAndGlyphs" textLength="41" x="502" y="237.4526">eventId</text><text fill="#000000" font-family="sans-serif" font-size="11" lengthAdjust="spacingAndGlyphs" textLength="51" x="502" y="250.2573">eventList</text><text fill="#000000" font-family="sans-serif" font-size="11" lengthAdjust="spacingAndGlyphs" textLength="90" x="502" y="263.062">eventViewModel</text><text fill="#000000" font-family="sans-serif" font-size="11" lengthAdjust="spacingAndGlyphs" textLength="101" x="502" y="275.8667">fragmentManager</text><text fill="#000000" font-family="sans-serif" font-size="11" lengthAdjust="spacingAndGlyphs" textLength="126" x="502" y="288.6714">fusedLocationProvider</text><text fill="#000000" font-family="sans-serif" font-size="11" lengthAdjust="spacingAndGlyphs" textLength="32" x="502" y="301.4761">intent</text><text fill="#000000" font-family="sans-serif" font-size="11" lengthAdjust="spacingAndGlyphs" textLength="73" x="502" y="314.2808">profileButton</text><text fill="#000000" font-family="sans-serif" font-size="11" lengthAdjust="spacingAndGlyphs" textLength="59" x="502" y="327.0854">qrScanner</text><text fill="#000000" font-family="sans-serif" font-size="11" lengthAdjust="spacingAndGlyphs" textLength="46" x="502" y="339.8901">scanner</text><text fill="#000000" font-family="sans-serif" font-size="11" lengthAdjust="spacingAndGlyphs" textLength="145" x="502" y="352.6948">switchRecyclerviewButton</text><text fill="#000000" font-family="sans-serif" font-size="11" lengthAdjust="spacingAndGlyphs" textLength="73" x="502" y="365.4995">testEventList</text><text fill="#000000" font-family="sans-serif" font-size="11" lengthAdjust="spacingAndGlyphs" textLength="64" x="502" y="378.3042">transaction</text><text fill="#000000" font-family="sans-serif" font-size="11" lengthAdjust="spacingAndGlyphs" textLength="39" x="502" y="391.1089">update</text><text fill="#000000" font-family="sans-serif" font-size="11" lengthAdjust="spacingAndGlyphs" textLength="101" x="502" y="403.9136">userEventAdapter</text><text fill="#000000" font-family="sans-serif" font-size="11" lengthAdjust="spacingAndGlyphs" textLength="130" x="502" y="416.7183">userEventRecyclerView</text><text fill="#000000" font-family="sans-serif" font-size="11" lengthAdjust="spacingAndGlyphs" textLength="36" x="502" y="429.5229">userId</text><text fill="#000000" font-family="sans-serif" font-size="11" lengthAdjust="spacingAndGlyphs" textLength="56" x="502" y="442.3276">userMode</text><text fill="#000000" font-family="sans-serif" font-size="11" lengthAdjust="spacingAndGlyphs" textLength="85" x="502" y="455.1323">userViewModel</text><line style="stroke: #A80036; stroke-width: 1.5;" x1="497" x2="652" y1="461.7266" y2="461.7266"/><text fill="#000000" font-family="sans-serif" font-size="11" lengthAdjust="spacingAndGlyphs" textLength="52" x="502" y="475.937">CheckIn()</text><text fill="#000000" font-family="sans-serif" font-size="11" lengthAdjust="spacingAndGlyphs" textLength="129" x="502" y="488.7417">HandleScannerResult()</text><text fill="#000000" font-family="sans-serif" font-size="11" lengthAdjust="spacingAndGlyphs" textLength="105" x="502" y="501.5464">authenticateUser()</text><text fill="#000000" font-family="sans-serif" font-size="11" lengthAdjust="spacingAndGlyphs" textLength="86" x="502" y="514.3511">displayEvents()</text><text fill="#000000" font-family="sans-serif" font-size="11" lengthAdjust="spacingAndGlyphs" textLength="79" x="502" y="527.1558">getAndroidId()</text><text fill="#000000" font-family="sans-serif" font-size="11" lengthAdjust="spacingAndGlyphs" textLength="76" x="502" y="539.9604">onComplete()</text><text fill="#000000" font-family="sans-serif" font-size="11" lengthAdjust="spacingAndGlyphs" textLength="60" x="502" y="552.7651">onCreate()</text><text fill="#000000" font-family="sans-serif" font-size="11" lengthAdjust="spacingAndGlyphs" textLength="125" x="502" y="565.5698">onEventClickListener()</text><text fill="#000000" font-family="sans-serif" font-size="11" lengthAdjust="spacingAndGlyphs" textLength="68" x="502" y="578.3745">onResume()</text><text fill="#000000" font-family="sans-serif" font-size="11" lengthAdjust="spacingAndGlyphs" textLength="80" x="502" y="591.1792">registerUser()</text><text fill="#000000" font-family="sans-serif" font-size="11" lengthAdjust="spacingAndGlyphs" textLength="104" x="502" y="603.9839">replaceFragment()</text><text fill="#000000" font-family="sans-serif" font-size="11" lengthAdjust="spacingAndGlyphs" textLength="70" x="502" y="616.7886">setAdapter()</text><text fill="#000000" font-family="sans-serif" font-size="11" lengthAdjust="spacingAndGlyphs" textLength="121" x="502" y="629.5933">setOnClickListeners()</text><text fill="#000000" font-family="sans-serif" font-size="11" lengthAdjust="spacingAndGlyphs" textLength="93" x="502" y="642.3979">setupActionbar()</text><text fill="#000000" font-family="sans-serif" font-size="11" lengthAdjust="spacingAndGlyphs" textLength="117" x="502" y="655.2026">switchRecyclerView()</text><text fill="#000000" font-family="sans-serif" font-size="11" lengthAdjust="spacingAndGlyphs" textLength="58" x="502" y="668.0073">updateUI()</text><!--MD5=[c943b7297f25d0ee4f831707c42d3ae4]
class Organizer--><rect fill="#FEFECE" filter="url(#f1iv5rupax3341)" height="380.9219" id="Organizer" style="stroke: #A80036; stroke-width: 1.5;" width="170" x="688.5" y="185"/><ellipse cx="739.75" cy="201" fill="#ADD1B2" rx="11" ry="11" style="stroke: #A80036; stroke-width: 1.0;"/><path d="M742.7188,206.6406 Q742.1406,206.9375 741.5,207.0781 Q740.8594,207.2344 740.1563,207.2344 Q737.6563,207.2344 736.3281,205.5938 Q735.0156,203.9375 735.0156,200.8125 Q735.0156,197.6875 736.3281,196.0313 Q737.6563,194.375 740.1563,194.375 Q740.8594,194.375 741.5,194.5313 Q742.1563,194.6875 742.7188,194.9844 L742.7188,197.7031 Q742.0938,197.125 741.5,196.8594 Q740.9063,196.5781 740.2813,196.5781 Q738.9375,196.5781 738.25,197.6563 Q737.5625,198.7188 737.5625,200.8125 Q737.5625,202.9063 738.25,203.9844 Q738.9375,205.0469 740.2813,205.0469 Q740.9063,205.0469 741.5,204.7813 Q742.0938,204.5 742.7188,203.9219 L742.7188,206.6406 Z "/><text fill="#000000" font-family="sans-serif" font-size="12" lengthAdjust="spacingAndGlyphs" textLength="59" x="760.25" y="205.1543">Organizer</text><line style="stroke: #A80036; stroke-width: 1.5;" x1="689.5" x2="857.5" y1="217" y2="217"/><text fill="#000000" font-family="sans-serif" font-size="11" lengthAdjust="spacingAndGlyphs" textLength="78" x="694.5" y="231.2104">actionBarText</text><text fill="#000000" font-family="sans-serif" font-size="11" lengthAdjust="spacingAndGlyphs" textLength="26" x="694.5" y="244.0151">args</text><text fill="#000000" font-family="sans-serif" font-size="11" lengthAdjust="spacingAndGlyphs" textLength="158" x="694.5" y="256.8198">attendeeOrganizerActionbar</text><text fill="#000000" font-family="sans-serif" font-size="11" lengthAdjust="spacingAndGlyphs" textLength="28" x="694.5" y="269.6245">color</text><text fill="#000000" font-family="sans-serif" font-size="11" lengthAdjust="spacingAndGlyphs" textLength="67" x="694.5" y="282.4292">createEvent</text><text fill="#000000" font-family="sans-serif" font-size="11" lengthAdjust="spacingAndGlyphs" textLength="75" x="694.5" y="295.2339">eventAdapter</text><text fill="#000000" font-family="sans-serif" font-size="11" lengthAdjust="spacingAndGlyphs" textLength="104" x="694.5" y="308.0386">eventRecyclerView</text><text fill="#000000" font-family="sans-serif" font-size="11" lengthAdjust="spacingAndGlyphs" textLength="90" x="694.5" y="320.8433">eventViewModel</text><text fill="#000000" font-family="sans-serif" font-size="11" lengthAdjust="spacingAndGlyphs" textLength="52" x="694.5" y="333.6479">fragment</text><text fill="#000000" font-family="sans-serif" font-size="11" lengthAdjust="spacingAndGlyphs" textLength="101" x="694.5" y="346.4526">fragmentManager</text><text fill="#000000" font-family="sans-serif" font-size="11" lengthAdjust="spacingAndGlyphs" textLength="32" x="694.5" y="359.2573">intent</text><text fill="#000000" font-family="sans-serif" font-size="11" lengthAdjust="spacingAndGlyphs" textLength="93" x="694.5" y="372.062">organizedEvents</text><text fill="#000000" font-family="sans-serif" font-size="11" lengthAdjust="spacingAndGlyphs" textLength="73" x="694.5" y="384.8667">profileButton</text><text fill="#000000" font-family="sans-serif" font-size="11" lengthAdjust="spacingAndGlyphs" textLength="64" x="694.5" y="397.6714">transaction</text><text fill="#000000" font-family="sans-serif" font-size="11" lengthAdjust="spacingAndGlyphs" textLength="36" x="694.5" y="410.4761">userId</text><text fill="#000000" font-family="sans-serif" font-size="11" lengthAdjust="spacingAndGlyphs" textLength="56" x="694.5" y="423.2808">userMode</text><text fill="#000000" font-family="sans-serif" font-size="11" lengthAdjust="spacingAndGlyphs" textLength="25" x="694.5" y="436.0854">view</text><line style="stroke: #A80036; stroke-width: 1.5;" x1="689.5" x2="857.5" y1="442.6797" y2="442.6797"/><text fill="#000000" font-family="sans-serif" font-size="11" lengthAdjust="spacingAndGlyphs" textLength="79" x="694.5" y="456.8901">newInstance()</text><text fill="#000000" font-family="sans-serif" font-size="11" lengthAdjust="spacingAndGlyphs" textLength="60" x="694.5" y="469.6948">onCreate()</text><text fill="#000000" font-family="sans-serif" font-size="11" lengthAdjust="spacingAndGlyphs" textLength="125" x="694.5" y="482.4995">onEventClickListener()</text><text fill="#000000" font-family="sans-serif" font-size="11" lengthAdjust="spacingAndGlyphs" textLength="68" x="694.5" y="495.3042">onResume()</text><text fill="#000000" font-family="sans-serif" font-size="11" lengthAdjust="spacingAndGlyphs" textLength="104" x="694.5" y="508.1089">replaceFragment()</text><text fill="#000000" font-family="sans-serif" font-size="11" lengthAdjust="spacingAndGlyphs" textLength="70" x="694.5" y="520.9136">setAdapter()</text><text fill="#000000" font-family="sans-serif" font-size="11" lengthAdjust="spacingAndGlyphs" textLength="121" x="694.5" y="533.7183">setOnClickListeners()</text><text fill="#000000" font-family="sans-serif" font-size="11" lengthAdjust="spacingAndGlyphs" textLength="94" x="694.5" y="546.5229">setupActionBar()</text><text fill="#000000" font-family="sans-serif" font-size="11" lengthAdjust="spacingAndGlyphs" textLength="58" x="694.5" y="559.3276">updateUI()</text><!--MD5=[db6d18d8099558415abc41d00477ab92]
class Admin--><rect fill="#FEFECE" filter="url(#f1iv5rupax3341)" height="240.0703" id="Admin" style="stroke: #A80036; stroke-width: 1.5;" width="133" x="328" y="255.5"/><ellipse cx="371.35" cy="271.5" fill="#ADD1B2" rx="11" ry="11" style="stroke: #A80036; stroke-width: 1.0;"/><path d="M374.3188,277.1406 Q373.7406,277.4375 373.1,277.5781 Q372.4594,277.7344 371.7563,277.7344 Q369.2563,277.7344 367.9281,276.0938 Q366.6156,274.4375 366.6156,271.3125 Q366.6156,268.1875 367.9281,266.5313 Q369.2563,264.875 371.7563,264.875 Q372.4594,264.875 373.1,265.0313 Q373.7563,265.1875 374.3188,265.4844 L374.3188,268.2031 Q373.6938,267.625 373.1,267.3594 Q372.5063,267.0781 371.8813,267.0781 Q370.5375,267.0781 369.85,268.1563 Q369.1625,269.2188 369.1625,271.3125 Q369.1625,273.4063 369.85,274.4844 Q370.5375,275.5469 371.8813,275.5469 Q372.5063,275.5469 373.1,275.2813 Q373.6938,275 374.3188,274.4219 L374.3188,277.1406 Z "/><text fill="#000000" font-family="sans-serif" font-size="12" lengthAdjust="spacingAndGlyphs" textLength="38" x="391.65" y="275.6543">Admin</text><line style="stroke: #A80036; stroke-width: 1.5;" x1="329" x2="460" y1="287.5" y2="287.5"/><text fill="#000000" font-family="sans-serif" font-size="11" lengthAdjust="spacingAndGlyphs" textLength="78" x="334" y="301.7104">actionBarText</text><text fill="#000000" font-family="sans-serif" font-size="11" lengthAdjust="spacingAndGlyphs" textLength="63" x="334" y="314.5151">backButton</text><text fill="#000000" font-family="sans-serif" font-size="11" lengthAdjust="spacingAndGlyphs" textLength="28" x="334" y="327.3198">color</text><text fill="#000000" font-family="sans-serif" font-size="11" lengthAdjust="spacingAndGlyphs" textLength="68" x="334" y="340.1245">eventButton</text><text fill="#000000" font-family="sans-serif" font-size="11" lengthAdjust="spacingAndGlyphs" textLength="101" x="334" y="352.9292">fragmentManager</text><text fill="#000000" font-family="sans-serif" font-size="11" lengthAdjust="spacingAndGlyphs" textLength="96" x="334" y="365.7339">generalActionbar</text><text fill="#000000" font-family="sans-serif" font-size="11" lengthAdjust="spacingAndGlyphs" textLength="72" x="334" y="378.5386">imageButton</text><text fill="#000000" font-family="sans-serif" font-size="11" lengthAdjust="spacingAndGlyphs" textLength="73" x="334" y="391.3433">profileButton</text><text fill="#000000" font-family="sans-serif" font-size="11" lengthAdjust="spacingAndGlyphs" textLength="64" x="334" y="404.1479">transaction</text><text fill="#000000" font-family="sans-serif" font-size="11" lengthAdjust="spacingAndGlyphs" textLength="25" x="334" y="416.9526">view</text><line style="stroke: #A80036; stroke-width: 1.5;" x1="329" x2="460" y1="423.5469" y2="423.5469"/><text fill="#000000" font-family="sans-serif" font-size="11" lengthAdjust="spacingAndGlyphs" textLength="60" x="334" y="437.7573">onCreate()</text><text fill="#000000" font-family="sans-serif" font-size="11" lengthAdjust="spacingAndGlyphs" textLength="68" x="334" y="450.562">onResume()</text><text fill="#000000" font-family="sans-serif" font-size="11" lengthAdjust="spacingAndGlyphs" textLength="104" x="334" y="463.3667">replaceFragment()</text><text fill="#000000" font-family="sans-serif" font-size="11" lengthAdjust="spacingAndGlyphs" textLength="121" x="334" y="476.1714">setOnClickListeners()</text><text fill="#000000" font-family="sans-serif" font-size="11" lengthAdjust="spacingAndGlyphs" textLength="94" x="334" y="488.9761">setupActionBar()</text><!--MD5=[c881b25adf3665c6568c9693d41a70f3]
class Activity--><rect fill="#FEFECE" filter="url(#f1iv5rupax3341)" height="48" id="Activity" style="stroke: #A80036; stroke-width: 1.5;" width="75" x="6" y="351.5"/><ellipse cx="21" cy="367.5" fill="#ADD1B2" rx="11" ry="11" style="stroke: #A80036; stroke-width: 1.0;"/><path d="M23.9688,373.1406 Q23.3906,373.4375 22.75,373.5781 Q22.1094,373.7344 21.4063,373.7344 Q18.9063,373.7344 17.5781,372.0938 Q16.2656,370.4375 16.2656,367.3125 Q16.2656,364.1875 17.5781,362.5313 Q18.9063,360.875 21.4063,360.875 Q22.1094,360.875 22.75,361.0313 Q23.4063,361.1875 23.9688,361.4844 L23.9688,364.2031 Q23.3438,363.625 22.75,363.3594 Q22.1563,363.0781 21.5313,363.0781 Q20.1875,363.0781 19.5,364.1563 Q18.8125,365.2188 18.8125,367.3125 Q18.8125,369.4063 19.5,370.4844 Q20.1875,371.5469 21.5313,371.5469 Q22.1563,371.5469 22.75,371.2813 Q23.3438,371 23.9688,370.4219 L23.9688,373.1406 Z "/><text fill="#000000" font-family="sans-serif" font-size="12" lengthAdjust="spacingAndGlyphs" textLength="43" x="35" y="371.6543">Activity</text><line style="stroke: #A80036; stroke-width: 1.5;" x1="7" x2="80" y1="383.5" y2="383.5"/><line style="stroke: #A80036; stroke-width: 1.5;" x1="7" x2="80" y1="391.5" y2="391.5"/><!--MD5=[bb0a1f964bde8310f27a5c06a3900f87]
class Intent--><rect fill="#FEFECE" filter="url(#f1iv5rupax3341)" height="48" id="Intent" style="stroke: #A80036; stroke-width: 1.5;" width="69" x="505" y="754"/><ellipse cx="520" cy="770" fill="#ADD1B2" rx="11" ry="11" style="stroke: #A80036; stroke-width: 1.0;"/><path d="M522.9688,775.6406 Q522.3906,775.9375 521.75,776.0781 Q521.1094,776.2344 520.4063,776.2344 Q517.9063,776.2344 516.5781,774.5938 Q515.2656,772.9375 515.2656,769.8125 Q515.2656,766.6875 516.5781,765.0313 Q517.9063,763.375 520.4063,763.375 Q521.1094,763.375 521.75,763.5313 Q522.4063,763.6875 522.9688,763.9844 L522.9688,766.7031 Q522.3438,766.125 521.75,765.8594 Q521.1563,765.5781 520.5313,765.5781 Q519.1875,765.5781 518.5,766.6563 Q517.8125,767.7188 517.8125,769.8125 Q517.8125,771.9063 518.5,772.9844 Q519.1875,774.0469 520.5313,774.0469 Q521.1563,774.0469 521.75,773.7813 Q522.3438,773.5 522.9688,772.9219 L522.9688,775.6406 Z "/><text fill="#000000" font-family="sans-serif" font-size="12" lengthAdjust="spacingAndGlyphs" textLength="37" x="534" y="774.1543">Intent</text><line style="stroke: #A80036; stroke-width: 1.5;" x1="506" x2="573" y1="786" y2="786"/><line style="stroke: #A80036; stroke-width: 1.5;" x1="506" x2="573" y1="794" y2="794"/><!--MD5=[5839a728ddc01d792fb5317e858e9ae0]
class AppCompatActivity--><rect fill="#FEFECE" filter="url(#f1iv5rupax3341)" height="48" id="AppCompatActivity" style="stroke: #A80036; stroke-width: 1.5;" width="147" x="894" y="351.5"/><ellipse cx="909" cy="367.5" fill="#ADD1B2" rx="11" ry="11" style="stroke: #A80036; stroke-width: 1.0;"/><path d="M911.9688,373.1406 Q911.3906,373.4375 910.75,373.5781 Q910.1094,373.7344 909.4063,373.7344 Q906.9063,373.7344 905.5781,372.0938 Q904.2656,370.4375 904.2656,367.3125 Q904.2656,364.1875 905.5781,362.5313 Q906.9063,360.875 909.4063,360.875 Q910.1094,360.875 910.75,361.0313 Q911.4063,361.1875 911.9688,361.4844 L911.9688,364.2031 Q911.3438,363.625 910.75,363.3594 Q910.1563,363.0781 909.5313,363.0781 Q908.1875,363.0781 907.5,364.1563 Q906.8125,365.2188 906.8125,367.3125 Q906.8125,369.4063 907.5,370.4844 Q908.1875,371.5469 909.5313,371.5469 Q910.1563,371.5469 910.75,371.2813 Q911.3438,371 911.9688,370.4219 L911.9688,373.1406 Z "/><text fill="#000000" font-family="sans-serif" font-size="12" lengthAdjust="spacingAndGlyphs" textLength="115" x="923" y="371.6543">AppCompatActivity</text><line style="stroke: #A80036; stroke-width: 1.5;" x1="895" x2="1040" y1="383.5" y2="383.5"/><line style="stroke: #A80036; stroke-width: 1.5;" x1="895" x2="1040" y1="391.5" y2="391.5"/><!--MD5=[2292dacabacf41979c67830137e3d1b3]
class QRScanner--><rect fill="#FEFECE" filter="url(#f1iv5rupax3341)" height="48" id="QRScanner" style="stroke: #A80036; stroke-width: 1.5;" width="101" x="609" y="754"/><ellipse cx="624" cy="770" fill="#ADD1B2" rx="11" ry="11" style="stroke: #A80036; stroke-width: 1.0;"/><path d="M626.9688,775.6406 Q626.3906,775.9375 625.75,776.0781 Q625.1094,776.2344 624.4063,776.2344 Q621.9063,776.2344 620.5781,774.5938 Q619.2656,772.9375 619.2656,769.8125 Q619.2656,766.6875 620.5781,765.0313 Q621.9063,763.375 624.4063,763.375 Q625.1094,763.375 625.75,763.5313 Q626.4063,763.6875 626.9688,763.9844 L626.9688,766.7031 Q626.3438,766.125 625.75,765.8594 Q625.1563,765.5781 624.5313,765.5781 Q623.1875,765.5781 622.5,766.6563 Q621.8125,767.7188 621.8125,769.8125 Q621.8125,771.9063 622.5,772.9844 Q623.1875,774.0469 624.5313,774.0469 Q625.1563,774.0469 625.75,773.7813 Q626.3438,773.5 626.9688,772.9219 L626.9688,775.6406 Z "/><text fill="#000000" font-family="sans-serif" font-size="12" lengthAdjust="spacingAndGlyphs" textLength="69" x="638" y="774.1543">QRScanner</text><line style="stroke: #A80036; stroke-width: 1.5;" x1="610" x2="709" y1="786" y2="786"/><line style="stroke: #A80036; stroke-width: 1.5;" x1="610" x2="709" y1="794" y2="794"/><!--MD5=[ab8871ed637f40707b866ba6597734bc]
class ArrayList--><rect fill="#FEFECE" filter="url(#f1iv5rupax3341)" height="48" id="ArrayList" style="stroke: #A80036; stroke-width: 1.5;" width="85" x="247" y="754"/><ellipse cx="262" cy="770" fill="#ADD1B2" rx="11" ry="11" style="stroke: #A80036; stroke-width: 1.0;"/><path d="M264.9688,775.6406 Q264.3906,775.9375 263.75,776.0781 Q263.1094,776.2344 262.4063,776.2344 Q259.9063,776.2344 258.5781,774.5938 Q257.2656,772.9375 257.2656,769.8125 Q257.2656,766.6875 258.5781,765.0313 Q259.9063,763.375 262.4063,763.375 Q263.1094,763.375 263.75,763.5313 Q264.4063,763.6875 264.9688,763.9844 L264.9688,766.7031 Q264.3438,766.125 263.75,765.8594 Q263.1563,765.5781 262.5313,765.5781 Q261.1875,765.5781 260.5,766.6563 Q259.8125,767.7188 259.8125,769.8125 Q259.8125,771.9063 260.5,772.9844 Q261.1875,774.0469 262.5313,774.0469 Q263.1563,774.0469 263.75,773.7813 Q264.3438,773.5 264.9688,772.9219 L264.9688,775.6406 Z "/><text fill="#000000" font-family="sans-serif" font-size="12" lengthAdjust="spacingAndGlyphs" textLength="53" x="276" y="774.1543">ArrayList</text><line style="stroke: #A80036; stroke-width: 1.5;" x1="248" x2="331" y1="786" y2="786"/><line style="stroke: #A80036; stroke-width: 1.5;" x1="248" x2="331" y1="794" y2="794"/><!--MD5=[702f122c79729df12a8a52022932f992]
class HashMap--><rect fill="#FEFECE" filter="url(#f1iv5rupax3341)" height="48" id="HashMap" style="stroke: #A80036; stroke-width: 1.5;" width="90" x="369.5" y="754"/><ellipse cx="384.5" cy="770" fill="#ADD1B2" rx="11" ry="11" style="stroke: #A80036; stroke-width: 1.0;"/><path d="M387.4688,775.6406 Q386.8906,775.9375 386.25,776.0781 Q385.6094,776.2344 384.9063,776.2344 Q382.4063,776.2344 381.0781,774.5938 Q379.7656,772.9375 379.7656,769.8125 Q379.7656,766.6875 381.0781,765.0313 Q382.4063,763.375 384.9063,763.375 Q385.6094,763.375 386.25,763.5313 Q386.9063,763.6875 387.4688,763.9844 L387.4688,766.7031 Q386.8438,766.125 386.25,765.8594 Q385.6563,765.5781 385.0313,765.5781 Q383.6875,765.5781 383,766.6563 Q382.3125,767.7188 382.3125,769.8125 Q382.3125,771.9063 383,772.9844 Q383.6875,774.0469 385.0313,774.0469 Q385.6563,774.0469 386.25,773.7813 Q386.8438,773.5 387.4688,772.9219 L387.4688,775.6406 Z "/><text fill="#000000" font-family="sans-serif" font-size="12" lengthAdjust="spacingAndGlyphs" textLength="58" x="398.5" y="774.1543">HashMap</text><line style="stroke: #A80036; stroke-width: 1.5;" x1="370.5" x2="458.5" y1="786" y2="786"/><line style="stroke: #A80036; stroke-width: 1.5;" x1="370.5" x2="458.5" y1="794" y2="794"/><!--MD5=[8d03aade16df2caedd1f6f1dad7d7a30]
class EventCreateEdit--><rect fill="#FEFECE" filter="url(#f1iv5rupax3341)" height="48" id="EventCreateEdit" style="stroke: #A80036; stroke-width: 1.5;" width="133" x="859" y="754"/><ellipse cx="874" cy="770" fill="#ADD1B2" rx="11" ry="11" style="stroke: #A80036; stroke-width: 1.0;"/><path d="M876.9688,775.6406 Q876.3906,775.9375 875.75,776.0781 Q875.1094,776.2344 874.4063,776.2344 Q871.9063,776.2344 870.5781,774.5938 Q869.2656,772.9375 869.2656,769.8125 Q869.2656,766.6875 870.5781,765.0313 Q871.9063,763.375 874.4063,763.375 Q875.1094,763.375 875.75,763.5313 Q876.4063,763.6875 876.9688,763.9844 L876.9688,766.7031 Q876.3438,766.125 875.75,765.8594 Q875.1563,765.5781 874.5313,765.5781 Q873.1875,765.5781 872.5,766.6563 Q871.8125,767.7188 871.8125,769.8125 Q871.8125,771.9063 872.5,772.9844 Q873.1875,774.0469 874.5313,774.0469 Q875.1563,774.0469 875.75,773.7813 Q876.3438,773.5 876.9688,772.9219 L876.9688,775.6406 Z "/><text fill="#000000" font-family="sans-serif" font-size="12" lengthAdjust="spacingAndGlyphs" textLength="101" x="888" y="774.1543">EventCreateEdit</text><line style="stroke: #A80036; stroke-width: 1.5;" x1="860" x2="991" y1="786" y2="786"/><line style="stroke: #A80036; stroke-width: 1.5;" x1="860" x2="991" y1="794" y2="794"/><!--MD5=[536e464d8b1e54faa737ee1f4ae6355d]
class Bundle--><rect fill="#FEFECE" filter="url(#f1iv5rupax3341)" height="48" id="Bundle" style="stroke: #A80036; stroke-width: 1.5;" width="75" x="1027" y="754"/><ellipse cx="1042" cy="770" fill="#ADD1B2" rx="11" ry="11" style="stroke: #A80036; stroke-width: 1.0;"/><path d="M1044.9688,775.6406 Q1044.3906,775.9375 1043.75,776.0781 Q1043.1094,776.2344 1042.4063,776.2344 Q1039.9063,776.2344 1038.5781,774.5938 Q1037.2656,772.9375 1037.2656,769.8125 Q1037.2656,766.6875 1038.5781,765.0313 Q1039.9063,763.375 1042.4063,763.375 Q1043.1094,763.375 1043.75,763.5313 Q1044.4063,763.6875 1044.9688,763.9844 L1044.9688,766.7031 Q1044.3438,766.125 1043.75,765.8594 Q1043.1563,765.5781 1042.5313,765.5781 Q1041.1875,765.5781 1040.5,766.6563 Q1039.8125,767.7188 1039.8125,769.8125 Q1039.8125,771.9063 1040.5,772.9844 Q1041.1875,774.0469 1042.5313,774.0469 Q1043.1563,774.0469 1043.75,773.7813 Q1044.3438,773.5 1044.9688,772.9219 L1044.9688,775.6406 Z "/><text fill="#000000" font-family="sans-serif" font-size="12" lengthAdjust="spacingAndGlyphs" textLength="43" x="1056" y="774.1543">Bundle</text><line style="stroke: #A80036; stroke-width: 1.5;" x1="1028" x2="1101" y1="786" y2="786"/><line style="stroke: #A80036; stroke-width: 1.5;" x1="1028" x2="1101" y1="794" y2="794"/><!--MD5=[7e8733ca6cca23304da98a9c9e9c0771]
reverse link Activity to AnonymousAuthActivity--><path d="M101.28,375.5 C106.32,375.5 111.35,375.5 116.38,375.5 " fill="none" id="Activity&lt;-AnonymousAuthActivity" style="stroke: #A80036; stroke-width: 1.0;"/><polygon fill="none" points="101.23,382.5,81.23,375.5,101.23,368.5,101.23,382.5" style="stroke: #A80036; stroke-width: 1.0;"/><!--MD5=[79aebd4c3248996c22e86e732b810119]
link AnonymousAuthActivity to Intent--><path d="M180.7694,488.462 C180.7694,488.462 175.09,663.26 233.5,724 C271.37,763.38 424.42,741.08 477.5,754 C482.44,755.2 487.53,756.68 492.56,758.3 " fill="none" id="AnonymousAuthActivity-Intent" style="stroke: #A80036; stroke-width: 1.0;"/><polygon fill="#A80036" points="504.86,762.53,497.6518,755.8187,500.1322,760.9028,495.0482,763.3832,504.86,762.53" style="stroke: #A80036; stroke-width: 1.0;"/><line style="stroke: #A80036; stroke-width: 1.0;" x1="500.1322" x2="492.57" y1="760.9028" y2="758.3"/><polygon fill="#A80036" points="182.3,476.56,177.5674,482.0008,180.7694,488.462,185.502,483.0212,182.3,476.56" style="stroke: #A80036; stroke-width: 1.0;"/><text fill="#000000" font-family="sans-serif" font-size="13" lengthAdjust="spacingAndGlyphs" textLength="73" x="234.5" y="720.0669">resultIntent</text><!--MD5=[c2c52e4b6f54b66cf58294fed9a47324]
reverse link AppCompatActivity to Attendee--><path d="M971.94,331.22 C977.73,245.59 975.56,61.86 857,18 C821.99,5.05 724.01,5.05 689,18 C679.39,21.55 677.02,24.37 671.5,33 C662.84,46.54 654.94,60.85 647.73,75.66 " fill="none" id="AppCompatActivity&lt;-Attendee" style="stroke: #A80036; stroke-width: 1.0;"/><polygon fill="none" points="978.9,332.06,970.3,351.43,964.94,330.93,978.9,332.06" style="stroke: #A80036; stroke-width: 1.0;"/><!--MD5=[8b818d47678f85b0746daeccd448a872]
link Attendee to QRScanner--><path d="M640.3801,686.8988 C640.3801,686.8988 648.7,726.14 651.75,740.5 " fill="none" id="Attendee-QRScanner" style="stroke: #A80036; stroke-width: 1.0;"/><polygon fill="#A80036" points="654.54,753.65,656.5854,744.0159,653.5025,748.7588,648.7595,745.6759,654.54,753.65" style="stroke: #A80036; stroke-width: 1.0;"/><line style="stroke: #A80036; stroke-width: 1.0;" x1="653.5025" x2="651.845" y1="748.7588" y2="740.935"/><polygon fill="#A80036" points="637.89,675.16,635.2221,681.8594,640.3801,686.8988,643.048,680.1994,637.89,675.16" style="stroke: #A80036; stroke-width: 1.0;"/><text fill="#000000" font-family="sans-serif" font-size="13" lengthAdjust="spacingAndGlyphs" textLength="66" x="647.5" y="720.0669">qrScanner</text><!--MD5=[b537018d70011e9587cce6ae462e207f]
link Attendee to ArrayList--><path d="M495.0835,684.0432 C495.0835,684.0432 484.02,694.64 478.5,699 C453.53,718.73 363.08,691.11 335.5,707 C321.8,714.89 311.44,728.71 304.05,741.99 " fill="none" id="Attendee-ArrayList" style="stroke: #A80036; stroke-width: 1.0;"/><polygon fill="#A80036" points="298.1,753.85,305.718,747.6077,300.347,749.3834,298.5714,744.0124,298.1,753.85" style="stroke: #A80036; stroke-width: 1.0;"/><line style="stroke: #A80036; stroke-width: 1.0;" x1="300.347" x2="303.935" y1="749.3834" y2="742.235"/><polygon fill="#A80036" points="503.26,675.26,496.244,676.9261,495.0835,684.0432,502.0995,682.3771,503.26,675.26" style="stroke: #A80036; stroke-width: 1.0;"/><text fill="#000000" font-family="sans-serif" font-size="13" lengthAdjust="spacingAndGlyphs" textLength="83" x="336.5" y="720.0669">testEventList</text><!--MD5=[71e9d7e9823aa6d1f5fd88b2f2ce2a41]
link Attendee to Intent--><path d="M501.008,686.9044 C501.008,686.9044 499.21,700.75 498.5,707 C497.65,714.51 496.06,716.85 498.5,724 C500.83,730.81 504.42,737.43 508.54,743.54 " fill="none" id="Attendee-Intent" style="stroke: #A80036; stroke-width: 1.0;"/><polygon fill="#A80036" points="516.35,753.95,514.15,744.35,513.35,749.95,507.75,749.15,516.35,753.95" style="stroke: #A80036; stroke-width: 1.0;"/><line style="stroke: #A80036; stroke-width: 1.0;" x1="513.35" x2="508.55" y1="749.95" y2="743.55"/><polygon fill="#A80036" points="502.67,675.02,497.8776,680.4082,501.008,686.9044,505.8005,681.5162,502.67,675.02" style="stroke: #A80036; stroke-width: 1.0;"/><text fill="#000000" font-family="sans-serif" font-size="13" lengthAdjust="spacingAndGlyphs" textLength="37" x="499.5" y="720.0669">intent</text><!--MD5=[71e9d7e9823aa6d1f5fd88b2f2ce2a41]
link Attendee to Intent--><path d="M547.3445,687.1135 C547.3445,687.1135 543.95,726.14 542.69,740.5 " fill="none" id="Attendee-Intent-1" style="stroke: #A80036; stroke-width: 1.0;"/><polygon fill="#A80036" points="541.54,753.65,546.3153,745.0363,541.9793,748.6693,538.3462,744.3334,541.54,753.65" style="stroke: #A80036; stroke-width: 1.0;"/><line style="stroke: #A80036; stroke-width: 1.0;" x1="541.9793" x2="542.675" y1="748.6693" y2="740.7"/><polygon fill="#A80036" points="548.4,675.16,543.8878,680.7849,547.3445,687.1135,551.8567,681.4886,548.4,675.16" style="stroke: #A80036; stroke-width: 1.0;"/><text fill="#000000" font-family="sans-serif" font-size="13" lengthAdjust="spacingAndGlyphs" textLength="37" x="545.5" y="720.0669">intent</text><!--MD5=[4b782d1e9c78126bf180945156ce5ed6]
link Attendee to HashMap--><path d="M492.6712,684.4096 C492.6712,684.4096 483.21,694.64 478.5,699 C466.16,710.43 454.28,696.06 441.5,707 C431.29,715.74 424.92,728.8 420.96,741.28 " fill="none" id="Attendee-HashMap" style="stroke: #A80036; stroke-width: 1.0;"/><polygon fill="#A80036" points="417.64,753.88,423.8022,746.1971,418.9146,749.0452,416.0665,744.1577,417.64,753.88" style="stroke: #A80036; stroke-width: 1.0;"/><line style="stroke: #A80036; stroke-width: 1.0;" x1="418.9146" x2="420.96" y1="749.0452" y2="741.31"/><polygon fill="#A80036" points="500.4,675.23,493.4757,677.2435,492.6712,684.4096,499.5955,682.3961,500.4,675.23" style="stroke: #A80036; stroke-width: 1.0;"/><text fill="#000000" font-family="sans-serif" font-size="13" lengthAdjust="spacingAndGlyphs" textLength="45" x="442.5" y="720.0669">update</text><!--MD5=[f45e252114932d0102868d1d0c717edd]
reverse link AppCompatActivity to Organizer--><path d="M873.45,375.5 C868.55,375.5 863.65,375.5 858.75,375.5 " fill="none" id="AppCompatActivity&lt;-Organizer" style="stroke: #A80036; stroke-width: 1.0;"/><polygon fill="none" points="873.59,368.5,893.59,375.5,873.59,382.5,873.59,368.5" style="stroke: #A80036; stroke-width: 1.0;"/><!--MD5=[d94db6e819d6da66e22fbb301ba18056]
link Organizer to EventCreateEdit--><path d="M817.6882,577.6896 C817.6882,577.6896 851.71,662.97 876.5,699 C879.73,703.69 882.82,702.65 886.5,707 C895.37,717.48 903.2,730.29 909.47,742.07 " fill="none" id="Organizer-EventCreateEdit" style="stroke: #A80036; stroke-width: 1.0;"/><polygon fill="#A80036" points="915.42,753.83,914.9244,743.9936,913.162,749.3689,907.7867,747.6064,915.42,753.83" style="stroke: #A80036; stroke-width: 1.0;"/><line style="stroke: #A80036; stroke-width: 1.0;" x1="913.162" x2="909.55" y1="749.3689" y2="742.235"/><polygon fill="#A80036" points="813.85,566.32,811.9792,573.2842,817.6882,577.6896,819.559,570.7254,813.85,566.32" style="stroke: #A80036; stroke-width: 1.0;"/><text fill="#000000" font-family="sans-serif" font-size="13" lengthAdjust="spacingAndGlyphs" textLength="59" x="898.5" y="720.0669">fragment</text><!--MD5=[99a4b8901e3d9ecc4e0bdf9ff02e34c1]
link Organizer to Bundle--><path d="M798.9243,577.5996 C798.9243,577.5996 838.78,668.8 876.5,699 C892.17,711.55 947.67,700.03 966.5,707 C989.56,715.53 1012.11,731 1029.76,745.22 " fill="none" id="Organizer-Bundle" style="stroke: #A80036; stroke-width: 1.0;"/><polygon fill="#A80036" points="1040.07,753.85,1035.7342,745.0069,1036.2352,750.6415,1030.6006,751.1426,1040.07,753.85" style="stroke: #A80036; stroke-width: 1.0;"/><line style="stroke: #A80036; stroke-width: 1.0;" x1="1036.2352" x2="1030.1" y1="750.6415" y2="745.51"/><polygon fill="#A80036" points="795.3,566.16,793.2989,573.0879,798.9243,577.5996,800.9253,570.6717,795.3,566.16" style="stroke: #A80036; stroke-width: 1.0;"/><text fill="#000000" font-family="sans-serif" font-size="13" lengthAdjust="spacingAndGlyphs" textLength="28" x="999.5" y="720.0669">args</text><!--MD5=[42d021018b195b6af48e8350d73bef15]
link Organizer to Intent--><path d="M783.4359,578.2704 C783.4359,578.2704 758.62,684.89 722.5,724 C681.97,767.88 648.18,735.17 591.5,754 C589.8,754.56 588.09,755.16 586.36,755.79 " fill="none" id="Organizer-Intent" style="stroke: #A80036; stroke-width: 1.0;"/><polygon fill="#A80036" points="574.1,760.6,583.9395,761.0296,578.7533,758.7705,581.0124,753.5844,574.1,760.6" style="stroke: #A80036; stroke-width: 1.0;"/><line style="stroke: #A80036; stroke-width: 1.0;" x1="578.7533" x2="586.205" y1="758.7705" y2="755.855"/><polygon fill="#A80036" points="784.9,566.36,780.1979,571.8272,783.4359,578.2704,788.1381,572.8032,784.9,566.36" style="stroke: #A80036; stroke-width: 1.0;"/><text fill="#000000" font-family="sans-serif" font-size="13" lengthAdjust="spacingAndGlyphs" textLength="37" x="734.5" y="720.0669">intent</text><!--MD5=[42d021018b195b6af48e8350d73bef15]
link Organizer to Intent--><path d="M823.1507,578.0178 C823.1507,578.0178 814.45,684.23 780.5,724 C752.89,756.34 632.29,741.96 591.5,754 C589.9,754.47 588.29,754.98 586.67,755.52 " fill="none" id="Organizer-Intent-1" style="stroke: #A80036; stroke-width: 1.0;"/><polygon fill="#A80036" points="574.28,760.15,584.1105,760.7504,578.9644,758.4016,581.3131,753.2554,574.28,760.15" style="stroke: #A80036; stroke-width: 1.0;"/><line style="stroke: #A80036; stroke-width: 1.0;" x1="578.9644" x2="586.46" y1="758.4016" y2="755.6"/><polygon fill="#A80036" points="822.61,566.03,818.8844,572.2041,823.1507,578.0178,826.8763,571.8437,822.61,566.03" style="stroke: #A80036; stroke-width: 1.0;"/><text fill="#000000" font-family="sans-serif" font-size="13" lengthAdjust="spacingAndGlyphs" textLength="37" x="792.5" y="720.0669">intent</text><!--MD5=[429c5030c78bb709347311b4f6b4242a]
reverse link AppCompatActivity to Admin--><path d="M963.79,330.83 C956.33,262.05 934.67,128.2 874.5,33 C869.03,24.34 866.61,21.55 857,18 C819.38,4.08 533.62,4.08 496,18 C406.75,51.02 386.65,164.67 385.64,255.07 " fill="none" id="AppCompatActivity&lt;-Admin" style="stroke: #A80036; stroke-width: 1.0;"/><polygon fill="none" points="970.8,330.55,965.79,351.13,956.87,331.91,970.8,330.55" style="stroke: #A80036; stroke-width: 1.0;"/><!--MD5=[740782a4ef309228889f31cd6b679e96]
@startuml
package com.example.cmput301w24t33.activities {
    class AnonymousAuthActivity {
        TAG
        credential
        mAuth
        resultIntent
        user
        linkAccount()
        onComplete()
        onComplete()
        onCreate()
        onStart()
        signInAnonymously()
        updateUI()
    }
    class Attendee {
        actionBarText
        allEventAdapter
        allEventRecyclerView
        allEventsVisible
        androidId
        checkInButton
        currentUser
        db
        doc
        eventId
        eventList
        eventViewModel
        fragmentManager
        fusedLocationProvider
        intent
        profileButton
        qrScanner
        scanner
        switchRecyclerviewButton
        testEventList
        transaction
        update
        userEventAdapter
        userEventRecyclerView
        userId
        userMode
        userViewModel
        CheckIn()
        HandleScannerResult()
        authenticateUser()
        displayEvents()
        getAndroidId()
        onComplete()
        onCreate()
        onEventClickListener()
        onResume()
        registerUser()
        replaceFragment()
        setAdapter()
        setOnClickListeners()
        setupActionbar()
        switchRecyclerView()
        updateUI()
    }
    class Organizer {
        actionBarText
        args
        attendeeOrganizerActionbar
        color
        createEvent
        eventAdapter
        eventRecyclerView
        eventViewModel
        fragment
        fragmentManager
        intent
        organizedEvents
        profileButton
        transaction
        userId
        userMode
        view
        newInstance()
        onCreate()
        onEventClickListener()
        onResume()
        replaceFragment()
        setAdapter()
        setOnClickListeners()
        setupActionBar()
        updateUI()
    }
    class Admin {
        actionBarText
        backButton
        color
        eventButton
        fragmentManager
        generalActionbar
        imageButton
        profileButton
        transaction
        view
        onCreate()
        onResume()
        replaceFragment()
        setOnClickListeners()
        setupActionBar()
    }
}

Activity <|- AnonymousAuthActivity
AnonymousAuthActivity *- -> Intent : resultIntent
AppCompatActivity <|- Attendee
Attendee *- -> QRScanner : qrScanner
Attendee *- -> ArrayList : testEventList
Attendee *- -> Intent : intent
Attendee *- -> Intent : intent
Attendee *- -> HashMap : update
AppCompatActivity <|- Organizer
Organizer *- -> EventCreateEdit : fragment
Organizer *- -> Bundle : args
Organizer *- -> Intent : intent
Organizer *- -> Intent : intent
AppCompatActivity <|- Admin
@enduml

PlantUML version 1.2020.08(Sun Apr 26 14:08:22 UTC 2020)
(GPL source distribution)
Java Runtime: OpenJDK Runtime Environment
JVM: OpenJDK 64-Bit Server VM
Java Version: 1.8.0_402-heroku-b06
Operating System: Linux
Default Encoding: UTF-8
Language: en
Country: US
--></g></svg>