<?xml version="1.0" encoding="UTF-8" standalone="no"?><svg xmlns="http://www.w3.org/2000/svg" xmlns:xlink="http://www.w3.org/1999/xlink" contentScriptType="application/ecmascript" contentStyleType="text/css" height="334px" preserveAspectRatio="none" style="width:657px;height:334px;" version="1.1" viewBox="0 0 657 334" width="657px" zoomAndPan="magnify"><defs><filter height="300%" id="fpz26582z28a8" width="300%" x="-1" y="-1"><feGaussianBlur result="blurOut" stdDeviation="2.0"/><feColorMatrix in="blurOut" result="blurOut2" type="matrix" values="0 0 0 0 0 0 0 0 0 0 0 0 0 0 0 0 0 0 .4 0"/><feOffset dx="4.0" dy="4.0" in="blurOut2" result="blurOut3"/><feBlend in="SourceGraphic" in2="blurOut3" mode="normal"/></filter></defs><g><!--MD5=[042205625c43f9bed0439a420c4bf46a]
cluster com.example.cmput301w24t33.notifications--><polygon fill="#FFFFFF" filter="url(#fpz26582z28a8)" points="137,69,493,69,500,91.2969,635,91.2969,635,322,137,322,137,69" style="stroke: #000000; stroke-width: 1.5;"/><line style="stroke: #000000; stroke-width: 1.5;" x1="137" x2="500" y1="91.2969" y2="91.2969"/><text fill="#000000" font-family="sans-serif" font-size="14" font-weight="bold" lengthAdjust="spacingAndGlyphs" textLength="350" x="141" y="83.9951">com.example.cmput301w24t33.notifications</text><!--MD5=[2fcb54dfe26e688f4bb106e450a045f2]
class NotificationAdapter--><rect fill="#FEFECE" filter="url(#fpz26582z28a8)" height="201.6563" id="NotificationAdapter" style="stroke: #A80036; stroke-width: 1.5;" width="153" x="465.5" y="104"/><ellipse cx="480.5" cy="120" fill="#ADD1B2" rx="11" ry="11" style="stroke: #A80036; stroke-width: 1.0;"/><path d="M483.4688,125.6406 Q482.8906,125.9375 482.25,126.0781 Q481.6094,126.2344 480.9063,126.2344 Q478.4063,126.2344 477.0781,124.5938 Q475.7656,122.9375 475.7656,119.8125 Q475.7656,116.6875 477.0781,115.0313 Q478.4063,113.375 480.9063,113.375 Q481.6094,113.375 482.25,113.5313 Q482.9063,113.6875 483.4688,113.9844 L483.4688,116.7031 Q482.8438,116.125 482.25,115.8594 Q481.6563,115.5781 481.0313,115.5781 Q479.6875,115.5781 479,116.6563 Q478.3125,117.7188 478.3125,119.8125 Q478.3125,121.9063 479,122.9844 Q479.6875,124.0469 481.0313,124.0469 Q481.6563,124.0469 482.25,123.7813 Q482.8438,123.5 483.4688,122.9219 L483.4688,125.6406 Z "/><text fill="#000000" font-family="sans-serif" font-size="12" lengthAdjust="spacingAndGlyphs" textLength="121" x="494.5" y="124.1543">NotificationAdapter</text><line style="stroke: #A80036; stroke-width: 1.5;" x1="466.5" x2="617.5" y1="136" y2="136"/><text fill="#000000" font-family="sans-serif" font-size="11" lengthAdjust="spacingAndGlyphs" textLength="43" x="471.5" y="150.2104">listener</text><text fill="#000000" font-family="sans-serif" font-size="11" lengthAdjust="spacingAndGlyphs" textLength="62" x="471.5" y="163.0151">notification</text><text fill="#000000" font-family="sans-serif" font-size="11" lengthAdjust="spacingAndGlyphs" textLength="113" x="471.5" y="175.8198">notificationMessage</text><text fill="#000000" font-family="sans-serif" font-size="11" lengthAdjust="spacingAndGlyphs" textLength="126" x="471.5" y="188.6245">notificationTimestamp</text><text fill="#000000" font-family="sans-serif" font-size="11" lengthAdjust="spacingAndGlyphs" textLength="86" x="471.5" y="201.4292">notificationTitle</text><text fill="#000000" font-family="sans-serif" font-size="11" lengthAdjust="spacingAndGlyphs" textLength="69" x="471.5" y="214.2339">notifications</text><text fill="#000000" font-family="sans-serif" font-size="11" lengthAdjust="spacingAndGlyphs" textLength="45" x="471.5" y="227.0386">position</text><text fill="#000000" font-family="sans-serif" font-size="11" lengthAdjust="spacingAndGlyphs" textLength="25" x="471.5" y="239.8433">view</text><line style="stroke: #A80036; stroke-width: 1.5;" x1="466.5" x2="617.5" y1="246.4375" y2="246.4375"/><text fill="#000000" font-family="sans-serif" font-size="11" lengthAdjust="spacingAndGlyphs" textLength="84" x="471.5" y="260.6479">getItemCount()</text><text fill="#000000" font-family="sans-serif" font-size="11" lengthAdjust="spacingAndGlyphs" textLength="110" x="471.5" y="273.4526">onBindViewHolder()</text><text fill="#000000" font-family="sans-serif" font-size="11" lengthAdjust="spacingAndGlyphs" textLength="123" x="471.5" y="286.2573">onCreateViewHolder()</text><text fill="#000000" font-family="sans-serif" font-size="11" lengthAdjust="spacingAndGlyphs" textLength="111" x="471.5" y="299.062">onNotificationClick()</text><!--MD5=[90ddb6c12d06a822c536927a69202fcf]
class ViewHolder--><rect fill="#FEFECE" filter="url(#fpz26582z28a8)" height="99.2188" id="ViewHolder" style="stroke: #A80036; stroke-width: 1.5;" width="138" x="292" y="155.5"/><ellipse cx="323.65" cy="171.5" fill="#ADD1B2" rx="11" ry="11" style="stroke: #A80036; stroke-width: 1.0;"/><path d="M326.6188,177.1406 Q326.0406,177.4375 325.4,177.5781 Q324.7594,177.7344 324.0563,177.7344 Q321.5563,177.7344 320.2281,176.0938 Q318.9156,174.4375 318.9156,171.3125 Q318.9156,168.1875 320.2281,166.5313 Q321.5563,164.875 324.0563,164.875 Q324.7594,164.875 325.4,165.0313 Q326.0563,165.1875 326.6188,165.4844 L326.6188,168.2031 Q325.9938,167.625 325.4,167.3594 Q324.8063,167.0781 324.1813,167.0781 Q322.8375,167.0781 322.15,168.1563 Q321.4625,169.2188 321.4625,171.3125 Q321.4625,173.4063 322.15,174.4844 Q322.8375,175.5469 324.1813,175.5469 Q324.8063,175.5469 325.4,175.2813 Q325.9938,175 326.6188,174.4219 L326.6188,177.1406 Z "/><text fill="#000000" font-family="sans-serif" font-size="12" lengthAdjust="spacingAndGlyphs" textLength="69" x="341.35" y="175.6543">ViewHolder</text><line style="stroke: #A80036; stroke-width: 1.5;" x1="293" x2="429" y1="187.5" y2="187.5"/><text fill="#000000" font-family="sans-serif" font-size="11" lengthAdjust="spacingAndGlyphs" textLength="113" x="298" y="201.7104">notificationMessage</text><text fill="#000000" font-family="sans-serif" font-size="11" lengthAdjust="spacingAndGlyphs" textLength="126" x="298" y="214.5151">notificationTimestamp</text><text fill="#000000" font-family="sans-serif" font-size="11" lengthAdjust="spacingAndGlyphs" textLength="86" x="298" y="227.3198">notificationTitle</text><text fill="#000000" font-family="sans-serif" font-size="11" lengthAdjust="spacingAndGlyphs" textLength="45" x="298" y="240.1245">position</text><line style="stroke: #A80036; stroke-width: 1.5;" x1="293" x2="429" y1="246.7188" y2="246.7188"/><!--MD5=[76b5e19c9337179d2d7ae334371d68c8]
class Notification--><rect fill="#FEFECE" filter="url(#fpz26582z28a8)" height="163.2422" id="Notification" style="stroke: #A80036; stroke-width: 1.5;" width="103" x="153.5" y="123.5"/><ellipse cx="168.5" cy="139.5" fill="#ADD1B2" rx="11" ry="11" style="stroke: #A80036; stroke-width: 1.0;"/><path d="M171.4688,145.1406 Q170.8906,145.4375 170.25,145.5781 Q169.6094,145.7344 168.9063,145.7344 Q166.4063,145.7344 165.0781,144.0938 Q163.7656,142.4375 163.7656,139.3125 Q163.7656,136.1875 165.0781,134.5313 Q166.4063,132.875 168.9063,132.875 Q169.6094,132.875 170.25,133.0313 Q170.9063,133.1875 171.4688,133.4844 L171.4688,136.2031 Q170.8438,135.625 170.25,135.3594 Q169.6563,135.0781 169.0313,135.0781 Q167.6875,135.0781 167,136.1563 Q166.3125,137.2188 166.3125,139.3125 Q166.3125,141.4063 167,142.4844 Q167.6875,143.5469 169.0313,143.5469 Q169.6563,143.5469 170.25,143.2813 Q170.8438,143 171.4688,142.4219 L171.4688,145.1406 Z "/><text fill="#000000" font-family="sans-serif" font-size="12" lengthAdjust="spacingAndGlyphs" textLength="71" x="182.5" y="143.6543">Notification</text><line style="stroke: #A80036; stroke-width: 1.5;" x1="154.5" x2="255.5" y1="155.5" y2="155.5"/><text fill="#000000" font-family="sans-serif" font-size="11" lengthAdjust="spacingAndGlyphs" textLength="53" x="159.5" y="169.7104">message</text><text fill="#000000" font-family="sans-serif" font-size="11" lengthAdjust="spacingAndGlyphs" textLength="61" x="159.5" y="182.5151">timestamp</text><text fill="#000000" font-family="sans-serif" font-size="11" lengthAdjust="spacingAndGlyphs" textLength="21" x="159.5" y="195.3198">title</text><line style="stroke: #A80036; stroke-width: 1.5;" x1="154.5" x2="255.5" y1="201.9141" y2="201.9141"/><text fill="#000000" font-family="sans-serif" font-size="11" lengthAdjust="spacingAndGlyphs" textLength="77" x="159.5" y="216.1245">getMessage()</text><text fill="#000000" font-family="sans-serif" font-size="11" lengthAdjust="spacingAndGlyphs" textLength="90" x="159.5" y="228.9292">getTimestamp()</text><text fill="#000000" font-family="sans-serif" font-size="11" lengthAdjust="spacingAndGlyphs" textLength="50" x="159.5" y="241.7339">getTitle()</text><text fill="#000000" font-family="sans-serif" font-size="11" lengthAdjust="spacingAndGlyphs" textLength="77" x="159.5" y="254.5386">setMessage()</text><text fill="#000000" font-family="sans-serif" font-size="11" lengthAdjust="spacingAndGlyphs" textLength="90" x="159.5" y="267.3433">setTimestamp()</text><text fill="#000000" font-family="sans-serif" font-size="11" lengthAdjust="spacingAndGlyphs" textLength="50" x="159.5" y="280.1479">setTitle()</text><!--MD5=[16bba8ee227509f6403f595c0b289baf]
class RecyclerView--><rect fill="#FEFECE" filter="url(#fpz26582z28a8)" height="48" id="RecyclerView" style="stroke: #A80036; stroke-width: 1.5;" width="112" x="6" y="181"/><ellipse cx="21" cy="197" fill="#ADD1B2" rx="11" ry="11" style="stroke: #A80036; stroke-width: 1.0;"/><path d="M23.9688,202.6406 Q23.3906,202.9375 22.75,203.0781 Q22.1094,203.2344 21.4063,203.2344 Q18.9063,203.2344 17.5781,201.5938 Q16.2656,199.9375 16.2656,196.8125 Q16.2656,193.6875 17.5781,192.0313 Q18.9063,190.375 21.4063,190.375 Q22.1094,190.375 22.75,190.5313 Q23.4063,190.6875 23.9688,190.9844 L23.9688,193.7031 Q23.3438,193.125 22.75,192.8594 Q22.1563,192.5781 21.5313,192.5781 Q20.1875,192.5781 19.5,193.6563 Q18.8125,194.7188 18.8125,196.8125 Q18.8125,198.9063 19.5,199.9844 Q20.1875,201.0469 21.5313,201.0469 Q22.1563,201.0469 22.75,200.7813 Q23.3438,200.5 23.9688,199.9219 L23.9688,202.6406 Z "/><text fill="#000000" font-family="sans-serif" font-size="12" lengthAdjust="spacingAndGlyphs" textLength="80" x="35" y="201.1543">RecyclerView</text><line style="stroke: #A80036; stroke-width: 1.5;" x1="7" x2="117" y1="213" y2="213"/><line style="stroke: #A80036; stroke-width: 1.5;" x1="7" x2="117" y1="221" y2="221"/><!--MD5=[e5a7f657ae43914c714b7d048ab7ef45]
reverse link RecyclerView to NotificationAdapter--><path d="M71.33,161.14 C82.89,119.12 107.15,58.2 154.5,31 C207.68,0.45 376.69,1.57 430.5,31 C460.09,47.18 482.98,74.94 500.11,103.59 " fill="none" id="RecyclerView&lt;-NotificationAdapter" style="stroke: #A80036; stroke-width: 1.0;"/><polygon fill="none" points="78.05,163.11,66.45,180.84,64.46,159.74,78.05,163.11" style="stroke: #A80036; stroke-width: 1.0;"/><!--MD5=[74843e98ea0f1b9ef01e6c45c53d3d6f]
reverse link RecyclerView to ViewHolder--><path d="M71.33,161.14 C82.89,119.12 107.15,58.2 154.5,31 C193.81,8.42 217.05,8.67 256.5,31 C303.11,57.38 331.21,113.78 346.35,155.24 " fill="none" id="RecyclerView&lt;-ViewHolder" style="stroke: #A80036; stroke-width: 1.0;"/><polygon fill="none" points="78.05,163.11,66.45,180.84,64.46,159.74,78.05,163.11" style="stroke: #A80036; stroke-width: 1.0;"/><!--MD5=[41f8d4fc314eb4cf1e22f55354a0e5bd]
@startuml
package com.example.cmput301w24t33.notifications {
    class NotificationAdapter {
        listener
        notification
        notificationMessage
        notificationTimestamp
        notificationTitle
        notifications
        position
        view
        getItemCount()
        onBindViewHolder()
        onCreateViewHolder()
        onNotificationClick()
    }
    
    
    class ViewHolder {
        notificationMessage
        notificationTimestamp
        notificationTitle
        position
    }
    class Notification {
        message
        timestamp
        title
        getMessage()
        getTimestamp()
        getTitle()
        setMessage()
        setTimestamp()
        setTitle()
    }
}

RecyclerView <|- NotificationAdapter
RecyclerView <|- ViewHolder
@enduml

PlantUML version 1.2020.08(Sun Apr 26 14:08:22 UTC 2020)
(GPL source distribution)
Java Runtime: OpenJDK Runtime Environment
JVM: OpenJDK 64-Bit Server VM
Java Version: 1.8.0_402-heroku-b06
Operating System: Linux
Default Encoding: UTF-8
Language: en
Country: US
--></g></svg>