<?xml version="1.0" encoding="UTF-8" standalone="no"?><svg xmlns="http://www.w3.org/2000/svg" xmlns:xlink="http://www.w3.org/1999/xlink" contentScriptType="application/ecmascript" contentStyleType="text/css" height="456px" preserveAspectRatio="none" style="width:867px;height:456px;" version="1.1" viewBox="0 0 867 456" width="867px" zoomAndPan="magnify"><defs><filter height="300%" id="fy6dz4xb0c9ci" width="300%" x="-1" y="-1"><feGaussianBlur result="blurOut" stdDeviation="2.0"/><feColorMatrix in="blurOut" result="blurOut2" type="matrix" values="0 0 0 0 0 0 0 0 0 0 0 0 0 0 0 0 0 0 .4 0"/><feOffset dx="4.0" dy="4.0" in="blurOut2" result="blurOut3"/><feBlend in="SourceGraphic" in2="blurOut3" mode="normal"/></filter></defs><g><!--MD5=[96c33d0ff2a2fb44752338d61e91e7a2]
cluster com.example.cmput301w24t33.qrCode--><polygon fill="#FFFFFF" filter="url(#fy6dz4xb0c9ci)" points="156.5,43,473.5,43,480.5,65.2969,735.5,65.2969,735.5,334,156.5,334,156.5,43" style="stroke: #000000; stroke-width: 1.5;"/><line style="stroke: #000000; stroke-width: 1.5;" x1="156.5" x2="480.5" y1="65.2969" y2="65.2969"/><text fill="#000000" font-family="sans-serif" font-size="14" font-weight="bold" lengthAdjust="spacingAndGlyphs" textLength="311" x="160.5" y="57.9951">com.example.cmput301w24t33.qrCode</text><!--MD5=[2292dacabacf41979c67830137e3d1b3]
class QRScanner--><rect fill="#FEFECE" filter="url(#fy6dz4xb0c9ci)" height="124.8281" id="QRScanner" style="stroke: #A80036; stroke-width: 1.5;" width="101" x="618" y="135.5"/><ellipse cx="633" cy="151.5" fill="#ADD1B2" rx="11" ry="11" style="stroke: #A80036; stroke-width: 1.0;"/><path d="M635.9688,157.1406 Q635.3906,157.4375 634.75,157.5781 Q634.1094,157.7344 633.4063,157.7344 Q630.9063,157.7344 629.5781,156.0938 Q628.2656,154.4375 628.2656,151.3125 Q628.2656,148.1875 629.5781,146.5313 Q630.9063,144.875 633.4063,144.875 Q634.1094,144.875 634.75,145.0313 Q635.4063,145.1875 635.9688,145.4844 L635.9688,148.2031 Q635.3438,147.625 634.75,147.3594 Q634.1563,147.0781 633.5313,147.0781 Q632.1875,147.0781 631.5,148.1563 Q630.8125,149.2188 630.8125,151.3125 Q630.8125,153.4063 631.5,154.4844 Q632.1875,155.5469 633.5313,155.5469 Q634.1563,155.5469 634.75,155.2813 Q635.3438,155 635.9688,154.4219 L635.9688,157.1406 Z "/><text fill="#000000" font-family="sans-serif" font-size="12" lengthAdjust="spacingAndGlyphs" textLength="69" x="647" y="155.6543">QRScanner</text><line style="stroke: #A80036; stroke-width: 1.5;" x1="619" x2="718" y1="167.5" y2="167.5"/><text fill="#000000" font-family="sans-serif" font-size="11" lengthAdjust="spacingAndGlyphs" textLength="46" x="624" y="181.7104">barcode</text><text fill="#000000" font-family="sans-serif" font-size="11" lengthAdjust="spacingAndGlyphs" textLength="46" x="624" y="194.5151">scanner</text><text fill="#000000" font-family="sans-serif" font-size="11" lengthAdjust="spacingAndGlyphs" textLength="29" x="624" y="207.3198">toast</text><line style="stroke: #A80036; stroke-width: 1.5;" x1="619" x2="718" y1="213.9141" y2="213.9141"/><text fill="#000000" font-family="sans-serif" font-size="11" lengthAdjust="spacingAndGlyphs" textLength="73" x="624" y="228.1245">getBarcode()</text><text fill="#000000" font-family="sans-serif" font-size="11" lengthAdjust="spacingAndGlyphs" textLength="80" x="624" y="240.9292">scanQRCode()</text><text fill="#000000" font-family="sans-serif" font-size="11" lengthAdjust="spacingAndGlyphs" textLength="71" x="624" y="253.7339">setQRCode()</text><!--MD5=[d27f29e24e92dee200a42b7c3e2f0094]
class ShareQRFragment--><rect fill="#FEFECE" filter="url(#fy6dz4xb0c9ci)" height="240.0703" id="ShareQRFragment" style="stroke: #A80036; stroke-width: 1.5;" width="148" x="172.5" y="78"/><ellipse cx="188.4" cy="94" fill="#ADD1B2" rx="11" ry="11" style="stroke: #A80036; stroke-width: 1.0;"/><path d="M191.3688,99.6406 Q190.7906,99.9375 190.15,100.0781 Q189.5094,100.2344 188.8063,100.2344 Q186.3063,100.2344 184.9781,98.5938 Q183.6656,96.9375 183.6656,93.8125 Q183.6656,90.6875 184.9781,89.0313 Q186.3063,87.375 188.8063,87.375 Q189.5094,87.375 190.15,87.5313 Q190.8063,87.6875 191.3688,87.9844 L191.3688,90.7031 Q190.7438,90.125 190.15,89.8594 Q189.5563,89.5781 188.9313,89.5781 Q187.5875,89.5781 186.9,90.6563 Q186.2125,91.7188 186.2125,93.8125 Q186.2125,95.9063 186.9,96.9844 Q187.5875,98.0469 188.9313,98.0469 Q189.5563,98.0469 190.15,97.7813 Q190.7438,97.5 191.3688,96.9219 L191.3688,99.6406 Z "/><text fill="#000000" font-family="sans-serif" font-size="12" lengthAdjust="spacingAndGlyphs" textLength="114" x="202.6" y="98.1543">ShareQRFragment</text><line style="stroke: #A80036; stroke-width: 1.5;" x1="173.5" x2="319.5" y1="110" y2="110"/><text fill="#000000" font-family="sans-serif" font-size="11" lengthAdjust="spacingAndGlyphs" textLength="26" x="178.5" y="124.2104">args</text><text fill="#000000" font-family="sans-serif" font-size="11" lengthAdjust="spacingAndGlyphs" textLength="39" x="178.5" y="137.0151">builder</text><text fill="#000000" font-family="sans-serif" font-size="11" lengthAdjust="spacingAndGlyphs" textLength="71" x="178.5" y="149.8198">checkInCode</text><text fill="#000000" font-family="sans-serif" font-size="11" lengthAdjust="spacingAndGlyphs" textLength="79" x="178.5" y="162.6245">downloadPath</text><text fill="#000000" font-family="sans-serif" font-size="11" lengthAdjust="spacingAndGlyphs" textLength="60" x="178.5" y="175.4292">eventCode</text><text fill="#000000" font-family="sans-serif" font-size="11" lengthAdjust="spacingAndGlyphs" textLength="43" x="178.5" y="188.2339">listener</text><text fill="#000000" font-family="sans-serif" font-size="11" lengthAdjust="spacingAndGlyphs" textLength="66" x="178.5" y="201.0386">posterCode</text><text fill="#000000" font-family="sans-serif" font-size="11" lengthAdjust="spacingAndGlyphs" textLength="38" x="178.5" y="213.8433">qrView</text><text fill="#000000" font-family="sans-serif" font-size="11" lengthAdjust="spacingAndGlyphs" textLength="64" x="178.5" y="226.6479">radioGroup</text><text fill="#000000" font-family="sans-serif" font-size="11" lengthAdjust="spacingAndGlyphs" textLength="103" x="178.5" y="239.4526">shareQRFragment</text><text fill="#000000" font-family="sans-serif" font-size="11" lengthAdjust="spacingAndGlyphs" textLength="25" x="178.5" y="252.2573">view</text><line style="stroke: #A80036; stroke-width: 1.5;" x1="173.5" x2="319.5" y1="258.8516" y2="258.8516"/><text fill="#000000" font-family="sans-serif" font-size="11" lengthAdjust="spacingAndGlyphs" textLength="136" x="178.5" y="273.062">ShareSelectedQRCode()</text><text fill="#000000" font-family="sans-serif" font-size="11" lengthAdjust="spacingAndGlyphs" textLength="79" x="178.5" y="285.8667">newInstance()</text><text fill="#000000" font-family="sans-serif" font-size="11" lengthAdjust="spacingAndGlyphs" textLength="57" x="178.5" y="298.6714">onAttach()</text><text fill="#000000" font-family="sans-serif" font-size="11" lengthAdjust="spacingAndGlyphs" textLength="95" x="178.5" y="311.4761">onCreateDialog()</text><!--MD5=[506621ed787cd332d48b035cccfe5c39]
class QRCode--><rect fill="#FEFECE" filter="url(#fy6dz4xb0c9ci)" height="176.0469" id="QRCode" style="stroke: #A80036; stroke-width: 1.5;" width="81" x="502" y="110"/><ellipse cx="517" cy="126" fill="#ADD1B2" rx="11" ry="11" style="stroke: #A80036; stroke-width: 1.0;"/><path d="M519.9688,131.6406 Q519.3906,131.9375 518.75,132.0781 Q518.1094,132.2344 517.4063,132.2344 Q514.9063,132.2344 513.5781,130.5938 Q512.2656,128.9375 512.2656,125.8125 Q512.2656,122.6875 513.5781,121.0313 Q514.9063,119.375 517.4063,119.375 Q518.1094,119.375 518.75,119.5313 Q519.4063,119.6875 519.9688,119.9844 L519.9688,122.7031 Q519.3438,122.125 518.75,121.8594 Q518.1563,121.5781 517.5313,121.5781 Q516.1875,121.5781 515.5,122.6563 Q514.8125,123.7188 514.8125,125.8125 Q514.8125,127.9063 515.5,128.9844 Q516.1875,130.0469 517.5313,130.0469 Q518.1563,130.0469 518.75,129.7813 Q519.3438,129.5 519.9688,128.9219 L519.9688,131.6406 Z "/><text fill="#000000" font-family="sans-serif" font-size="12" lengthAdjust="spacingAndGlyphs" textLength="49" x="531" y="130.1543">QRCode</text><line style="stroke: #A80036; stroke-width: 1.5;" x1="503" x2="582" y1="142" y2="142"/><text fill="#000000" font-family="sans-serif" font-size="11" lengthAdjust="spacingAndGlyphs" textLength="42" x="508" y="156.2104">HEIGHT</text><text fill="#000000" font-family="sans-serif" font-size="11" lengthAdjust="spacingAndGlyphs" textLength="35" x="508" y="169.0151">WIDTH</text><text fill="#000000" font-family="sans-serif" font-size="11" lengthAdjust="spacingAndGlyphs" textLength="48" x="508" y="181.8198">bitMatrix</text><text fill="#000000" font-family="sans-serif" font-size="11" lengthAdjust="spacingAndGlyphs" textLength="25" x="508" y="194.6245">bmp</text><text fill="#000000" font-family="sans-serif" font-size="11" lengthAdjust="spacingAndGlyphs" textLength="41" x="508" y="207.4292">qrCode</text><text fill="#000000" font-family="sans-serif" font-size="11" lengthAdjust="spacingAndGlyphs" textLength="33" x="508" y="220.2339">writer</text><text fill="#000000" font-family="sans-serif" font-size="11" lengthAdjust="spacingAndGlyphs" textLength="6" x="508" y="233.0386">x</text><text fill="#000000" font-family="sans-serif" font-size="11" lengthAdjust="spacingAndGlyphs" textLength="6" x="508" y="245.8433">y</text><line style="stroke: #A80036; stroke-width: 1.5;" x1="503" x2="582" y1="252.4375" y2="252.4375"/><text fill="#000000" font-family="sans-serif" font-size="11" lengthAdjust="spacingAndGlyphs" textLength="66" x="508" y="266.6479">getBitmap()</text><text fill="#000000" font-family="sans-serif" font-size="11" lengthAdjust="spacingAndGlyphs" textLength="69" x="508" y="279.4526">getQrCode()</text><!--MD5=[a3c3077807cf1fbb449737e69e8e60cb]
class Toast--><rect fill="#FEFECE" filter="url(#fy6dz4xb0c9ci)" height="48" id="Toast" style="stroke: #A80036; stroke-width: 1.5;" width="67" x="637" y="397"/><ellipse cx="652" cy="413" fill="#ADD1B2" rx="11" ry="11" style="stroke: #A80036; stroke-width: 1.0;"/><path d="M654.9688,418.6406 Q654.3906,418.9375 653.75,419.0781 Q653.1094,419.2344 652.4063,419.2344 Q649.9063,419.2344 648.5781,417.5938 Q647.2656,415.9375 647.2656,412.8125 Q647.2656,409.6875 648.5781,408.0313 Q649.9063,406.375 652.4063,406.375 Q653.1094,406.375 653.75,406.5313 Q654.4063,406.6875 654.9688,406.9844 L654.9688,409.7031 Q654.3438,409.125 653.75,408.8594 Q653.1563,408.5781 652.5313,408.5781 Q651.1875,408.5781 650.5,409.6563 Q649.8125,410.7188 649.8125,412.8125 Q649.8125,414.9063 650.5,415.9844 Q651.1875,417.0469 652.5313,417.0469 Q653.1563,417.0469 653.75,416.7813 Q654.3438,416.5 654.9688,415.9219 L654.9688,418.6406 Z "/><text fill="#000000" font-family="sans-serif" font-size="12" lengthAdjust="spacingAndGlyphs" textLength="35" x="666" y="417.1543">Toast</text><line style="stroke: #A80036; stroke-width: 1.5;" x1="638" x2="703" y1="429" y2="429"/><line style="stroke: #A80036; stroke-width: 1.5;" x1="638" x2="703" y1="437" y2="437"/><!--MD5=[86795f8d028bc031dbd2b4a68f86d2aa]
class DialogFragment--><rect fill="#FEFECE" filter="url(#fy6dz4xb0c9ci)" height="48" id="DialogFragment" style="stroke: #A80036; stroke-width: 1.5;" width="131" x="6" y="174"/><ellipse cx="21" cy="190" fill="#ADD1B2" rx="11" ry="11" style="stroke: #A80036; stroke-width: 1.0;"/><path d="M23.9688,195.6406 Q23.3906,195.9375 22.75,196.0781 Q22.1094,196.2344 21.4063,196.2344 Q18.9063,196.2344 17.5781,194.5938 Q16.2656,192.9375 16.2656,189.8125 Q16.2656,186.6875 17.5781,185.0313 Q18.9063,183.375 21.4063,183.375 Q22.1094,183.375 22.75,183.5313 Q23.4063,183.6875 23.9688,183.9844 L23.9688,186.7031 Q23.3438,186.125 22.75,185.8594 Q22.1563,185.5781 21.5313,185.5781 Q20.1875,185.5781 19.5,186.6563 Q18.8125,187.7188 18.8125,189.8125 Q18.8125,191.9063 19.5,192.9844 Q20.1875,194.0469 21.5313,194.0469 Q22.1563,194.0469 22.75,193.7813 Q23.3438,193.5 23.9688,192.9219 L23.9688,195.6406 Z "/><text fill="#000000" font-family="sans-serif" font-size="12" lengthAdjust="spacingAndGlyphs" textLength="99" x="35" y="194.1543">DialogFragment</text><line style="stroke: #A80036; stroke-width: 1.5;" x1="7" x2="136" y1="206" y2="206"/><line style="stroke: #A80036; stroke-width: 1.5;" x1="7" x2="136" y1="214" y2="214"/><!--MD5=[a508f0eadb7244c23539cc24b4acabcf]
class AlertDialog--><rect fill="#FEFECE" filter="url(#fy6dz4xb0c9ci)" height="48" id="AlertDialog" style="stroke: #A80036; stroke-width: 1.5;" width="100" x="108.5" y="397"/><ellipse cx="123.5" cy="413" fill="#ADD1B2" rx="11" ry="11" style="stroke: #A80036; stroke-width: 1.0;"/><path d="M126.4688,418.6406 Q125.8906,418.9375 125.25,419.0781 Q124.6094,419.2344 123.9063,419.2344 Q121.4063,419.2344 120.0781,417.5938 Q118.7656,415.9375 118.7656,412.8125 Q118.7656,409.6875 120.0781,408.0313 Q121.4063,406.375 123.9063,406.375 Q124.6094,406.375 125.25,406.5313 Q125.9063,406.6875 126.4688,406.9844 L126.4688,409.7031 Q125.8438,409.125 125.25,408.8594 Q124.6563,408.5781 124.0313,408.5781 Q122.6875,408.5781 122,409.6563 Q121.3125,410.7188 121.3125,412.8125 Q121.3125,414.9063 122,415.9844 Q122.6875,417.0469 124.0313,417.0469 Q124.6563,417.0469 125.25,416.7813 Q125.8438,416.5 126.4688,415.9219 L126.4688,418.6406 Z "/><text fill="#000000" font-family="sans-serif" font-size="12" lengthAdjust="spacingAndGlyphs" textLength="68" x="137.5" y="417.1543">AlertDialog</text><line style="stroke: #A80036; stroke-width: 1.5;" x1="109.5" x2="207.5" y1="429" y2="429"/><line style="stroke: #A80036; stroke-width: 1.5;" x1="109.5" x2="207.5" y1="437" y2="437"/><!--MD5=[536e464d8b1e54faa737ee1f4ae6355d]
class Bundle--><rect fill="#FEFECE" filter="url(#fy6dz4xb0c9ci)" height="48" id="Bundle" style="stroke: #A80036; stroke-width: 1.5;" width="75" x="244" y="397"/><ellipse cx="259" cy="413" fill="#ADD1B2" rx="11" ry="11" style="stroke: #A80036; stroke-width: 1.0;"/><path d="M261.9688,418.6406 Q261.3906,418.9375 260.75,419.0781 Q260.1094,419.2344 259.4063,419.2344 Q256.9063,419.2344 255.5781,417.5938 Q254.2656,415.9375 254.2656,412.8125 Q254.2656,409.6875 255.5781,408.0313 Q256.9063,406.375 259.4063,406.375 Q260.1094,406.375 260.75,406.5313 Q261.4063,406.6875 261.9688,406.9844 L261.9688,409.7031 Q261.3438,409.125 260.75,408.8594 Q260.1563,408.5781 259.5313,408.5781 Q258.1875,408.5781 257.5,409.6563 Q256.8125,410.7188 256.8125,412.8125 Q256.8125,414.9063 257.5,415.9844 Q258.1875,417.0469 259.5313,417.0469 Q260.1563,417.0469 260.75,416.7813 Q261.3438,416.5 261.9688,415.9219 L261.9688,418.6406 Z "/><text fill="#000000" font-family="sans-serif" font-size="12" lengthAdjust="spacingAndGlyphs" textLength="43" x="273" y="417.1543">Bundle</text><line style="stroke: #A80036; stroke-width: 1.5;" x1="245" x2="318" y1="429" y2="429"/><line style="stroke: #A80036; stroke-width: 1.5;" x1="245" x2="318" y1="437" y2="437"/><!--MD5=[cc3de0a176daa3c4ec875deafdf5ddd1]
class Serializable--><rect fill="#FEFECE" filter="url(#fy6dz4xb0c9ci)" height="48" id="Serializable" style="stroke: #A80036; stroke-width: 1.5;" width="102" x="754.5" y="174"/><ellipse cx="769.5" cy="190" fill="#ADD1B2" rx="11" ry="11" style="stroke: #A80036; stroke-width: 1.0;"/><path d="M772.4688,195.6406 Q771.8906,195.9375 771.25,196.0781 Q770.6094,196.2344 769.9063,196.2344 Q767.4063,196.2344 766.0781,194.5938 Q764.7656,192.9375 764.7656,189.8125 Q764.7656,186.6875 766.0781,185.0313 Q767.4063,183.375 769.9063,183.375 Q770.6094,183.375 771.25,183.5313 Q771.9063,183.6875 772.4688,183.9844 L772.4688,186.7031 Q771.8438,186.125 771.25,185.8594 Q770.6563,185.5781 770.0313,185.5781 Q768.6875,185.5781 768,186.6563 Q767.3125,187.7188 767.3125,189.8125 Q767.3125,191.9063 768,192.9844 Q768.6875,194.0469 770.0313,194.0469 Q770.6563,194.0469 771.25,193.7813 Q771.8438,193.5 772.4688,192.9219 L772.4688,195.6406 Z "/><text fill="#000000" font-family="sans-serif" font-size="12" lengthAdjust="spacingAndGlyphs" textLength="70" x="783.5" y="194.1543">Serializable</text><line style="stroke: #A80036; stroke-width: 1.5;" x1="755.5" x2="855.5" y1="206" y2="206"/><line style="stroke: #A80036; stroke-width: 1.5;" x1="755.5" x2="855.5" y1="214" y2="214"/><!--MD5=[90ee30c066ebb39b09010d6532bfd155]
class com--><rect fill="#FEFECE" filter="url(#fy6dz4xb0c9ci)" height="48" id="com" style="stroke: #A80036; stroke-width: 1.5;" width="58" x="390.5" y="397"/><ellipse cx="405.5" cy="413" fill="#ADD1B2" rx="11" ry="11" style="stroke: #A80036; stroke-width: 1.0;"/><path d="M408.4688,418.6406 Q407.8906,418.9375 407.25,419.0781 Q406.6094,419.2344 405.9063,419.2344 Q403.4063,419.2344 402.0781,417.5938 Q400.7656,415.9375 400.7656,412.8125 Q400.7656,409.6875 402.0781,408.0313 Q403.4063,406.375 405.9063,406.375 Q406.6094,406.375 407.25,406.5313 Q407.9063,406.6875 408.4688,406.9844 L408.4688,409.7031 Q407.8438,409.125 407.25,408.8594 Q406.6563,408.5781 406.0313,408.5781 Q404.6875,408.5781 404,409.6563 Q403.3125,410.7188 403.3125,412.8125 Q403.3125,414.9063 404,415.9844 Q404.6875,417.0469 406.0313,417.0469 Q406.6563,417.0469 407.25,416.7813 Q407.8438,416.5 408.4688,415.9219 L408.4688,418.6406 Z "/><text fill="#000000" font-family="sans-serif" font-size="12" lengthAdjust="spacingAndGlyphs" textLength="26" x="419.5" y="417.1543">com</text><line style="stroke: #A80036; stroke-width: 1.5;" x1="391.5" x2="447.5" y1="429" y2="429"/><line style="stroke: #A80036; stroke-width: 1.5;" x1="391.5" x2="447.5" y1="437" y2="437"/><!--MD5=[ca00c728acfb3281e63cd53ecd5d0eb2]
class QRCodeWriter--><rect fill="#FEFECE" filter="url(#fy6dz4xb0c9ci)" height="48" id="QRCodeWriter" style="stroke: #A80036; stroke-width: 1.5;" width="118" x="483.5" y="397"/><ellipse cx="498.5" cy="413" fill="#ADD1B2" rx="11" ry="11" style="stroke: #A80036; stroke-width: 1.0;"/><path d="M501.4688,418.6406 Q500.8906,418.9375 500.25,419.0781 Q499.6094,419.2344 498.9063,419.2344 Q496.4063,419.2344 495.0781,417.5938 Q493.7656,415.9375 493.7656,412.8125 Q493.7656,409.6875 495.0781,408.0313 Q496.4063,406.375 498.9063,406.375 Q499.6094,406.375 500.25,406.5313 Q500.9063,406.6875 501.4688,406.9844 L501.4688,409.7031 Q500.8438,409.125 500.25,408.8594 Q499.6563,408.5781 499.0313,408.5781 Q497.6875,408.5781 497,409.6563 Q496.3125,410.7188 496.3125,412.8125 Q496.3125,414.9063 497,415.9844 Q497.6875,417.0469 499.0313,417.0469 Q499.6563,417.0469 500.25,416.7813 Q500.8438,416.5 501.4688,415.9219 L501.4688,418.6406 Z "/><text fill="#000000" font-family="sans-serif" font-size="12" lengthAdjust="spacingAndGlyphs" textLength="86" x="512.5" y="417.1543">QRCodeWriter</text><line style="stroke: #A80036; stroke-width: 1.5;" x1="484.5" x2="600.5" y1="429" y2="429"/><line style="stroke: #A80036; stroke-width: 1.5;" x1="484.5" x2="600.5" y1="437" y2="437"/><!--MD5=[e0539c69e33e70f989323cdc0ba4d495]
link QRScanner to Toast--><path d="M669.1656,272.5595 C669.1656,272.5595 669.9,353.87 670.17,383.66 " fill="none" id="QRScanner-Toast" style="stroke: #A80036; stroke-width: 1.0;"/><polygon fill="#A80036" points="670.29,396.74,674.2107,387.7052,670.246,391.7402,666.211,387.7755,670.29,396.74" style="stroke: #A80036; stroke-width: 1.0;"/><line style="stroke: #A80036; stroke-width: 1.0;" x1="670.246" x2="670.17" y1="391.7402" y2="383.74"/><polygon fill="#A80036" points="669.06,260.56,665.113,266.595,669.1656,272.5595,673.1126,266.5246,669.06,260.56" style="stroke: #A80036; stroke-width: 1.0;"/><text fill="#000000" font-family="sans-serif" font-size="13" lengthAdjust="spacingAndGlyphs" textLength="33" x="670.5" y="363.0669">toast</text><!--MD5=[9e4c336be2fbe0890d5748c6dbe28608]
reverse link DialogFragment to ShareQRFragment--><path d="M157.38,198 C162.31,198 167.23,198 172.16,198 " fill="none" id="DialogFragment&lt;-ShareQRFragment" style="stroke: #A80036; stroke-width: 1.0;"/><polygon fill="none" points="157.13,205,137.12,198,157.12,191,157.13,205" style="stroke: #A80036; stroke-width: 1.0;"/><!--MD5=[8a29f1d5f19b73bc59c9700b314a506f]
link ShareQRFragment to AlertDialog--><path d="M194.5861,329.3808 C194.5861,329.3808 178.8,369.01 172.73,384.25 " fill="none" id="ShareQRFragment-AlertDialog" style="stroke: #A80036; stroke-width: 1.0;"/><polygon fill="#A80036" points="167.79,396.66,174.8394,389.7821,169.6422,392.0157,167.4086,386.8185,167.79,396.66" style="stroke: #A80036; stroke-width: 1.0;"/><line style="stroke: #A80036; stroke-width: 1.0;" x1="169.6422" x2="172.605" y1="392.0157" y2="384.585"/><polygon fill="#A80036" points="199.02,318.23,193.0861,322.3274,194.5861,329.3808,200.52,325.2834,199.02,318.23" style="stroke: #A80036; stroke-width: 1.0;"/><text fill="#000000" font-family="sans-serif" font-size="13" lengthAdjust="spacingAndGlyphs" textLength="43" x="185.5" y="363.0669">builder</text><!--MD5=[1363ea1edebeee2f0ce11e02e3b9e550]
link ShareQRFragment to ShareQRFragment--><path d="M332.4139,170.5071 C332.4139,170.5071 355.5,184.06 355.5,198 C355.5,211.94 346.68,221.02 333.65,225.24 " fill="none" id="ShareQRFragment-ShareQRFragment" style="stroke: #A80036; stroke-width: 1.0;"/><polygon fill="#A80036" points="320.63,227.76,330.2236,229.9876,325.54,226.8154,328.7122,222.1317,320.63,227.76" style="stroke: #A80036; stroke-width: 1.0;"/><line style="stroke: #A80036; stroke-width: 1.0;" x1="325.54" x2="333.39" y1="226.8154" y2="225.29"/><polygon fill="#A80036" points="320.63,168.24,325.7662,173.3015,332.4139,170.5071,327.2777,165.4456,320.63,168.24" style="stroke: #A80036; stroke-width: 1.0;"/><text fill="#000000" font-family="sans-serif" font-size="13" lengthAdjust="spacingAndGlyphs" textLength="116" x="361.5" y="202.5669">shareQRFragment</text><!--MD5=[0410d3d66bbabc1afb1b0e1547659701]
link ShareQRFragment to Bundle--><path d="M267.2522,330.083 C267.2522,330.083 273.35,368.54 275.71,383.46 " fill="none" id="ShareQRFragment-Bundle" style="stroke: #A80036; stroke-width: 1.0;"/><polygon fill="#A80036" points="277.8,396.66,280.3452,387.1457,277.0191,391.7214,272.4434,388.3952,277.8,396.66" style="stroke: #A80036; stroke-width: 1.0;"/><line style="stroke: #A80036; stroke-width: 1.0;" x1="277.0191" x2="275.77" y1="391.7214" y2="383.82"/><polygon fill="#A80036" points="265.38,318.23,262.3651,324.7806,267.2522,330.083,270.2671,323.5324,265.38,318.23" style="stroke: #A80036; stroke-width: 1.0;"/><text fill="#000000" font-family="sans-serif" font-size="13" lengthAdjust="spacingAndGlyphs" textLength="28" x="273.5" y="363.0669">args</text><!--MD5=[3cd717d8f8dca5616e5703ef8100f012]
reverse link Serializable to QRCode--><path d="M792.82,154.35 C781.41,119.8 762.31,71.48 735.5,35 C729.43,26.75 727.61,23.55 718,20 C676.32,4.58 659.68,4.58 618,20 C581.17,33.63 562.23,71.98 552.53,109.61 " fill="none" id="Serializable&lt;-QRCode" style="stroke: #A80036; stroke-width: 1.0;"/><polygon fill="none" points="799.63,152.67,798.92,173.84,786.27,156.85,799.63,152.67" style="stroke: #A80036; stroke-width: 1.0;"/><!--MD5=[b1c0c4f9252f017b3c53a6ab666918f4]
link QRCode to com--><path d="M507.3969,297.1599 C507.3969,297.1599 492.71,328.31 484.5,342 C475.06,357.75 462.54,373.59 451.01,386.85 " fill="none" id="QRCode-com" style="stroke: #A80036; stroke-width: 1.0;"/><polygon fill="#A80036" points="442.06,396.87,451.0371,392.8188,445.3893,393.1396,445.0685,387.4919,442.06,396.87" style="stroke: #A80036; stroke-width: 1.0;"/><line style="stroke: #A80036; stroke-width: 1.0;" x1="445.3893" x2="450.715" y1="393.1396" y2="387.18"/><polygon fill="#A80036" points="512.17,286.15,506.1135,290.0639,507.3969,297.1599,513.4534,293.246,512.17,286.15" style="stroke: #A80036; stroke-width: 1.0;"/><text fill="#000000" font-family="sans-serif" font-size="13" lengthAdjust="spacingAndGlyphs" textLength="46" x="479.5" y="363.0669">qrCode</text><!--MD5=[1b63268107a41a5b1bc9ab1e5fbd13b1]
link QRCode to QRCodeWriter--><path d="M542.5,298.03 C542.5,298.03 542.5,360.48 542.5,383.57 " fill="none" id="QRCode-QRCodeWriter" style="stroke: #A80036; stroke-width: 1.0;"/><polygon fill="#A80036" points="542.5,396.84,546.5,387.84,542.5,391.84,538.5,387.84,542.5,396.84" style="stroke: #A80036; stroke-width: 1.0;"/><line style="stroke: #A80036; stroke-width: 1.0;" x1="542.5" x2="542.5" y1="391.84" y2="383.84"/><polygon fill="#A80036" points="542.5,286.03,538.5,292.03,542.5,298.03,546.5,292.03,542.5,286.03" style="stroke: #A80036; stroke-width: 1.0;"/><text fill="#000000" font-family="sans-serif" font-size="13" lengthAdjust="spacingAndGlyphs" textLength="35" x="543.5" y="363.0669">writer</text><!--MD5=[2a5f8aa933b8c01f17ddb07b58518c75]
@startuml
package com.example.cmput301w24t33.qrCode {
    class QRScanner {
        barcode
        scanner
        toast
        getBarcode()
        scanQRCode()
        setQRCode()
    }
    class ShareQRFragment {
        args
        builder
        checkInCode
        downloadPath
        eventCode
        listener
        posterCode
        qrView
        radioGroup
        shareQRFragment
        view
        ShareSelectedQRCode()
        newInstance()
        onAttach()
        onCreateDialog()
    }
    class QRCode {
        HEIGHT
        WIDTH
        bitMatrix
        bmp
        qrCode
        writer
        x
        y
        getBitmap()
        getQrCode()
    }
}

QRScanner *- -> Toast : toast
DialogFragment <|- ShareQRFragment
ShareQRFragment *- -> AlertDialog : builder
ShareQRFragment *- -> ShareQRFragment : shareQRFragment
ShareQRFragment *- -> Bundle : args
Serializable <|- QRCode
QRCode *- -> com : qrCode
QRCode *- -> QRCodeWriter : writer
@enduml

PlantUML version 1.2020.08(Sun Apr 26 14:08:22 UTC 2020)
(GPL source distribution)
Java Runtime: OpenJDK Runtime Environment
JVM: OpenJDK 64-Bit Server VM
Java Version: 1.8.0_402-heroku-b06
Operating System: Linux
Default Encoding: UTF-8
Language: en
Country: US
--></g></svg>