<?xml version="1.0" encoding="UTF-8" standalone="no"?><svg xmlns="http://www.w3.org/2000/svg" xmlns:xlink="http://www.w3.org/1999/xlink" contentScriptType="application/ecmascript" contentStyleType="text/css" height="889px" preserveAspectRatio="none" style="width:1628px;height:889px;" version="1.1" viewBox="0 0 1628 889" width="1628px" zoomAndPan="magnify"><defs><filter height="300%" id="f17flfaoobgebz" width="300%" x="-1" y="-1"><feGaussianBlur result="blurOut" stdDeviation="2.0"/><feColorMatrix in="blurOut" result="blurOut2" type="matrix" values="0 0 0 0 0 0 0 0 0 0 0 0 0 0 0 0 0 0 .4 0"/><feOffset dx="4.0" dy="4.0" in="blurOut2" result="blurOut3"/><feBlend in="SourceGraphic" in2="blurOut3" mode="normal"/></filter></defs><g><!--MD5=[5567456848d7f544a6c4c734b2645a3d]
cluster com.example.cmput301w24t33.users--><polygon fill="#FFFFFF" filter="url(#f17flfaoobgebz)" points="117,44,421,44,428,66.2969,1190,66.2969,1190,767,117,767,117,44" style="stroke: #000000; stroke-width: 1.5;"/><line style="stroke: #000000; stroke-width: 1.5;" x1="117" x2="428" y1="66.2969" y2="66.2969"/><text fill="#000000" font-family="sans-serif" font-size="14" font-weight="bold" lengthAdjust="spacingAndGlyphs" textLength="298" x="121" y="58.9951">com.example.cmput301w24t33.users</text><!--MD5=[7b57f7066b803747d2119f99dd1555d4]
class Profile--><rect fill="#FEFECE" filter="url(#f17flfaoobgebz)" height="316.8984" id="Profile" style="stroke: #A80036; stroke-width: 1.5;" width="131" x="777.5" y="79"/><ellipse cx="819.5" cy="95" fill="#ADD1B2" rx="11" ry="11" style="stroke: #A80036; stroke-width: 1.0;"/><path d="M822.4688,100.6406 Q821.8906,100.9375 821.25,101.0781 Q820.6094,101.2344 819.9063,101.2344 Q817.4063,101.2344 816.0781,99.5938 Q814.7656,97.9375 814.7656,94.8125 Q814.7656,91.6875 816.0781,90.0313 Q817.4063,88.375 819.9063,88.375 Q820.6094,88.375 821.25,88.5313 Q821.9063,88.6875 822.4688,88.9844 L822.4688,91.7031 Q821.8438,91.125 821.25,90.8594 Q820.6563,90.5781 820.0313,90.5781 Q818.6875,90.5781 818,91.6563 Q817.3125,92.7188 817.3125,94.8125 Q817.3125,96.9063 818,97.9844 Q818.6875,99.0469 820.0313,99.0469 Q820.6563,99.0469 821.25,98.7813 Q821.8438,98.5 822.4688,97.9219 L822.4688,100.6406 Z "/><text fill="#000000" font-family="sans-serif" font-size="12" lengthAdjust="spacingAndGlyphs" textLength="39" x="839.5" y="99.1543">Profile</text><line style="stroke: #A80036; stroke-width: 1.5;" x1="778.5" x2="907.5" y1="111" y2="111"/><text fill="#000000" font-family="sans-serif" font-size="11" lengthAdjust="spacingAndGlyphs" textLength="78" x="783.5" y="125.2104">actionBarText</text><text fill="#000000" font-family="sans-serif" font-size="11" lengthAdjust="spacingAndGlyphs" textLength="97" x="783.5" y="138.0151">addEmailEditText</text><text fill="#000000" font-family="sans-serif" font-size="11" lengthAdjust="spacingAndGlyphs" textLength="104" x="783.5" y="150.8198">addFnameEditText</text><text fill="#000000" font-family="sans-serif" font-size="11" lengthAdjust="spacingAndGlyphs" textLength="104" x="783.5" y="163.6245">addLnameEditText</text><text fill="#000000" font-family="sans-serif" font-size="11" lengthAdjust="spacingAndGlyphs" textLength="63" x="783.5" y="176.4292">backButton</text><text fill="#000000" font-family="sans-serif" font-size="11" lengthAdjust="spacingAndGlyphs" textLength="73" x="783.5" y="189.2339">cancelButton</text><text fill="#000000" font-family="sans-serif" font-size="11" lengthAdjust="spacingAndGlyphs" textLength="31" x="783.5" y="202.0386">email</text><text fill="#000000" font-family="sans-serif" font-size="11" lengthAdjust="spacingAndGlyphs" textLength="37" x="783.5" y="214.8433">fName</text><text fill="#000000" font-family="sans-serif" font-size="11" lengthAdjust="spacingAndGlyphs" textLength="36" x="783.5" y="227.6479">lName</text><text fill="#000000" font-family="sans-serif" font-size="11" lengthAdjust="spacingAndGlyphs" textLength="50" x="783.5" y="240.4526">newUser</text><text fill="#000000" font-family="sans-serif" font-size="11" lengthAdjust="spacingAndGlyphs" textLength="71" x="783.5" y="253.2573">profileImage</text><text fill="#000000" font-family="sans-serif" font-size="11" lengthAdjust="spacingAndGlyphs" textLength="64" x="783.5" y="266.062">saveButton</text><text fill="#000000" font-family="sans-serif" font-size="11" lengthAdjust="spacingAndGlyphs" textLength="36" x="783.5" y="278.8667">userId</text><text fill="#000000" font-family="sans-serif" font-size="11" lengthAdjust="spacingAndGlyphs" textLength="54" x="783.5" y="291.6714">userRepo</text><text fill="#000000" font-family="sans-serif" font-size="11" lengthAdjust="spacingAndGlyphs" textLength="85" x="783.5" y="304.4761">userViewModel</text><text fill="#000000" font-family="sans-serif" font-size="11" lengthAdjust="spacingAndGlyphs" textLength="25" x="783.5" y="317.2808">view</text><line style="stroke: #A80036; stroke-width: 1.5;" x1="778.5" x2="907.5" y1="323.875" y2="323.875"/><text fill="#000000" font-family="sans-serif" font-size="11" lengthAdjust="spacingAndGlyphs" textLength="79" x="783.5" y="338.0854">getAndroidId()</text><text fill="#000000" font-family="sans-serif" font-size="11" lengthAdjust="spacingAndGlyphs" textLength="86" x="783.5" y="350.8901">onCreateView()</text><text fill="#000000" font-family="sans-serif" font-size="11" lengthAdjust="spacingAndGlyphs" textLength="71" x="783.5" y="363.6948">saveProfile()</text><text fill="#000000" font-family="sans-serif" font-size="11" lengthAdjust="spacingAndGlyphs" textLength="94" x="783.5" y="376.4995">setupActionBar()</text><text fill="#000000" font-family="sans-serif" font-size="11" lengthAdjust="spacingAndGlyphs" textLength="119" x="783.5" y="389.3042">setupClickListeners()</text><!--MD5=[3fd616f346a44cd59a91eb10b19e157c]
class User--><rect fill="#FEFECE" filter="url(#f17flfaoobgebz)" height="278.4844" id="User" style="stroke: #A80036; stroke-width: 1.5;" width="103" x="939.5" y="473"/><ellipse cx="973.4" cy="489" fill="#ADD1B2" rx="11" ry="11" style="stroke: #A80036; stroke-width: 1.0;"/><path d="M976.3688,494.6406 Q975.7906,494.9375 975.15,495.0781 Q974.5094,495.2344 973.8063,495.2344 Q971.3063,495.2344 969.9781,493.5938 Q968.6656,491.9375 968.6656,488.8125 Q968.6656,485.6875 969.9781,484.0313 Q971.3063,482.375 973.8063,482.375 Q974.5094,482.375 975.15,482.5313 Q975.8063,482.6875 976.3688,482.9844 L976.3688,485.7031 Q975.7438,485.125 975.15,484.8594 Q974.5563,484.5781 973.9313,484.5781 Q972.5875,484.5781 971.9,485.6563 Q971.2125,486.7188 971.2125,488.8125 Q971.2125,490.9063 971.9,491.9844 Q972.5875,493.0469 973.9313,493.0469 Q974.5563,493.0469 975.15,492.7813 Q975.7438,492.5 976.3688,491.9219 L976.3688,494.6406 Z "/><text fill="#000000" font-family="sans-serif" font-size="12" lengthAdjust="spacingAndGlyphs" textLength="29" x="991.6" y="493.1543">User</text><line style="stroke: #A80036; stroke-width: 1.5;" x1="940.5" x2="1041.5" y1="505" y2="505"/><text fill="#000000" font-family="sans-serif" font-size="11" lengthAdjust="spacingAndGlyphs" textLength="60" x="945.5" y="519.2104">adminview</text><text fill="#000000" font-family="sans-serif" font-size="11" lengthAdjust="spacingAndGlyphs" textLength="31" x="945.5" y="532.0151">email</text><text fill="#000000" font-family="sans-serif" font-size="11" lengthAdjust="spacingAndGlyphs" textLength="56" x="945.5" y="544.8198">firstName</text><text fill="#000000" font-family="sans-serif" font-size="11" lengthAdjust="spacingAndGlyphs" textLength="54" x="945.5" y="557.6245">lastName</text><text fill="#000000" font-family="sans-serif" font-size="11" lengthAdjust="spacingAndGlyphs" textLength="91" x="945.5" y="570.4292">signedUpEvents</text><text fill="#000000" font-family="sans-serif" font-size="11" lengthAdjust="spacingAndGlyphs" textLength="36" x="945.5" y="583.2339">userId</text><line style="stroke: #A80036; stroke-width: 1.5;" x1="940.5" x2="1041.5" y1="589.8281" y2="589.8281"/><text fill="#000000" font-family="sans-serif" font-size="11" lengthAdjust="spacingAndGlyphs" textLength="60" x="945.5" y="604.0386">addEvent()</text><text fill="#000000" font-family="sans-serif" font-size="11" lengthAdjust="spacingAndGlyphs" textLength="86" x="945.5" y="616.8433">getAdminview()</text><text fill="#000000" font-family="sans-serif" font-size="11" lengthAdjust="spacingAndGlyphs" textLength="57" x="945.5" y="629.6479">getEmail()</text><text fill="#000000" font-family="sans-serif" font-size="11" lengthAdjust="spacingAndGlyphs" textLength="84" x="945.5" y="642.4526">getFirstName()</text><text fill="#000000" font-family="sans-serif" font-size="11" lengthAdjust="spacingAndGlyphs" textLength="78" x="945.5" y="655.2573">getFullName()</text><text fill="#000000" font-family="sans-serif" font-size="11" lengthAdjust="spacingAndGlyphs" textLength="83" x="945.5" y="668.062">getLastName()</text><text fill="#000000" font-family="sans-serif" font-size="11" lengthAdjust="spacingAndGlyphs" textLength="63" x="945.5" y="680.8667">getUserId()</text><text fill="#000000" font-family="sans-serif" font-size="11" lengthAdjust="spacingAndGlyphs" textLength="86" x="945.5" y="693.6714">setAdminview()</text><text fill="#000000" font-family="sans-serif" font-size="11" lengthAdjust="spacingAndGlyphs" textLength="57" x="945.5" y="706.4761">setEmail()</text><text fill="#000000" font-family="sans-serif" font-size="11" lengthAdjust="spacingAndGlyphs" textLength="84" x="945.5" y="719.2808">setFirstName()</text><text fill="#000000" font-family="sans-serif" font-size="11" lengthAdjust="spacingAndGlyphs" textLength="83" x="945.5" y="732.0854">setLastName()</text><text fill="#000000" font-family="sans-serif" font-size="11" lengthAdjust="spacingAndGlyphs" textLength="63" x="945.5" y="744.8901">setUserId()</text><!--MD5=[898037fb02501998475378ad9598be7f]
class UserAdapter--><rect fill="#FEFECE" filter="url(#f17flfaoobgebz)" height="201.6563" id="UserAdapter" style="stroke: #A80036; stroke-width: 1.5;" width="135" x="269.5" y="136.5"/><ellipse cx="295.3" cy="152.5" fill="#ADD1B2" rx="11" ry="11" style="stroke: #A80036; stroke-width: 1.0;"/><path d="M298.2688,158.1406 Q297.6906,158.4375 297.05,158.5781 Q296.4094,158.7344 295.7063,158.7344 Q293.2063,158.7344 291.8781,157.0938 Q290.5656,155.4375 290.5656,152.3125 Q290.5656,149.1875 291.8781,147.5313 Q293.2063,145.875 295.7063,145.875 Q296.4094,145.875 297.05,146.0313 Q297.7063,146.1875 298.2688,146.4844 L298.2688,149.2031 Q297.6438,148.625 297.05,148.3594 Q296.4563,148.0781 295.8313,148.0781 Q294.4875,148.0781 293.8,149.1563 Q293.1125,150.2188 293.1125,152.3125 Q293.1125,154.4063 293.8,155.4844 Q294.4875,156.5469 295.8313,156.5469 Q296.4563,156.5469 297.05,156.2813 Q297.6438,156 298.2688,155.4219 L298.2688,158.1406 Z "/><text fill="#000000" font-family="sans-serif" font-size="12" lengthAdjust="spacingAndGlyphs" textLength="79" x="311.7" y="156.6543">UserAdapter</text><line style="stroke: #A80036; stroke-width: 1.5;" x1="270.5" x2="403.5" y1="168.5" y2="168.5"/><text fill="#000000" font-family="sans-serif" font-size="11" lengthAdjust="spacingAndGlyphs" textLength="56" x="275.5" y="182.7104">firstName</text><text fill="#000000" font-family="sans-serif" font-size="11" lengthAdjust="spacingAndGlyphs" textLength="54" x="275.5" y="195.5151">lastName</text><text fill="#000000" font-family="sans-serif" font-size="11" lengthAdjust="spacingAndGlyphs" textLength="43" x="275.5" y="208.3198">listener</text><text fill="#000000" font-family="sans-serif" font-size="11" lengthAdjust="spacingAndGlyphs" textLength="45" x="275.5" y="221.1245">position</text><text fill="#000000" font-family="sans-serif" font-size="11" lengthAdjust="spacingAndGlyphs" textLength="26" x="275.5" y="233.9292">user</text><text fill="#000000" font-family="sans-serif" font-size="11" lengthAdjust="spacingAndGlyphs" textLength="33" x="275.5" y="246.7339">users</text><text fill="#000000" font-family="sans-serif" font-size="11" lengthAdjust="spacingAndGlyphs" textLength="25" x="275.5" y="259.5386">view</text><line style="stroke: #A80036; stroke-width: 1.5;" x1="270.5" x2="403.5" y1="266.1328" y2="266.1328"/><text fill="#000000" font-family="sans-serif" font-size="11" lengthAdjust="spacingAndGlyphs" textLength="84" x="275.5" y="280.3433">getItemCount()</text><text fill="#000000" font-family="sans-serif" font-size="11" lengthAdjust="spacingAndGlyphs" textLength="110" x="275.5" y="293.1479">onBindViewHolder()</text><text fill="#000000" font-family="sans-serif" font-size="11" lengthAdjust="spacingAndGlyphs" textLength="123" x="275.5" y="305.9526">onCreateViewHolder()</text><text fill="#000000" font-family="sans-serif" font-size="11" lengthAdjust="spacingAndGlyphs" textLength="75" x="275.5" y="318.7573">onUserClick()</text><text fill="#000000" font-family="sans-serif" font-size="11" lengthAdjust="spacingAndGlyphs" textLength="60" x="275.5" y="331.562">setUsers()</text><!--MD5=[90ddb6c12d06a822c536927a69202fcf]
class ViewHolder--><rect fill="#FEFECE" filter="url(#f17flfaoobgebz)" height="86.4141" id="ViewHolder" style="stroke: #A80036; stroke-width: 1.5;" width="101" x="133.5" y="194.5"/><ellipse cx="148.5" cy="210.5" fill="#ADD1B2" rx="11" ry="11" style="stroke: #A80036; stroke-width: 1.0;"/><path d="M151.4688,216.1406 Q150.8906,216.4375 150.25,216.5781 Q149.6094,216.7344 148.9063,216.7344 Q146.4063,216.7344 145.0781,215.0938 Q143.7656,213.4375 143.7656,210.3125 Q143.7656,207.1875 145.0781,205.5313 Q146.4063,203.875 148.9063,203.875 Q149.6094,203.875 150.25,204.0313 Q150.9063,204.1875 151.4688,204.4844 L151.4688,207.2031 Q150.8438,206.625 150.25,206.3594 Q149.6563,206.0781 149.0313,206.0781 Q147.6875,206.0781 147,207.1563 Q146.3125,208.2188 146.3125,210.3125 Q146.3125,212.4063 147,213.4844 Q147.6875,214.5469 149.0313,214.5469 Q149.6563,214.5469 150.25,214.2813 Q150.8438,214 151.4688,213.4219 L151.4688,216.1406 Z "/><text fill="#000000" font-family="sans-serif" font-size="12" lengthAdjust="spacingAndGlyphs" textLength="69" x="162.5" y="214.6543">ViewHolder</text><line style="stroke: #A80036; stroke-width: 1.5;" x1="134.5" x2="233.5" y1="226.5" y2="226.5"/><text fill="#000000" font-family="sans-serif" font-size="11" lengthAdjust="spacingAndGlyphs" textLength="56" x="139.5" y="240.7104">firstName</text><text fill="#000000" font-family="sans-serif" font-size="11" lengthAdjust="spacingAndGlyphs" textLength="54" x="139.5" y="253.5151">lastName</text><text fill="#000000" font-family="sans-serif" font-size="11" lengthAdjust="spacingAndGlyphs" textLength="45" x="139.5" y="266.3198">position</text><line style="stroke: #A80036; stroke-width: 1.5;" x1="134.5" x2="233.5" y1="272.9141" y2="272.9141"/><!--MD5=[093c210125347143eef5bb9199eae634]
class UserRepository--><rect fill="#FEFECE" filter="url(#f17flfaoobgebz)" height="278.4844" id="UserRepository" style="stroke: #A80036; stroke-width: 1.5;" width="230" x="944" y="98.5"/><ellipse cx="1007.25" cy="114.5" fill="#ADD1B2" rx="11" ry="11" style="stroke: #A80036; stroke-width: 1.0;"/><path d="M1010.2188,120.1406 Q1009.6406,120.4375 1009,120.5781 Q1008.3594,120.7344 1007.6563,120.7344 Q1005.1563,120.7344 1003.8281,119.0938 Q1002.5156,117.4375 1002.5156,114.3125 Q1002.5156,111.1875 1003.8281,109.5313 Q1005.1563,107.875 1007.6563,107.875 Q1008.3594,107.875 1009,108.0313 Q1009.6563,108.1875 1010.2188,108.4844 L1010.2188,111.2031 Q1009.5938,110.625 1009,110.3594 Q1008.4063,110.0781 1007.7813,110.0781 Q1006.4375,110.0781 1005.75,111.1563 Q1005.0625,112.2188 1005.0625,114.3125 Q1005.0625,116.4063 1005.75,117.4844 Q1006.4375,118.5469 1007.7813,118.5469 Q1008.4063,118.5469 1009,118.2813 Q1009.5938,118 1010.2188,117.4219 L1010.2188,120.1406 Z "/><text fill="#000000" font-family="sans-serif" font-size="12" lengthAdjust="spacingAndGlyphs" textLength="95" x="1027.75" y="118.6543">UserRepository</text><line style="stroke: #A80036; stroke-width: 1.5;" x1="945" x2="1173" y1="130.5" y2="130.5"/><text fill="#000000" font-family="sans-serif" font-size="11" lengthAdjust="spacingAndGlyphs" textLength="68" x="950" y="144.7104">currentUser</text><text fill="#000000" font-family="sans-serif" font-size="11" lengthAdjust="spacingAndGlyphs" textLength="14" x="950" y="157.5151">db</text><text fill="#000000" font-family="sans-serif" font-size="11" lengthAdjust="spacingAndGlyphs" textLength="20" x="950" y="170.3198">doc</text><text fill="#000000" font-family="sans-serif" font-size="11" lengthAdjust="spacingAndGlyphs" textLength="38" x="950" y="183.1245">docRef</text><text fill="#000000" font-family="sans-serif" font-size="11" lengthAdjust="spacingAndGlyphs" textLength="26" x="950" y="195.9292">user</text><text fill="#000000" font-family="sans-serif" font-size="11" lengthAdjust="spacingAndGlyphs" textLength="73" x="950" y="208.7339">userCallback</text><text fill="#000000" font-family="sans-serif" font-size="11" lengthAdjust="spacingAndGlyphs" textLength="81" x="950" y="221.5386">userCollection</text><text fill="#000000" font-family="sans-serif" font-size="11" lengthAdjust="spacingAndGlyphs" textLength="44" x="950" y="234.3433">userRef</text><text fill="#000000" font-family="sans-serif" font-size="11" lengthAdjust="spacingAndGlyphs" textLength="33" x="950" y="247.1479">users</text><line style="stroke: #A80036; stroke-width: 1.5;" x1="945" x2="1173" y1="253.7422" y2="253.7422"/><text fill="#000000" font-family="sans-serif" font-size="11" lengthAdjust="spacingAndGlyphs" textLength="53" x="950" y="267.9526">getUser()</text><text fill="#000000" font-family="sans-serif" font-size="11" lengthAdjust="spacingAndGlyphs" textLength="60" x="950" y="280.7573">onFailure()</text><text fill="#000000" font-family="sans-serif" font-size="11" lengthAdjust="spacingAndGlyphs" textLength="97" x="950" y="293.562">onUsersLoaded()</text><text fill="#000000" font-family="sans-serif" font-size="11" lengthAdjust="spacingAndGlyphs" textLength="97" x="950" y="306.3667">onUsersLoaded()</text><text fill="#000000" font-family="sans-serif" font-size="11" lengthAdjust="spacingAndGlyphs" textLength="218" x="950" y="319.1714">setCheckedInUsersSnapshotListener()</text><text fill="#000000" font-family="sans-serif" font-size="11" lengthAdjust="spacingAndGlyphs" textLength="214" x="950" y="331.9761">setSignedUpUsersSnapshotListener()</text><text fill="#000000" font-family="sans-serif" font-size="11" lengthAdjust="spacingAndGlyphs" textLength="53" x="950" y="344.7808">setUser()</text><text fill="#000000" font-family="sans-serif" font-size="11" lengthAdjust="spacingAndGlyphs" textLength="100" x="950" y="357.5854">setUserCallback()</text><text fill="#000000" font-family="sans-serif" font-size="11" lengthAdjust="spacingAndGlyphs" textLength="153" x="950" y="370.3901">setUserSnapshotListener()</text><!--MD5=[b0ef105f0e650f973effd5f073e8e7ef]
class UserViewModel--><rect fill="#FEFECE" filter="url(#f17flfaoobgebz)" height="227.2656" id="UserViewModel" style="stroke: #A80036; stroke-width: 1.5;" width="136" x="440" y="124"/><ellipse cx="459.5" cy="140" fill="#ADD1B2" rx="11" ry="11" style="stroke: #A80036; stroke-width: 1.0;"/><path d="M462.4688,145.6406 Q461.8906,145.9375 461.25,146.0781 Q460.6094,146.2344 459.9063,146.2344 Q457.4063,146.2344 456.0781,144.5938 Q454.7656,142.9375 454.7656,139.8125 Q454.7656,136.6875 456.0781,135.0313 Q457.4063,133.375 459.9063,133.375 Q460.6094,133.375 461.25,133.5313 Q461.9063,133.6875 462.4688,133.9844 L462.4688,136.7031 Q461.8438,136.125 461.25,135.8594 Q460.6563,135.5781 460.0313,135.5781 Q458.6875,135.5781 458,136.6563 Q457.3125,137.7188 457.3125,139.8125 Q457.3125,141.9063 458,142.9844 Q458.6875,144.0469 460.0313,144.0469 Q460.6563,144.0469 461.25,143.7813 Q461.8438,143.5 462.4688,142.9219 L462.4688,145.6406 Z "/><text fill="#000000" font-family="sans-serif" font-size="12" lengthAdjust="spacingAndGlyphs" textLength="94" x="474.5" y="144.1543">UserViewModel</text><line style="stroke: #A80036; stroke-width: 1.5;" x1="441" x2="575" y1="156" y2="156"/><text fill="#000000" font-family="sans-serif" font-size="11" lengthAdjust="spacingAndGlyphs" textLength="46" x="446" y="170.2104">liveUser</text><text fill="#000000" font-family="sans-serif" font-size="11" lengthAdjust="spacingAndGlyphs" textLength="26" x="446" y="183.0151">user</text><text fill="#000000" font-family="sans-serif" font-size="11" lengthAdjust="spacingAndGlyphs" textLength="74" x="446" y="195.8198">userLiveData</text><text fill="#000000" font-family="sans-serif" font-size="11" lengthAdjust="spacingAndGlyphs" textLength="54" x="446" y="208.6245">userRepo</text><line style="stroke: #A80036; stroke-width: 1.5;" x1="441" x2="575" y1="215.2188" y2="215.2188"/><text fill="#000000" font-family="sans-serif" font-size="11" lengthAdjust="spacingAndGlyphs" textLength="53" x="446" y="229.4292">getUser()</text><text fill="#000000" font-family="sans-serif" font-size="11" lengthAdjust="spacingAndGlyphs" textLength="108" x="446" y="242.2339">getUsersLiveData()</text><text fill="#000000" font-family="sans-serif" font-size="11" lengthAdjust="spacingAndGlyphs" textLength="124" x="446" y="255.0386">loadCheckedInUsers()</text><text fill="#000000" font-family="sans-serif" font-size="11" lengthAdjust="spacingAndGlyphs" textLength="120" x="446" y="267.8433">loadSignedUpUsers()</text><text fill="#000000" font-family="sans-serif" font-size="11" lengthAdjust="spacingAndGlyphs" textLength="66" x="446" y="280.6479">loadUsers()</text><text fill="#000000" font-family="sans-serif" font-size="11" lengthAdjust="spacingAndGlyphs" textLength="60" x="446" y="293.4526">onFailure()</text><text fill="#000000" font-family="sans-serif" font-size="11" lengthAdjust="spacingAndGlyphs" textLength="97" x="446" y="306.2573">onUsersLoaded()</text><text fill="#000000" font-family="sans-serif" font-size="11" lengthAdjust="spacingAndGlyphs" textLength="97" x="446" y="319.062">onUsersLoaded()</text><text fill="#000000" font-family="sans-serif" font-size="11" lengthAdjust="spacingAndGlyphs" textLength="67" x="446" y="331.8667">queryUser()</text><text fill="#000000" font-family="sans-serif" font-size="11" lengthAdjust="spacingAndGlyphs" textLength="100" x="446" y="344.6714">setUserCallback()</text><!--MD5=[a8662d899a467bed62d8dbb6a5bd2f8a]
class CreateProfile--><rect fill="#FEFECE" filter="url(#f17flfaoobgebz)" height="278.4844" id="CreateProfile" style="stroke: #A80036; stroke-width: 1.5;" width="131" x="611.5" y="98.5"/><ellipse cx="634.6" cy="114.5" fill="#ADD1B2" rx="11" ry="11" style="stroke: #A80036; stroke-width: 1.0;"/><path d="M637.5688,120.1406 Q636.9906,120.4375 636.35,120.5781 Q635.7094,120.7344 635.0063,120.7344 Q632.5063,120.7344 631.1781,119.0938 Q629.8656,117.4375 629.8656,114.3125 Q629.8656,111.1875 631.1781,109.5313 Q632.5063,107.875 635.0063,107.875 Q635.7094,107.875 636.35,108.0313 Q637.0063,108.1875 637.5688,108.4844 L637.5688,111.2031 Q636.9438,110.625 636.35,110.3594 Q635.7563,110.0781 635.1313,110.0781 Q633.7875,110.0781 633.1,111.1563 Q632.4125,112.2188 632.4125,114.3125 Q632.4125,116.4063 633.1,117.4844 Q633.7875,118.5469 635.1313,118.5469 Q635.7563,118.5469 636.35,118.2813 Q636.9438,118 637.5688,117.4219 L637.5688,120.1406 Z "/><text fill="#000000" font-family="sans-serif" font-size="12" lengthAdjust="spacingAndGlyphs" textLength="81" x="650.4" y="118.6543">CreateProfile</text><line style="stroke: #A80036; stroke-width: 1.5;" x1="612.5" x2="741.5" y1="130.5" y2="130.5"/><text fill="#000000" font-family="sans-serif" font-size="11" lengthAdjust="spacingAndGlyphs" textLength="78" x="617.5" y="144.7104">actionBarText</text><text fill="#000000" font-family="sans-serif" font-size="11" lengthAdjust="spacingAndGlyphs" textLength="97" x="617.5" y="157.5151">addEmailEditText</text><text fill="#000000" font-family="sans-serif" font-size="11" lengthAdjust="spacingAndGlyphs" textLength="104" x="617.5" y="170.3198">addFnameEditText</text><text fill="#000000" font-family="sans-serif" font-size="11" lengthAdjust="spacingAndGlyphs" textLength="104" x="617.5" y="183.1245">addLnameEditText</text><text fill="#000000" font-family="sans-serif" font-size="11" lengthAdjust="spacingAndGlyphs" textLength="26" x="617.5" y="195.9292">back</text><text fill="#000000" font-family="sans-serif" font-size="11" lengthAdjust="spacingAndGlyphs" textLength="73" x="617.5" y="208.7339">createButton</text><text fill="#000000" font-family="sans-serif" font-size="11" lengthAdjust="spacingAndGlyphs" textLength="31" x="617.5" y="221.5386">email</text><text fill="#000000" font-family="sans-serif" font-size="11" lengthAdjust="spacingAndGlyphs" textLength="37" x="617.5" y="234.3433">fName</text><text fill="#000000" font-family="sans-serif" font-size="11" lengthAdjust="spacingAndGlyphs" textLength="36" x="617.5" y="247.1479">lName</text><text fill="#000000" font-family="sans-serif" font-size="11" lengthAdjust="spacingAndGlyphs" textLength="50" x="617.5" y="259.9526">newUser</text><text fill="#000000" font-family="sans-serif" font-size="11" lengthAdjust="spacingAndGlyphs" textLength="36" x="617.5" y="272.7573">userId</text><text fill="#000000" font-family="sans-serif" font-size="11" lengthAdjust="spacingAndGlyphs" textLength="54" x="617.5" y="285.562">userRepo</text><text fill="#000000" font-family="sans-serif" font-size="11" lengthAdjust="spacingAndGlyphs" textLength="25" x="617.5" y="298.3667">view</text><line style="stroke: #A80036; stroke-width: 1.5;" x1="612.5" x2="741.5" y1="304.9609" y2="304.9609"/><text fill="#000000" font-family="sans-serif" font-size="11" lengthAdjust="spacingAndGlyphs" textLength="79" x="617.5" y="319.1714">getAndroidId()</text><text fill="#000000" font-family="sans-serif" font-size="11" lengthAdjust="spacingAndGlyphs" textLength="60" x="617.5" y="331.9761">onCreate()</text><text fill="#000000" font-family="sans-serif" font-size="11" lengthAdjust="spacingAndGlyphs" textLength="86" x="617.5" y="344.7808">onCreateView()</text><text fill="#000000" font-family="sans-serif" font-size="11" lengthAdjust="spacingAndGlyphs" textLength="94" x="617.5" y="357.5854">setupActionBar()</text><text fill="#000000" font-family="sans-serif" font-size="11" lengthAdjust="spacingAndGlyphs" textLength="119" x="617.5" y="370.3901">setupClickListeners()</text><!--MD5=[499a93d1a2128e7b640a788d1f7209bf]
class Fragment--><rect fill="#FEFECE" filter="url(#f17flfaoobgebz)" height="48" id="Fragment" style="stroke: #A80036; stroke-width: 1.5;" width="92" x="6" y="213.5"/><ellipse cx="21" cy="229.5" fill="#ADD1B2" rx="11" ry="11" style="stroke: #A80036; stroke-width: 1.0;"/><path d="M23.9688,235.1406 Q23.3906,235.4375 22.75,235.5781 Q22.1094,235.7344 21.4063,235.7344 Q18.9063,235.7344 17.5781,234.0938 Q16.2656,232.4375 16.2656,229.3125 Q16.2656,226.1875 17.5781,224.5313 Q18.9063,222.875 21.4063,222.875 Q22.1094,222.875 22.75,223.0313 Q23.4063,223.1875 23.9688,223.4844 L23.9688,226.2031 Q23.3438,225.625 22.75,225.3594 Q22.1563,225.0781 21.5313,225.0781 Q20.1875,225.0781 19.5,226.1563 Q18.8125,227.2188 18.8125,229.3125 Q18.8125,231.4063 19.5,232.4844 Q20.1875,233.5469 21.5313,233.5469 Q22.1563,233.5469 22.75,233.2813 Q23.3438,233 23.9688,232.4219 L23.9688,235.1406 Z "/><text fill="#000000" font-family="sans-serif" font-size="12" lengthAdjust="spacingAndGlyphs" textLength="60" x="35" y="233.6543">Fragment</text><line style="stroke: #A80036; stroke-width: 1.5;" x1="7" x2="97" y1="245.5" y2="245.5"/><line style="stroke: #A80036; stroke-width: 1.5;" x1="7" x2="97" y1="253.5" y2="253.5"/><!--MD5=[cc3de0a176daa3c4ec875deafdf5ddd1]
class Serializable--><rect fill="#FEFECE" filter="url(#f17flfaoobgebz)" height="48" id="Serializable" style="stroke: #A80036; stroke-width: 1.5;" width="102" x="1206" y="588"/><ellipse cx="1221" cy="604" fill="#ADD1B2" rx="11" ry="11" style="stroke: #A80036; stroke-width: 1.0;"/><path d="M1223.9688,609.6406 Q1223.3906,609.9375 1222.75,610.0781 Q1222.1094,610.2344 1221.4063,610.2344 Q1218.9063,610.2344 1217.5781,608.5938 Q1216.2656,606.9375 1216.2656,603.8125 Q1216.2656,600.6875 1217.5781,599.0313 Q1218.9063,597.375 1221.4063,597.375 Q1222.1094,597.375 1222.75,597.5313 Q1223.4063,597.6875 1223.9688,597.9844 L1223.9688,600.7031 Q1223.3438,600.125 1222.75,599.8594 Q1222.1563,599.5781 1221.5313,599.5781 Q1220.1875,599.5781 1219.5,600.6563 Q1218.8125,601.7188 1218.8125,603.8125 Q1218.8125,605.9063 1219.5,606.9844 Q1220.1875,608.0469 1221.5313,608.0469 Q1222.1563,608.0469 1222.75,607.7813 Q1223.3438,607.5 1223.9688,606.9219 L1223.9688,609.6406 Z "/><text fill="#000000" font-family="sans-serif" font-size="12" lengthAdjust="spacingAndGlyphs" textLength="70" x="1235" y="608.1543">Serializable</text><line style="stroke: #A80036; stroke-width: 1.5;" x1="1207" x2="1307" y1="620" y2="620"/><line style="stroke: #A80036; stroke-width: 1.5;" x1="1207" x2="1307" y1="628" y2="628"/><!--MD5=[ab8871ed637f40707b866ba6597734bc]
class ArrayList--><rect fill="#FEFECE" filter="url(#f17flfaoobgebz)" height="48" id="ArrayList" style="stroke: #A80036; stroke-width: 1.5;" width="85" x="1388.5" y="830"/><ellipse cx="1403.5" cy="846" fill="#ADD1B2" rx="11" ry="11" style="stroke: #A80036; stroke-width: 1.0;"/><path d="M1406.4688,851.6406 Q1405.8906,851.9375 1405.25,852.0781 Q1404.6094,852.2344 1403.9063,852.2344 Q1401.4063,852.2344 1400.0781,850.5938 Q1398.7656,848.9375 1398.7656,845.8125 Q1398.7656,842.6875 1400.0781,841.0313 Q1401.4063,839.375 1403.9063,839.375 Q1404.6094,839.375 1405.25,839.5313 Q1405.9063,839.6875 1406.4688,839.9844 L1406.4688,842.7031 Q1405.8438,842.125 1405.25,841.8594 Q1404.6563,841.5781 1404.0313,841.5781 Q1402.6875,841.5781 1402,842.6563 Q1401.3125,843.7188 1401.3125,845.8125 Q1401.3125,847.9063 1402,848.9844 Q1402.6875,850.0469 1404.0313,850.0469 Q1404.6563,850.0469 1405.25,849.7813 Q1405.8438,849.5 1406.4688,848.9219 L1406.4688,851.6406 Z "/><text fill="#000000" font-family="sans-serif" font-size="12" lengthAdjust="spacingAndGlyphs" textLength="53" x="1417.5" y="850.1543">ArrayList</text><line style="stroke: #A80036; stroke-width: 1.5;" x1="1389.5" x2="1472.5" y1="862" y2="862"/><line style="stroke: #A80036; stroke-width: 1.5;" x1="1389.5" x2="1472.5" y1="870" y2="870"/><!--MD5=[16bba8ee227509f6403f595c0b289baf]
class RecyclerView--><rect fill="#FEFECE" filter="url(#f17flfaoobgebz)" height="48" id="RecyclerView" style="stroke: #A80036; stroke-width: 1.5;" width="112" x="1209" y="213.5"/><ellipse cx="1224" cy="229.5" fill="#ADD1B2" rx="11" ry="11" style="stroke: #A80036; stroke-width: 1.0;"/><path d="M1226.9688,235.1406 Q1226.3906,235.4375 1225.75,235.5781 Q1225.1094,235.7344 1224.4063,235.7344 Q1221.9063,235.7344 1220.5781,234.0938 Q1219.2656,232.4375 1219.2656,229.3125 Q1219.2656,226.1875 1220.5781,224.5313 Q1221.9063,222.875 1224.4063,222.875 Q1225.1094,222.875 1225.75,223.0313 Q1226.4063,223.1875 1226.9688,223.4844 L1226.9688,226.2031 Q1226.3438,225.625 1225.75,225.3594 Q1225.1563,225.0781 1224.5313,225.0781 Q1223.1875,225.0781 1222.5,226.1563 Q1221.8125,227.2188 1221.8125,229.3125 Q1221.8125,231.4063 1222.5,232.4844 Q1223.1875,233.5469 1224.5313,233.5469 Q1225.1563,233.5469 1225.75,233.2813 Q1226.3438,233 1226.9688,232.4219 L1226.9688,235.1406 Z "/><text fill="#000000" font-family="sans-serif" font-size="12" lengthAdjust="spacingAndGlyphs" textLength="80" x="1238" y="233.6543">RecyclerView</text><line style="stroke: #A80036; stroke-width: 1.5;" x1="1210" x2="1320" y1="245.5" y2="245.5"/><line style="stroke: #A80036; stroke-width: 1.5;" x1="1210" x2="1320" y1="253.5" y2="253.5"/><!--MD5=[b1d46488418bc0cd55cf54b5fc017696]
class ViewModel--><rect fill="#FEFECE" filter="url(#f17flfaoobgebz)" height="48" id="ViewModel" style="stroke: #A80036; stroke-width: 1.5;" width="97" x="1356.5" y="213.5"/><ellipse cx="1371.5" cy="229.5" fill="#ADD1B2" rx="11" ry="11" style="stroke: #A80036; stroke-width: 1.0;"/><path d="M1374.4688,235.1406 Q1373.8906,235.4375 1373.25,235.5781 Q1372.6094,235.7344 1371.9063,235.7344 Q1369.4063,235.7344 1368.0781,234.0938 Q1366.7656,232.4375 1366.7656,229.3125 Q1366.7656,226.1875 1368.0781,224.5313 Q1369.4063,222.875 1371.9063,222.875 Q1372.6094,222.875 1373.25,223.0313 Q1373.9063,223.1875 1374.4688,223.4844 L1374.4688,226.2031 Q1373.8438,225.625 1373.25,225.3594 Q1372.6563,225.0781 1372.0313,225.0781 Q1370.6875,225.0781 1370,226.1563 Q1369.3125,227.2188 1369.3125,229.3125 Q1369.3125,231.4063 1370,232.4844 Q1370.6875,233.5469 1372.0313,233.5469 Q1372.6563,233.5469 1373.25,233.2813 Q1373.8438,233 1374.4688,232.4219 L1374.4688,235.1406 Z "/><text fill="#000000" font-family="sans-serif" font-size="12" lengthAdjust="spacingAndGlyphs" textLength="65" x="1385.5" y="233.6543">ViewModel</text><line style="stroke: #A80036; stroke-width: 1.5;" x1="1357.5" x2="1452.5" y1="245.5" y2="245.5"/><line style="stroke: #A80036; stroke-width: 1.5;" x1="1357.5" x2="1452.5" y1="253.5" y2="253.5"/><!--MD5=[e8bd3e91a4a33a029e8ca3b0d22486c9]
reverse link Fragment to Profile--><path d="M51.73,193.33 C54.2,137.41 68.56,45.39 134.5,21 C166.18,9.28 710.82,9.28 742.5,21 C770.48,31.35 790.68,53.01 805.25,78.79 " fill="none" id="Fragment&lt;-Profile" style="stroke: #A80036; stroke-width: 1.0;"/><polygon fill="none" points="58.73,193.61,51.28,213.45,44.73,193.3,58.73,193.61" style="stroke: #A80036; stroke-width: 1.0;"/><!--MD5=[26f2750967a9157267d57c5e6d98bc07]
link Profile to User--><path d="M802.6114,407.9837 C802.6114,407.9837 807.34,432.23 812,443 C835.62,497.57 886.67,542.57 928.23,572.21 " fill="none" id="Profile-User" style="stroke: #A80036; stroke-width: 1.0;"/><polygon fill="#A80036" points="939.12,579.78,934.0188,571.3552,935.0164,576.9234,929.4482,577.921,939.12,579.78" style="stroke: #A80036; stroke-width: 1.0;"/><line style="stroke: #A80036; stroke-width: 1.0;" x1="935.0164" x2="928.45" y1="576.9234" y2="572.355"/><polygon fill="#A80036" points="801.45,396.04,798.0495,402.399,802.6114,407.9837,806.0119,401.6247,801.45,396.04" style="stroke: #A80036; stroke-width: 1.0;"/><text fill="#000000" font-family="sans-serif" font-size="13" lengthAdjust="spacingAndGlyphs" textLength="55" x="813" y="439.0669">newUser</text><!--MD5=[2ab86a8c46ed9aad0e2eb687b15a99fe]
reverse link Serializable to User--><path d="M1185.85,612 C1138.13,612 1090.41,612 1042.69,612 " fill="none" id="Serializable&lt;-User" style="stroke: #A80036; stroke-width: 1.0;"/><polygon fill="none" points="1185.93,605,1205.93,612,1185.93,619,1185.93,605" style="stroke: #A80036; stroke-width: 1.0;"/><!--MD5=[e6675d7215a0fde535ccf26c75805937]
link User to ArrayList--><path d="M1051.5205,670.0042 C1051.5205,670.0042 1139.88,745.13 1189,775 C1212.98,789.58 1220.57,790.54 1247,800 C1289.51,815.22 1338.71,829.2 1375.53,838.99 " fill="none" id="User-ArrayList" style="stroke: #A80036; stroke-width: 1.0;"/><polygon fill="#A80036" points="1388.5,842.39,1380.8105,836.236,1383.6638,841.1205,1378.7793,843.9738,1388.5,842.39" style="stroke: #A80036; stroke-width: 1.0;"/><line style="stroke: #A80036; stroke-width: 1.0;" x1="1383.6638" x2="1375.925" y1="841.1205" y2="839.09"/><polygon fill="#A80036" points="1042.58,662,1044.3822,668.9823,1051.5205,670.0042,1049.7183,663.022,1042.58,662" style="stroke: #A80036; stroke-width: 1.0;"/><text fill="#000000" font-family="sans-serif" font-size="13" lengthAdjust="spacingAndGlyphs" textLength="103" x="1248" y="796.0669">signedUpEvents</text><!--MD5=[356c07f79d0770163c70558d4260028f]
reverse link RecyclerView to UserAdapter--><path d="M1263.17,193.03 C1258.04,137.2 1239.34,45.73 1172.5,21 C1134.36,6.89 478.64,6.89 440.5,21 C392.73,38.67 366.98,88.84 353.12,136.43 " fill="none" id="RecyclerView&lt;-UserAdapter" style="stroke: #A80036; stroke-width: 1.0;"/><polygon fill="none" points="1270.16,192.7,1264.58,213.14,1256.2,193.68,1270.16,192.7" style="stroke: #A80036; stroke-width: 1.0;"/><!--MD5=[74843e98ea0f1b9ef01e6c45c53d3d6f]
reverse link RecyclerView to ViewHolder--><path d="M1263.17,193.03 C1258.04,137.2 1239.34,45.73 1172.5,21 C1125.45,3.59 316.55,3.59 269.5,21 C202.98,45.61 187.48,138.22 184.31,194.04 " fill="none" id="RecyclerView&lt;-ViewHolder" style="stroke: #A80036; stroke-width: 1.0;"/><polygon fill="none" points="1270.16,192.7,1264.58,213.14,1256.2,193.68,1270.16,192.7" style="stroke: #A80036; stroke-width: 1.0;"/><!--MD5=[8edbd3b2ac87708301922aa33bcc15e6]
link UserRepository to ArrayList--><path d="M1179.2305,384.8202 C1179.2305,384.8202 1188.02,392.68 1192,396 C1244.73,440.02 1284.29,418.42 1326,473 C1410.24,583.23 1365.49,642.01 1405,775 C1409.15,788.96 1414.12,804.17 1418.6,817.43 " fill="none" id="UserRepository-ArrayList" style="stroke: #A80036; stroke-width: 1.0;"/><polygon fill="#A80036" points="1422.86,829.92,1423.7371,820.1103,1421.2443,825.1883,1416.1663,822.6954,1422.86,829.92" style="stroke: #A80036; stroke-width: 1.0;"/><line style="stroke: #A80036; stroke-width: 1.0;" x1="1421.2443" x2="1418.655" y1="825.1883" y2="817.62"/><polygon fill="#A80036" points="1170.46,376.63,1172.1152,383.6486,1179.2305,384.8202,1177.5753,377.8016,1170.46,376.63" style="stroke: #A80036; stroke-width: 1.0;"/><text fill="#000000" font-family="sans-serif" font-size="13" lengthAdjust="spacingAndGlyphs" textLength="35" x="1406" y="616.5669">users</text><!--MD5=[8edbd3b2ac87708301922aa33bcc15e6]
link UserRepository to ArrayList--><path d="M1175.6191,384.2977 C1175.6191,384.2977 1186.74,392.6 1192,396 C1291.06,460.04 1376.25,377.87 1446,473 C1522.44,577.26 1473.17,744.35 1445.77,817.15 " fill="none" id="UserRepository-ArrayList-1" style="stroke: #A80036; stroke-width: 1.0;"/><polygon fill="#A80036" points="1440.95,829.61,1447.9246,822.6563,1442.7519,824.946,1440.4622,819.7732,1440.95,829.61" style="stroke: #A80036; stroke-width: 1.0;"/><line style="stroke: #A80036; stroke-width: 1.0;" x1="1442.7519" x2="1445.645" y1="824.946" y2="817.49"/><polygon fill="#A80036" points="1166.29,376.75,1168.4386,383.6336,1175.6191,384.2977,1173.4705,377.4142,1166.29,376.75" style="stroke: #A80036; stroke-width: 1.0;"/><text fill="#000000" font-family="sans-serif" font-size="13" lengthAdjust="spacingAndGlyphs" textLength="35" x="1487" y="616.5669">users</text><!--MD5=[8edbd3b2ac87708301922aa33bcc15e6]
link UserRepository to ArrayList--><path d="M1172.7826,383.8532 C1172.7826,383.8532 1185.72,392.57 1192,396 C1327.62,470.02 1446.09,343.92 1531,473 C1604.76,585.14 1589.89,654.39 1531,775 C1520.99,795.5 1502.71,812.18 1484.49,824.77 " fill="none" id="UserRepository-ArrayList-2" style="stroke: #A80036; stroke-width: 1.0;"/><polygon fill="#A80036" points="1473.53,831.9,1483.2559,830.3484,1477.7221,829.1749,1478.8957,823.6411,1473.53,831.9" style="stroke: #A80036; stroke-width: 1.0;"/><line style="stroke: #A80036; stroke-width: 1.0;" x1="1477.7221" x2="1484.43" y1="829.1749" y2="824.815"/><polygon fill="#A80036" points="1163.2,376.63,1165.5836,383.4358,1172.7826,383.8532,1170.399,377.0474,1163.2,376.63" style="stroke: #A80036; stroke-width: 1.0;"/><text fill="#000000" font-family="sans-serif" font-size="13" lengthAdjust="spacingAndGlyphs" textLength="35" x="1581" y="616.5669">users</text><!--MD5=[6122a42ef3eb625904d9b9b0fc9fafda]
link UserRepository to User--><path d="M937.5687,385.109 C937.5687,385.109 929.58,392.73 926,396 C908.78,411.7 893.78,405.34 883,426 C858.92,472.16 893.47,523.16 929.73,559.9 " fill="none" id="UserRepository-User" style="stroke: #A80036; stroke-width: 1.0;"/><polygon fill="#A80036" points="939.45,569.39,935.8076,560.2394,935.8735,565.8959,930.217,565.9618,939.45,569.39" style="stroke: #A80036; stroke-width: 1.0;"/><line style="stroke: #A80036; stroke-width: 1.0;" x1="935.8735" x2="930.15" y1="565.8959" y2="560.305"/><polygon fill="#A80036" points="946.1,376.67,939.0213,378.0457,937.5687,385.109,944.6473,383.7333,946.1,376.67" style="stroke: #A80036; stroke-width: 1.0;"/><text fill="#000000" font-family="sans-serif" font-size="13" lengthAdjust="spacingAndGlyphs" textLength="28" x="884" y="439.0669">user</text><!--MD5=[6122a42ef3eb625904d9b9b0fc9fafda]
link UserRepository to User--><path d="M966.0309,387.7331 C966.0309,387.7331 956.26,413.59 953,426 C950.15,436.83 948.74,448.05 948.43,459.39 " fill="none" id="UserRepository-User-1" style="stroke: #A80036; stroke-width: 1.0;"/><polygon fill="#A80036" points="948.55,472.72,952.4707,463.6852,948.506,467.7202,944.471,463.7555,948.55,472.72" style="stroke: #A80036; stroke-width: 1.0;"/><line style="stroke: #A80036; stroke-width: 1.0;" x1="948.506" x2="948.43" y1="467.7202" y2="459.72"/><polygon fill="#A80036" points="970.75,376.7,964.7127,380.6435,966.0309,387.7331,972.0682,383.7896,970.75,376.7" style="stroke: #A80036; stroke-width: 1.0;"/><text fill="#000000" font-family="sans-serif" font-size="13" lengthAdjust="spacingAndGlyphs" textLength="28" x="954" y="439.0669">user</text><!--MD5=[6122a42ef3eb625904d9b9b0fc9fafda]
link UserRepository to User--><path d="M1029.9562,388.474 C1029.9562,388.474 1025.16,414.14 1023,426 C1020.99,437.01 1018.95,448.39 1016.91,459.85 " fill="none" id="UserRepository-User-2" style="stroke: #A80036; stroke-width: 1.0;"/><polygon fill="#A80036" points="1014.62,472.8,1020.131,464.6373,1015.4936,467.8769,1012.2541,463.2395,1014.62,472.8" style="stroke: #A80036; stroke-width: 1.0;"/><line style="stroke: #A80036; stroke-width: 1.0;" x1="1015.4936" x2="1016.88" y1="467.8769" y2="460.005"/><polygon fill="#A80036" points="1032.17,376.68,1027.1317,381.8391,1029.9562,388.474,1034.9944,383.315,1032.17,376.68" style="stroke: #A80036; stroke-width: 1.0;"/><text fill="#000000" font-family="sans-serif" font-size="13" lengthAdjust="spacingAndGlyphs" textLength="28" x="1024" y="439.0669">user</text><!--MD5=[6122a42ef3eb625904d9b9b0fc9fafda]
link UserRepository to User--><path d="M1063.7676,388.6688 C1063.7676,388.6688 1060.33,425.89 1057,443 C1054.44,456.17 1050.89,469.63 1046.75,482.93 " fill="none" id="UserRepository-User-3" style="stroke: #A80036; stroke-width: 1.0;"/><polygon fill="#A80036" points="1042.62,495.6,1049.2126,488.2831,1044.1698,490.8462,1041.6066,485.8034,1042.62,495.6" style="stroke: #A80036; stroke-width: 1.0;"/><line style="stroke: #A80036; stroke-width: 1.0;" x1="1044.1698" x2="1046.645" y1="490.8462" y2="483.24"/><polygon fill="#A80036" points="1064.48,376.69,1060.1309,382.442,1063.7676,388.6688,1068.1167,382.9169,1064.48,376.69" style="stroke: #A80036; stroke-width: 1.0;"/><text fill="#000000" font-family="sans-serif" font-size="13" lengthAdjust="spacingAndGlyphs" textLength="76" x="1060" y="439.0669">currentUser</text><!--MD5=[916c7507b0f599dcb65262a0562c7ec8]
reverse link ViewModel to UserViewModel--><path d="M1405.06,193.34 C1402.33,137.43 1387.54,45.43 1321.5,21 C1284.51,7.31 648.49,7.31 611.5,21 C567.93,37.12 542.68,80.26 528.06,123.84 " fill="none" id="ViewModel&lt;-UserViewModel" style="stroke: #A80036; stroke-width: 1.0;"/><polygon fill="none" points="1412.06,193.28,1405.6,213.46,1398.07,193.65,1412.06,193.28" style="stroke: #A80036; stroke-width: 1.0;"/><!--MD5=[d3cc384b0134ffefc7580cd5120754b3]
reverse link Fragment to CreateProfile--><path d="M51.73,193.33 C54.2,137.41 68.56,45.39 134.5,21 C180.56,3.96 530.44,3.96 576.5,21 C611.38,33.9 634.16,64.37 649.03,98.5 " fill="none" id="Fragment&lt;-CreateProfile" style="stroke: #A80036; stroke-width: 1.0;"/><polygon fill="none" points="58.73,193.61,51.28,213.45,44.73,193.3,58.73,193.61" style="stroke: #A80036; stroke-width: 1.0;"/><!--MD5=[57f4e73ee6934686227cf6b4cd2c79bb]
link CreateProfile to User--><path d="M710.578,387.8771 C710.578,387.8771 728.89,426.78 741,443 C789.37,507.81 870.54,555.63 927.22,583.33 " fill="none" id="CreateProfile-User" style="stroke: #A80036; stroke-width: 1.0;"/><polygon fill="#A80036" points="939.28,589.1,932.8892,581.6062,934.7701,586.9412,929.4351,588.822,939.28,589.1" style="stroke: #A80036; stroke-width: 1.0;"/><line style="stroke: #A80036; stroke-width: 1.0;" x1="934.7701" x2="927.555" y1="586.9412" y2="583.485"/><polygon fill="#A80036" points="706.16,376.72,704.65,383.7712,710.578,387.8771,712.088,380.8259,706.16,376.72" style="stroke: #A80036; stroke-width: 1.0;"/><text fill="#000000" font-family="sans-serif" font-size="13" lengthAdjust="spacingAndGlyphs" textLength="55" x="742" y="439.0669">newUser</text><!--MD5=[9eb46440b9ba4b25dceef85bc4f57500]
@startuml
package com.example.cmput301w24t33.users {

    class Profile {
        actionBarText
        addEmailEditText
        addFnameEditText
        addLnameEditText
        backButton
        cancelButton
        email
        fName
        lName
        newUser
        profileImage
        saveButton
        userId
        userRepo
        userViewModel
        view
        getAndroidId()
        onCreateView()
        saveProfile()
        setupActionBar()
        setupClickListeners()
    }
    class User {
        adminview
        email
        firstName
        lastName
        signedUpEvents
        userId
        addEvent()
        getAdminview()
        getEmail()
        getFirstName()
        getFullName()
        getLastName()
        getUserId()
        setAdminview()
        setEmail()
        setFirstName()
        setLastName()
        setUserId()
    }
    class UserAdapter {
        firstName
        lastName
        listener
        position
        user
        users
        view
        getItemCount()
        onBindViewHolder()
        onCreateViewHolder()
        onUserClick()
        setUsers()
    }
    
    
    class ViewHolder {
        firstName
        lastName
        position
    }
    class UserRepository {
        currentUser
        db
        doc
        docRef
        user
        userCallback
        userCollection
        userRef
        users
        getUser()
        onFailure()
        onUsersLoaded()
        onUsersLoaded()
        setCheckedInUsersSnapshotListener()
        setSignedUpUsersSnapshotListener()
        setUser()
        setUserCallback()
        setUserSnapshotListener()
    }
    class UserViewModel {
        liveUser
        user
        userLiveData
        userRepo
        getUser()
        getUsersLiveData()
        loadCheckedInUsers()
        loadSignedUpUsers()
        loadUsers()
        onFailure()
        onUsersLoaded()
        onUsersLoaded()
        queryUser()
        setUserCallback()
    }
    class CreateProfile {
        actionBarText
        addEmailEditText
        addFnameEditText
        addLnameEditText
        back
        createButton
        email
        fName
        lName
        newUser
        userId
        userRepo
        view
        getAndroidId()
        onCreate()
        onCreateView()
        setupActionBar()
        setupClickListeners()
    }
}

Fragment <|- Profile
Profile *- -> User : newUser
Serializable <|- User
User *- -> ArrayList : signedUpEvents
RecyclerView <|- UserAdapter
RecyclerView <|- ViewHolder
UserRepository *- -> ArrayList : users
UserRepository *- -> ArrayList : users
UserRepository *- -> ArrayList : users
UserRepository *- -> User : user
UserRepository *- -> User : user
UserRepository *- -> User : user
UserRepository *- -> User : currentUser
ViewModel <|- UserViewModel
Fragment <|- CreateProfile
CreateProfile *- -> User : newUser
@enduml

PlantUML version 1.2020.08(Sun Apr 26 14:08:22 UTC 2020)
(GPL source distribution)
Java Runtime: OpenJDK Runtime Environment
JVM: OpenJDK 64-Bit Server VM
Java Version: 1.8.0_402-heroku-b06
Operating System: Linux
Default Encoding: UTF-8
Language: en
Country: US
--></g></svg>